
<svg width="206" height="99" viewBox="0 0 206 99" fill="none" xmlns="http://www.w3.org/2000/svg">
<path fill-rule="evenodd" clip-rule="evenodd" d="M43.8704 82.5H130.657C131.149 82.5 131.627 82.4472 132.088 82.3482C132.549 82.4472 133.027 82.5 133.519 82.5H183.111C186.798 82.5 189.787 79.5451 189.787 75.9C189.787 72.2549 186.798 69.3 183.111 69.3H177.389C173.702 69.3 170.713 66.3451 170.713 62.7C170.713 59.0549 173.702 56.1 177.389 56.1H195.509C199.196 56.1 202.185 53.1451 202.185 49.5C202.185 45.8549 199.196 42.9 195.509 42.9H174.528C178.215 42.9 181.204 39.9451 181.204 36.3C181.204 32.6549 178.215 29.7 174.528 29.7H113.491C117.178 29.7 120.167 26.7451 120.167 23.1C120.167 19.4549 117.178 16.5 113.491 16.5H59.1296C55.4426 16.5 52.4537 19.4549 52.4537 23.1C52.4537 26.7451 55.4426 29.7 59.1296 29.7H20.9815C17.2945 29.7 14.3056 32.6549 14.3056 36.3C14.3056 39.9451 17.2945 42.9 20.9815 42.9H44.8241C48.5111 42.9 51.5 45.8549 51.5 49.5C51.5 53.1451 48.5111 56.1 44.8241 56.1H6.67593C2.98891 56.1 0 59.0549 0 62.7C0 66.3451 2.98891 69.3 6.67593 69.3H43.8704C40.1834 69.3 37.1944 72.2549 37.1944 75.9C37.1944 79.5451 40.1834 82.5 43.8704 82.5ZM199.324 82.5C203.011 82.5 206 79.5451 206 75.9C206 72.2549 203.011 69.3 199.324 69.3C195.637 69.3 192.648 72.2549 192.648 75.9C192.648 79.5451 195.637 82.5 199.324 82.5Z" fill="#DDE8FB"/>
<g clip-path="url(#clip0_694_63721)">
<path d="M115.459 0.5H61V98.5H145V28.6894L115.459 0.5Z" fill="#1B4CA1"/>
<path d="M115.459 0.5L145 28.6894H115.459V0.5Z" fill="#7FAEFF"/>
<path d="M94.042 38.1617C94.042 41.1041 92.3279 43.4835 90.2127 43.4835C88.0974 43.4835 86.3833 41.0951 86.3833 38.1617C86.3833 35.2283 88.0974 32.8398 90.2127 32.8398C92.3279 32.8398 94.042 35.2283 94.042 38.1617Z" fill="white"/>
<path d="M115.687 43.4835C117.802 43.4835 119.517 41.1009 119.517 38.1617C119.517 35.2225 117.802 32.8398 115.687 32.8398C113.572 32.8398 111.858 35.2225 111.858 38.1617C111.858 41.1009 113.572 43.4835 115.687 43.4835Z" fill="white"/>
<path d="M92.2916 54.1542C93.8871 52.4106 96.1027 51.0483 98.3091 50.2582C103.898 48.2512 109.296 50.349 113.545 54.1542C114.684 55.1714 116.371 53.5004 115.231 52.4741C110.518 48.2512 104.4 45.7719 98.1268 47.8152C95.3733 48.7143 92.5833 50.3309 90.6139 52.4741C89.5836 53.6003 91.2613 55.2804 92.3007 54.1542H92.2916Z" fill="white"/>
</g>
<defs>
<clipPath id="clip0_694_63721">
<rect width="84" height="98" fill="white" transform="translate(61 0.5)"/>
</clipPath>
</defs>
</svg>
