
<svg width="32" height="32" viewBox="0 0 32 32" fill="none" xmlns="http://www.w3.org/2000/svg">
<path fill-rule="evenodd" clip-rule="evenodd" d="M21.3335 14.6667C23.5468 14.6667 25.3202 12.88 25.3202 10.6667C25.3202 8.45335 23.5468 6.66669 21.3335 6.66669C19.1202 6.66669 17.3335 8.45335 17.3335 10.6667C17.3335 12.88 19.1202 14.6667 21.3335 14.6667ZM21.3335 17.3334C20.9468 17.3334 20.5068 17.36 20.0402 17.4C20.0668 17.4134 20.0802 17.44 20.0935 17.4534C21.6135 18.56 22.6668 20.04 22.6668 22V24C22.6668 24.4667 22.5735 24.92 22.4268 25.3334H29.3335C30.0668 25.3334 30.6668 24.7334 30.6668 24V22C30.6668 18.8934 24.4402 17.3334 21.3335 17.3334Z" fill="black" fill-opacity="0.4"/>
<path fill-rule="evenodd" clip-rule="evenodd" d="M10.6668 14.6667C12.8802 14.6667 14.6535 12.88 14.6535 10.6667C14.6535 8.45335 12.8802 6.66669 10.6668 6.66669C8.4535 6.66669 6.66683 8.45335 6.66683 10.6667C6.66683 12.88 8.4535 14.6667 10.6668 14.6667ZM10.6668 17.3334C7.56016 17.3334 1.3335 18.8934 1.3335 22V24C1.3335 24.7334 1.9335 25.3334 2.66683 25.3334H18.6668C19.4002 25.3334 20.0002 24.7334 20.0002 24V22C20.0002 18.8934 13.7735 17.3334 10.6668 17.3334Z" fill="black" fill-opacity="0.6"/>
</svg>
