
<svg width="24" height="24" viewBox="0 0 24 24" fill="none" xmlns="http://www.w3.org/2000/svg">
<path d="M20.9938 11.5947C20.9091 9.29587 19.9317 7.11839 18.2656 5.51688C16.5995 3.91536 14.3737 3.01363 12.0527 3H12.0089C10.4459 2.99885 8.90966 3.40103 7.55111 4.16695C6.19258 4.93287 5.05866 6.03615 4.26092 7.36823C3.46318 8.70031 3.02911 10.2153 3.00141 11.7641C2.97372 13.3129 3.35336 14.8421 4.10298 16.2014L3.307 20.9222C3.30571 20.9318 3.3065 20.9417 3.30935 20.951C3.31219 20.9604 3.31701 20.969 3.32349 20.9764C3.32997 20.9838 3.33795 20.9897 3.34691 20.9938C3.35587 20.9978 3.36561 20.9999 3.37546 21H3.38916L8.10021 19.9614C9.31745 20.5406 10.6504 20.8411 12.0007 20.8408C12.0865 20.8408 12.1723 20.8408 12.2581 20.8408C13.4458 20.8072 14.6151 20.5408 15.6984 20.0569C16.7817 19.5731 17.7576 18.8814 18.5698 18.0218C19.382 17.1622 20.0144 16.1516 20.4304 15.0485C20.8464 13.9454 21.0379 12.7716 20.9938 11.5947ZM12.2134 19.2892C12.1422 19.2892 12.071 19.2892 12.0007 19.2892C10.8074 19.2907 9.6311 19.0076 8.57123 18.4641L8.33025 18.3392L5.13538 19.0874L5.72506 15.8839L5.58814 15.6541C4.93418 14.549 4.58193 13.2942 4.5661 12.0132C4.55027 10.7322 4.87139 9.46909 5.49785 8.34851C6.12431 7.22789 7.03448 6.28835 8.13873 5.6224C9.24299 4.95645 10.5032 4.58708 11.7953 4.55067C11.8671 4.55067 11.9392 4.55067 12.0116 4.55067C13.9625 4.5564 15.8329 5.32144 17.22 6.68098C18.6071 8.04051 19.3999 9.88573 19.4274 11.819C19.4549 13.7523 18.7151 15.6189 17.3673 17.0167C16.0194 18.4145 14.1715 19.2316 12.2216 19.2919L12.2134 19.2892Z" fill="#1B4CA1"/>
<path d="M8.87269 7.61355C8.76148 7.61571 8.65182 7.63995 8.55022 7.68486C8.44862 7.72977 8.35714 7.79443 8.28121 7.87501C8.06669 8.09305 7.46697 8.61778 7.43228 9.71971C7.3976 10.8216 8.1744 11.9118 8.28303 12.0647C8.39166 12.2176 9.76817 14.5979 12.0356 15.5632C13.3684 16.1323 13.9526 16.2299 14.3314 16.2299C14.4875 16.2299 14.6052 16.2137 14.7284 16.2064C15.1438 16.1811 16.0813 15.7052 16.2857 15.1877C16.4902 14.6702 16.5039 14.2179 16.45 14.1274C16.3962 14.0369 16.2483 13.9718 16.0256 13.856C15.8029 13.7402 14.7102 13.1612 14.5048 13.0798C14.4286 13.0446 14.3467 13.0235 14.2629 13.0174C14.2083 13.0202 14.1553 13.0361 14.1084 13.0639C14.0615 13.0916 14.0221 13.1303 13.9936 13.1765C13.8111 13.4018 13.3921 13.8913 13.2515 14.0324C13.2208 14.0675 13.1829 14.0957 13.1405 14.1154C13.0981 14.135 13.0519 14.1456 13.005 14.1464C12.9187 14.1427 12.8342 14.1201 12.7577 14.0804C12.0958 13.8018 11.4924 13.4029 10.9786 12.9043C10.4985 12.4353 10.0912 11.8984 9.76998 11.3111C9.64588 11.0831 9.76998 10.9655 9.88319 10.8588C9.9964 10.752 10.1178 10.6045 10.2346 10.4769C10.3305 10.368 10.4104 10.2462 10.472 10.1151C10.5038 10.0542 10.5199 9.98647 10.5188 9.91795C10.5177 9.84937 10.4994 9.78223 10.4656 9.72241C10.4117 9.60841 10.0092 8.4875 9.82023 8.03786C9.66689 7.65336 9.4843 7.6407 9.32454 7.62894C9.19312 7.61989 9.0425 7.61536 8.89188 7.61084H8.87269" fill="#1B4CA1"/>
</svg>
