
<svg width="17" height="24" viewBox="0 0 17 24" fill="none" xmlns="http://www.w3.org/2000/svg">
<path fill-rule="evenodd" clip-rule="evenodd" d="M6.70898 17.9559C7.20169 17.9559 7.60482 18.3394 7.60482 18.8081L7.59876 18.9071C7.54677 19.3296 7.1665 19.6603 6.70898 19.6603H2.22982C1.73711 19.6603 1.33398 19.2768 1.33398 18.8081L1.34004 18.7091C1.39203 18.2865 1.7723 17.9559 2.22982 17.9559H6.70898ZM6.70898 14.547C7.20169 14.547 7.60482 14.9305 7.60482 15.3992L7.59876 15.4982C7.54677 15.9208 7.1665 16.2514 6.70898 16.2514H2.22982C1.73711 16.2514 1.33398 15.8679 1.33398 15.3992L1.34004 15.3002C1.39203 14.8777 1.7723 14.547 2.22982 14.547H6.70898ZM14.7715 11.1381C15.2642 11.1381 15.6673 11.5216 15.6673 11.9903L15.6613 12.0893C15.6093 12.5119 15.229 12.8425 14.7715 12.8425H2.22982C1.73711 12.8425 1.33398 12.459 1.33398 11.9903L1.34004 11.8913C1.39203 11.4688 1.7723 11.1381 2.22982 11.1381H14.7715ZM14.7715 7.7292C15.229 7.7292 15.6093 8.05987 15.6613 8.4824L15.6673 8.58142C15.6673 9.05015 15.2642 9.43365 14.7715 9.43365H2.22982C1.7723 9.43365 1.39203 9.10297 1.34004 8.68045L1.33398 8.58142C1.33398 8.1127 1.73711 7.7292 2.22982 7.7292H14.7715ZM14.7715 4.32031C15.2642 4.32031 15.6673 4.70381 15.6673 5.17253L15.6613 5.27156C15.6093 5.69409 15.229 6.02476 14.7715 6.02476H2.22982C1.73711 6.02476 1.33398 5.64126 1.33398 5.17253L1.34004 5.07351C1.39203 4.65098 1.7723 4.32031 2.22982 4.32031H14.7715Z" fill="#1B4CA1"/>
<path d="M15.137 15.2493C14.7877 14.9169 14.2233 14.9169 13.8739 15.2493L11.6612 17.3457L11.0252 16.7407C10.7027 16.4339 10.197 16.4103 9.84628 16.6699L9.76203 16.7407C9.41266 17.073 9.41266 17.6099 9.76203 17.9423L11.0341 19.1525C11.3835 19.4848 11.9479 19.4848 12.2972 19.1525L15.137 16.4509C15.4595 16.1441 15.4843 15.663 15.2115 15.3294L15.137 15.2493Z" fill="#F3962F"/>
</svg>
