
<svg width="15" height="16" viewBox="0 0 15 16" fill="none" xmlns="http://www.w3.org/2000/svg">
<path fill-rule="evenodd" clip-rule="evenodd" d="M5.70837 13.9559C6.20108 13.9559 6.60421 14.3394 6.60421 14.8081L6.59815 14.9071C6.54616 15.3296 6.16589 15.6603 5.70837 15.6603H1.22921C0.736499 15.6603 0.333374 15.2768 0.333374 14.8081L0.33943 14.7091C0.39142 14.2865 0.771692 13.9559 1.22921 13.9559H5.70837ZM12.7675 11.1521C13.1169 10.8197 13.6813 10.8197 14.0307 11.1521L14.1051 11.2322C14.378 11.5658 14.3532 12.0469 14.0307 12.3537L11.1909 15.0552C10.8415 15.3876 10.2771 15.3876 9.92775 15.0552L8.65567 13.8451C8.30629 13.5127 8.30629 12.9758 8.65567 12.6434L8.73991 12.5726C9.0906 12.313 9.59629 12.3366 9.91879 12.6434L10.5548 13.2485L12.7675 11.1521ZM5.70837 10.547C6.20108 10.547 6.60421 10.9305 6.60421 11.3992L6.59815 11.4982C6.54616 11.9208 6.16589 12.2514 5.70837 12.2514H1.22921C0.736499 12.2514 0.333374 11.8679 0.333374 11.3992L0.33943 11.3002C0.39142 10.8777 0.771692 10.547 1.22921 10.547H5.70837ZM13.7709 7.13809C14.2636 7.13809 14.6667 7.52159 14.6667 7.99031L14.6607 8.08934C14.6087 8.51186 14.2284 8.84254 13.7709 8.84254H1.22921C0.736499 8.84254 0.333374 8.45903 0.333374 7.99031L0.33943 7.89129C0.39142 7.46876 0.771692 7.13809 1.22921 7.13809H13.7709ZM13.7709 3.7292C14.2284 3.7292 14.6087 4.05987 14.6607 4.4824L14.6667 4.58142C14.6667 5.05015 14.2636 5.43365 13.7709 5.43365H1.22921C0.771692 5.43365 0.39142 5.10297 0.33943 4.68045L0.333374 4.58142C0.333374 4.1127 0.736499 3.7292 1.22921 3.7292H13.7709ZM13.7709 0.320312C14.2636 0.320312 14.6667 0.703812 14.6667 1.17253L14.6607 1.27156C14.6087 1.69409 14.2284 2.02476 13.7709 2.02476H1.22921C0.736499 2.02476 0.333374 1.64126 0.333374 1.17253L0.33943 1.07351C0.39142 0.650983 0.771692 0.320312 1.22921 0.320312H13.7709Z" fill="#1B4CA1"/>
</svg>
