
<svg width="47" height="48" viewBox="0 0 47 48" fill="none" xmlns="http://www.w3.org/2000/svg">
<path d="M23.4993 35.667C24.1605 35.667 24.7146 35.4434 25.1618 34.9962C25.6091 34.5489 25.8327 33.9948 25.8327 33.3337C25.8327 32.6725 25.6091 32.1184 25.1618 31.6712C24.7146 31.2239 24.1605 31.0003 23.4993 31.0003C22.8382 31.0003 22.2841 31.2239 21.8368 31.6712C21.3896 32.1184 21.166 32.6725 21.166 33.3337C21.166 33.9948 21.3896 34.5489 21.8368 34.9962C22.2841 35.4434 22.8382 35.667 23.4993 35.667ZM21.166 26.3337H25.8327V12.3337H21.166V26.3337ZM23.4993 47.3337C20.2716 47.3337 17.2382 46.7212 14.3993 45.4962C11.5605 44.2712 9.09102 42.6087 6.99102 40.5087C4.89102 38.4087 3.22852 35.9392 2.00352 33.1003C0.778516 30.2614 0.166016 27.2281 0.166016 24.0003C0.166016 20.7725 0.778516 17.7392 2.00352 14.9003C3.22852 12.0614 4.89102 9.59199 6.99102 7.49199C9.09102 5.39199 11.5605 3.72949 14.3993 2.50449C17.2382 1.27949 20.2716 0.666992 23.4993 0.666992C26.7271 0.666992 29.7605 1.27949 32.5993 2.50449C35.4382 3.72949 37.9077 5.39199 40.0077 7.49199C42.1077 9.59199 43.7702 12.0614 44.9952 14.9003C46.2202 17.7392 46.8327 20.7725 46.8327 24.0003C46.8327 27.2281 46.2202 30.2614 44.9952 33.1003C43.7702 35.9392 42.1077 38.4087 40.0077 40.5087C37.9077 42.6087 35.4382 44.2712 32.5993 45.4962C29.7605 46.7212 26.7271 47.3337 23.4993 47.3337ZM23.4993 42.667C28.7105 42.667 33.1243 40.8587 36.741 37.242C40.3577 33.6253 42.166 29.2114 42.166 24.0003C42.166 18.7892 40.3577 14.3753 36.741 10.7587C33.1243 7.14199 28.7105 5.33366 23.4993 5.33366C18.2882 5.33366 13.8743 7.14199 10.2577 10.7587C6.64102 14.3753 4.83268 18.7892 4.83268 24.0003C4.83268 29.2114 6.64102 33.6253 10.2577 37.242C13.8743 40.8587 18.2882 42.667 23.4993 42.667Z" fill="#F3962F"/>
</svg>
