<svg width="20" height="20" viewBox="0 0 20 20" fill="none" xmlns="http://www.w3.org/2000/svg">
<path fill-rule="evenodd" clip-rule="evenodd" d="M9.16797 5.83366H10.8346V7.50033H9.16797V5.83366ZM9.16797 9.16699H10.8346V14.167H9.16797V9.16699ZM10.0013 1.66699C5.4013 1.66699 1.66797 5.40033 1.66797 10.0003C1.66797 14.6003 5.4013 18.3337 10.0013 18.3337C14.6013 18.3337 18.3346 14.6003 18.3346 10.0003C18.3346 5.40033 14.6013 1.66699 10.0013 1.66699ZM10.0013 16.667C6.3263 16.667 3.33464 13.6753 3.33464 10.0003C3.33464 6.32533 6.3263 3.33366 10.0013 3.33366C13.6763 3.33366 16.668 6.32533 16.668 10.0003C16.668 13.6753 13.6763 16.667 10.0013 16.667Z" fill="#999999"/>
</svg>
