
<svg width="22" height="12" viewBox="0 0 22 12" fill="none" xmlns="http://www.w3.org/2000/svg">
<path fill-rule="evenodd" clip-rule="evenodd" d="M16.3334 0.333984H13.1334C12.5467 0.333984 12.0667 0.843984 12.0667 1.46732C12.0667 2.09065 12.5467 2.60065 13.1334 2.60065H16.3334C18.0934 2.60065 19.5334 4.13065 19.5334 6.00065C19.5334 7.87065 18.0934 9.40065 16.3334 9.40065H13.1334C12.5467 9.40065 12.0667 9.91065 12.0667 10.534C12.0667 11.1573 12.5467 11.6673 13.1334 11.6673H16.3334C19.2774 11.6673 21.6667 9.12865 21.6667 6.00065C21.6667 2.87265 19.2774 0.333984 16.3334 0.333984ZM6.73337 6.00065C6.73337 6.62398 7.21337 7.13398 7.80004 7.13398H14.2C14.7867 7.13398 15.2667 6.62398 15.2667 6.00065C15.2667 5.37732 14.7867 4.86732 14.2 4.86732H7.80004C7.21337 4.86732 6.73337 5.37732 6.73337 6.00065ZM8.86671 9.40065H5.66671C3.90671 9.40065 2.46671 7.87065 2.46671 6.00065C2.46671 4.13065 3.90671 2.60065 5.66671 2.60065H8.86671C9.45337 2.60065 9.93337 2.09065 9.93337 1.46732C9.93337 0.843984 9.45337 0.333984 8.86671 0.333984H5.66671C2.72271 0.333984 0.333374 2.87265 0.333374 6.00065C0.333374 9.12865 2.72271 11.6673 5.66671 11.6673H8.86671C9.45337 11.6673 9.93337 11.1573 9.93337 10.534C9.93337 9.91065 9.45337 9.40065 8.86671 9.40065Z" fill="#1B4CA1"/>
</svg>
