
<svg width="22" height="12" viewBox="0 0 22 12" fill="none" xmlns="http://www.w3.org/2000/svg">
<path fill-rule="evenodd" clip-rule="evenodd" d="M16 0H12.8C12.2133 0 11.7333 0.51 11.7333 1.13333C11.7333 1.75667 12.2133 2.26667 12.8 2.26667H16C17.76 2.26667 19.2 3.79667 19.2 5.66667C19.2 7.53667 17.76 9.06667 16 9.06667H12.8C12.2133 9.06667 11.7333 9.57667 11.7333 10.2C11.7333 10.8233 12.2133 11.3333 12.8 11.3333H16C18.944 11.3333 21.3333 8.79467 21.3333 5.66667C21.3333 2.53867 18.944 0 16 0ZM8.53333 9.06667H5.33333C3.57333 9.06667 2.13333 7.53667 2.13333 5.66667C2.13333 3.79667 3.57333 2.26667 5.33333 2.26667H8.53333C9.12 2.26667 9.6 1.75667 9.6 1.13333C9.6 0.51 9.12 0 8.53333 0H5.33333C2.38933 0 0 2.53867 0 5.66667C0 8.79467 2.38933 11.3333 5.33333 11.3333H8.53333C9.12 11.3333 9.6 10.8233 9.6 10.2C9.6 9.57667 9.12 9.06667 8.53333 9.06667Z" fill="#1B4CA1"/>
<path d="M7.73464 6.93366C7.14797 6.93366 6.66797 6.42366 6.66797 5.80033C6.66797 5.17699 7.14797 4.66699 7.73464 4.66699H14.1346C14.7213 4.66699 15.2013 5.17699 15.2013 5.80033C15.2013 6.42366 14.7213 6.93366 14.1346 6.93366H7.73464Z" fill="#F3962F"/>
</svg>
