
<svg width="16" height="16" viewBox="0 0 16 16" fill="none" xmlns="http://www.w3.org/2000/svg">
<path fill-rule="evenodd" clip-rule="evenodd" d="M13.3335 3.99992V11.9999C13.3335 12.3666 13.6335 12.6666 14.0002 12.6666C14.3668 12.6666 14.6668 12.3666 14.6668 11.9999V3.99992C14.6668 3.63325 14.3668 3.33325 14.0002 3.33325C13.6335 3.33325 13.3335 3.63325 13.3335 3.99992ZM11.3335 12.6666C11.7002 12.6666 12.0002 12.3666 12.0002 11.9999V3.99992C12.0002 3.63325 11.7002 3.33325 11.3335 3.33325C10.9668 3.33325 10.6668 3.63325 10.6668 3.99992V11.9999C10.6668 12.3666 10.9668 12.6666 11.3335 12.6666ZM8.76207 3.33325H1.90492C1.59064 3.33325 1.3335 3.63325 1.3335 3.99992V11.9999C1.3335 12.3666 1.59064 12.6666 1.90492 12.6666H8.76207C9.07635 12.6666 9.3335 12.3666 9.3335 11.9999V3.99992C9.3335 3.63325 9.07635 3.33325 8.76207 3.33325Z" fill="#666666"/>
</svg>
