
<svg width="24" height="24" viewBox="0 0 24 24" fill="none" xmlns="http://www.w3.org/2000/svg">
<path fill-rule="evenodd" clip-rule="evenodd" d="M18.5025 3.32996H5.49749C4.30536 3.32996 3.32999 4.30533 3.32999 5.49746V18.5025C3.32999 19.6946 4.30536 20.67 5.49749 20.67H18.5025C19.6946 20.67 20.67 19.6946 20.67 18.5025V5.49746C20.67 4.30533 19.6946 3.32996 18.5025 3.32996ZM16.335 8.74871H13.0837V14.7093C13.0837 16.2266 11.8916 17.4187 10.3744 17.4187C8.85711 17.4187 7.66499 16.2266 7.66499 14.7093C7.66499 13.1921 8.85711 12 10.3744 12C11.0246 12 11.5665 12.2167 12 12.5418V6.58121H16.335V8.74871Z" fill="#1B4CA1"/>
</svg>
