<svg width="206" height="75" viewBox="0 0 206 75" fill="none" xmlns="http://www.w3.org/2000/svg">
<path fill-rule="evenodd" clip-rule="evenodd" d="M43.8704 66.2988H130.657C131.149 66.2988 131.627 66.246 132.088 66.147C132.549 66.246 133.027 66.2988 133.519 66.2988H183.111C186.798 66.2988 189.787 63.3439 189.787 59.6988C189.787 56.0537 186.798 53.0988 183.111 53.0988H177.389C173.702 53.0988 170.713 50.1439 170.713 46.4988C170.713 42.8537 173.702 39.8988 177.389 39.8988H195.509C199.196 39.8988 202.185 36.9439 202.185 33.2988C202.185 29.6537 199.196 26.6988 195.509 26.6988H174.528C178.215 26.6988 181.204 23.7439 181.204 20.0988C181.204 16.4537 178.215 13.4988 174.528 13.4988H113.491C117.178 13.4988 120.167 10.5439 120.167 6.89883C120.167 3.25374 117.178 0.298828 113.491 0.298828H59.1296C55.4426 0.298828 52.4537 3.25374 52.4537 6.89883C52.4537 10.5439 55.4426 13.4988 59.1296 13.4988H20.9815C17.2945 13.4988 14.3056 16.4537 14.3056 20.0988C14.3056 23.7439 17.2945 26.6988 20.9815 26.6988H44.8241C48.5111 26.6988 51.5 29.6537 51.5 33.2988C51.5 36.9439 48.5111 39.8988 44.8241 39.8988H6.67593C2.98891 39.8988 0 42.8537 0 46.4988C0 50.1439 2.98891 53.0988 6.67593 53.0988H43.8704C40.1834 53.0988 37.1944 56.0537 37.1944 59.6988C37.1944 63.3439 40.1834 66.2988 43.8704 66.2988ZM199.324 66.2988C203.011 66.2988 206 63.3439 206 59.6988C206 56.0537 203.011 53.0988 199.324 53.0988C195.637 53.0988 192.648 56.0537 192.648 59.6988C192.648 63.3439 195.637 66.2988 199.324 66.2988Z" fill="#DDE8FB"/>
<path d="M149.778 33.2256L165.806 70.812C166.594 72.6613 165.225 74.7079 163.196 74.7079H146.105L149.773 33.2256H149.778Z" fill="#0B263D"/>
<path d="M151.18 33.2256L167.208 70.812C167.997 72.6613 166.628 74.7079 164.599 74.7079H147.508L151.176 33.2256H151.18Z" fill="#7FAEFF"/>
<path d="M148.865 33.2256L164.894 70.812C165.682 72.6613 164.313 74.7079 162.284 74.7079H145.193L148.861 33.2256H148.865Z" fill="#091E30"/>
<path d="M145.334 74.7081H44.3082C42.2377 74.7081 40.7025 73.0437 40.8768 70.993L46.6152 4.01879C46.7894 1.9681 48.611 0.303711 50.6814 0.303711H151.707C153.778 0.303711 155.313 1.9681 155.139 4.01879L149.396 70.9971C149.222 73.0478 147.4 74.7122 145.33 74.7122L145.334 74.7081Z" fill="#7FAEFF"/>
<path d="M142.471 74.7081H41.4449C39.3744 74.7081 37.8392 73.0437 38.0135 70.993L43.756 4.01879C43.9303 1.9681 45.7518 0.303711 47.8223 0.303711H148.848C150.919 0.303711 152.454 1.9681 152.28 4.01879L146.537 70.9971C146.363 73.0478 144.541 74.7122 142.471 74.7122V74.7081Z" fill="#1B4CA1"/>
<path d="M46.4742 1.77418H148.807C150.471 1.77418 151.795 2.83856 152.18 4.31391L152.205 4.01391C152.38 1.96322 150.844 0.298828 148.774 0.298828H47.748C46.2045 0.298828 44.8021 1.22349 44.1133 2.53856C44.7938 2.05774 45.6112 1.77007 46.4742 1.77007V1.77418Z" fill="#1B4CA1"/>
<path d="M139.853 71.8751H44.5484C42.478 71.8751 40.9427 70.2107 41.117 68.16L46.3741 6.84887C46.5484 4.79818 48.3699 3.13379 50.4404 3.13379H145.744C147.815 3.13379 149.35 4.79818 149.176 6.84887L143.923 68.16C143.749 70.2107 141.927 71.8751 139.857 71.8751H139.853Z" fill="white"/>
<path d="M73.9797 16.9385L73.8926 17.9618" stroke="#1B4CA1" stroke-width="0.25" stroke-miterlimit="10"/>
<path d="M73.7179 20.0205L70.6309 56.0206" stroke="#1B4CA1" stroke-width="0.25" stroke-miterlimit="10" stroke-dasharray="5.02 5.02"/>
<path d="M70.5442 57.0488L70.457 58.0721" stroke="#1B4CA1" stroke-width="0.25" stroke-miterlimit="10"/>
<path d="M89.2649 16.9385L89.1777 17.9618" stroke="#1B4CA1" stroke-width="0.25" stroke-miterlimit="10"/>
<path d="M89.0031 20.0205L85.916 56.0206" stroke="#1B4CA1" stroke-width="0.25" stroke-miterlimit="10" stroke-dasharray="5.02 5.02"/>
<path d="M85.8293 57.0488L85.7422 58.0721" stroke="#1B4CA1" stroke-width="0.25" stroke-miterlimit="10"/>
<path d="M104.554 16.9385L104.463 17.9618" stroke="#1B4CA1" stroke-width="0.25" stroke-miterlimit="10"/>
<path d="M104.288 20.0205L101.201 56.0206" stroke="#1B4CA1" stroke-width="0.25" stroke-miterlimit="10" stroke-dasharray="5.02 5.02"/>
<path d="M101.114 57.0488L101.027 58.0721" stroke="#1B4CA1" stroke-width="0.25" stroke-miterlimit="10"/>
<path d="M119.841 16.9385L119.754 17.9618" stroke="#1B4CA1" stroke-width="0.25" stroke-miterlimit="10"/>
<path d="M119.575 20.0205L116.488 56.0206" stroke="#1B4CA1" stroke-width="0.25" stroke-miterlimit="10" stroke-dasharray="5.02 5.02"/>
<path d="M116.402 57.0488L116.314 58.0721" stroke="#1B4CA1" stroke-width="0.25" stroke-miterlimit="10"/>
<path d="M124.156 29.9365H123.119" stroke="#1B4CA1" stroke-width="0.25" stroke-miterlimit="10"/>
<path d="M121.093 29.9365H69.4844" stroke="#1B4CA1" stroke-width="0.25" stroke-miterlimit="10" stroke-dasharray="4.88 4.88"/>
<path d="M68.4729 29.9365H67.4355" stroke="#1B4CA1" stroke-width="0.25" stroke-miterlimit="10"/>
<path d="M122.858 45.0781H121.82" stroke="#1B4CA1" stroke-width="0.25" stroke-miterlimit="10"/>
<path d="M119.798 45.0781H68.1855" stroke="#1B4CA1" stroke-width="0.25" stroke-miterlimit="10" stroke-dasharray="4.88 4.88"/>
<path d="M67.174 45.0781H66.1367" stroke="#1B4CA1" stroke-width="0.25" stroke-miterlimit="10"/>
<path d="M76.7408 64.6804H67.3262L67.4424 63.3037H76.857L76.7408 64.6804Z" fill="#1B4CA1"/>
<path d="M82.1523 67.9841H67.0449L67.1611 66.6074H82.2727L82.1523 67.9841Z" fill="#1B4CA1"/>
<path d="M89.1939 64.6804H79.7793L79.8955 63.3037H89.3101L89.1939 64.6804Z" fill="#1B4CA1"/>
<path d="M70.4615 11.5236H54.5865C54.0346 11.5236 53.6238 11.0798 53.6695 10.5332L53.9516 7.22088C53.9973 6.67431 54.4827 6.23047 55.0387 6.23047H70.9138C71.4656 6.23047 71.8764 6.67431 71.8307 7.22088L71.5486 10.5332C71.503 11.0798 71.0175 11.5236 70.4615 11.5236Z" fill="black" fill-opacity="0.08"/>
<path d="M92.3404 11.5236H76.4654C75.9135 11.5236 75.5027 11.0798 75.5484 10.5332L75.8305 7.22088C75.8762 6.67431 76.3616 6.23047 76.9176 6.23047H92.7927C93.3445 6.23047 93.7553 6.67431 93.7096 7.22088L93.4275 10.5332C93.3819 11.0798 92.8964 11.5236 92.3404 11.5236Z" fill="#1B4CA1"/>
<path d="M114.219 11.5236H98.3443C97.7924 11.5236 97.3816 11.0798 97.4273 10.5332L97.7094 7.22088C97.7551 6.67431 98.2405 6.23047 98.7965 6.23047H114.672C115.223 6.23047 115.634 6.67431 115.589 7.22088L115.306 10.5332C115.261 11.0798 114.775 11.5236 114.219 11.5236Z" fill="black" fill-opacity="0.08"/>
<path d="M136.098 11.5236H120.223C119.671 11.5236 119.261 11.0798 119.306 10.5332L119.588 7.22088C119.634 6.67431 120.119 6.23047 120.675 6.23047H136.55C137.102 6.23047 137.513 6.67431 137.467 7.22088L137.185 10.5332C137.14 11.0798 136.654 11.5236 136.098 11.5236Z" fill="black" fill-opacity="0.08"/>
<path d="M105.635 45.1304C101.527 43.125 101.668 24.1797 96.5685 24.1797C91.4691 24.1797 88.2576 43.125 83.793 45.1304" stroke="#7FAEFF" stroke-miterlimit="10"/>
<path d="M73.2949 45.1299H116.136" stroke="#7FAEFF" stroke-miterlimit="10"/>
<path d="M96.8629 20.8926L93.6348 57.316" stroke="#7FAEFF" stroke-miterlimit="10"/>
<path d="M119.682 65.9336H132.433C134.022 65.9336 135.312 67.2117 135.312 68.7857V70.4336H116.807V68.7857C116.807 67.2117 118.097 65.9336 119.686 65.9336H119.682Z" fill="#F3962F"/>
<path opacity="0.1" d="M123.43 70.4295H121.094L122.409 65.9336H124.745L123.43 70.4295Z" fill="white"/>
<path opacity="0.1" d="M126.055 70.4295H124.889L126.204 65.9336H127.37L126.055 70.4295Z" fill="white"/>
<path d="M135.308 70.4287H116.803V71.8712H135.308V70.4287Z" fill="url(#paint0_linear_2379_77566)"/>
<path d="M113.38 69.2617H106.808C105.642 69.2617 104.572 69.8946 104.016 70.9097C103.779 71.3453 104.094 71.8754 104.596 71.8754H113.38C114.111 71.8754 114.7 71.2919 114.7 70.5686C114.7 69.8453 114.111 69.2617 113.38 69.2617Z" fill="white"/>
<path d="M141.077 55.8936H125.355L127.185 38.3086H142.911L141.077 55.8936Z" fill="#1B4CA1"/>
<path d="M136.553 40.5H133L133.447 37.5H137L136.553 40.5Z" fill="#F3962F"/>
<path d="M136.55 43.3764H128.297L128.405 42.3613H136.658L136.55 43.3764Z" fill="#7FAEFF"/>
<path d="M140.65 43.3764H137.928L138.031 42.3613H140.753L140.65 43.3764Z" fill="#7FAEFF"/>
<path d="M132.289 46.5981H127.961L128.069 45.583H132.392L132.289 46.5981Z" fill="#7FAEFF"/>
<path d="M135.184 46.5981H133.01L133.113 45.583H135.292L135.184 46.5981Z" fill="#7FAEFF"/>
<path d="M140.312 46.5981H136.213L136.321 45.583H140.416L140.312 46.5981Z" fill="#7FAEFF"/>
<path d="M130.289 49.8159H127.629L127.733 48.8008H130.392L130.289 49.8159Z" fill="#7FAEFF"/>
<path d="M139.978 49.8159H131.953L132.061 48.8008H140.086L139.978 49.8159Z" fill="#7FAEFF"/>
<path d="M131.616 53.0385H127.293L127.397 52.0234H131.724L131.616 53.0385Z" fill="#7FAEFF"/>
<path d="M136.429 53.0385H132.105L132.209 52.0234H136.537L136.429 53.0385Z" fill="#7FAEFF"/>
<path d="M139.642 53.0385H136.92L137.028 52.0234H139.75L139.642 53.0385Z" fill="#7FAEFF"/>
<defs>
<linearGradient id="paint0_linear_2379_77566" x1="1415.71" y1="142.581" x2="1397.05" y2="254.543" gradientUnits="userSpaceOnUse">
<stop stop-color="#F58634"/>
<stop offset="1" stop-color="#F5B88B"/>
</linearGradient>
</defs>
</svg>
