
<svg width="158" height="91" viewBox="0 0 158 91" fill="none" xmlns="http://www.w3.org/2000/svg">
<path d="M135.924 39.8281L155.313 85.2929C156.266 87.5299 154.61 90.0054 152.156 90.0054H131.483L135.919 39.8281H135.924Z" fill="#0B263D"/>
<path d="M137.621 39.8281L157.009 85.2929C157.963 87.5299 156.306 90.0054 153.852 90.0054H133.179L137.616 39.8281H137.621Z" fill="#7FAEFF"/>
<path d="M134.82 39.8281L154.208 85.2929C155.162 87.5299 153.506 90.0054 151.052 90.0054H130.378L134.815 39.8281H134.82Z" fill="#091E30"/>
<path d="M130.549 90.0059H8.34747C5.84301 90.0059 3.98599 87.9926 4.19679 85.5121L11.138 4.49965C11.3488 2.01912 13.5521 0.00585938 16.0566 0.00585938H138.258C140.763 0.00585938 142.62 2.01912 142.409 4.49965L135.463 85.517C135.252 87.9976 133.048 90.0108 130.544 90.0108L130.549 90.0059Z" fill="#7FAEFF"/>
<path d="M127.086 90.0059H4.8844C2.37994 90.0059 0.522921 87.9926 0.733717 85.5121L7.67996 4.49965C7.89075 2.01912 10.0941 0.00585938 12.5985 0.00585938H134.8C137.305 0.00585938 139.162 2.01912 138.951 4.49965L132.005 85.517C131.794 87.9976 129.59 90.0108 127.086 90.0108V90.0059Z" fill="#1B4CA1"/>
<path d="M10.9674 1.78459H134.75C136.763 1.78459 138.364 3.07208 138.83 4.85667L138.86 4.49379C139.071 2.01326 137.214 0 134.71 0H12.5082C10.6411 0 8.94473 1.11848 8.11159 2.7092C8.9347 2.12759 9.92343 1.77962 10.9674 1.77962V1.78459Z" fill="#1B4CA1"/>
<path d="M123.919 86.5796H8.63857C6.13411 86.5796 4.2771 84.5664 4.4879 82.0859L10.8469 7.92347C11.0577 5.44294 13.261 3.42969 15.7655 3.42969H131.046C133.55 3.42969 135.407 5.44294 135.197 7.92347L128.843 82.0859C128.632 84.5664 126.428 86.5796 123.924 86.5796H123.919Z" fill="white"/>
<path d="M44.238 20.127L44.1326 21.3647" stroke="black" stroke-opacity="0.32" stroke-width="0.25" stroke-miterlimit="10"/>
<path d="M43.9218 23.8555L40.1877 67.4015" stroke="black" stroke-opacity="0.32" stroke-width="0.25" stroke-miterlimit="10" stroke-dasharray="5.02 5.02"/>
<path d="M40.0823 68.6445L39.9769 69.8823" stroke="black" stroke-opacity="0.32" stroke-width="0.25" stroke-miterlimit="10"/>
<path d="M62.7279 20.127L62.6225 21.3647" stroke="black" stroke-opacity="0.32" stroke-width="0.25" stroke-miterlimit="10"/>
<path d="M62.4117 23.8555L58.6776 67.4015" stroke="black" stroke-opacity="0.32" stroke-width="0.25" stroke-miterlimit="10" stroke-dasharray="5.02 5.02"/>
<path d="M58.5722 68.6445L58.4668 69.8823" stroke="black" stroke-opacity="0.32" stroke-width="0.25" stroke-miterlimit="10"/>
<path d="M81.2227 20.127L81.1123 21.3647" stroke="black" stroke-opacity="0.32" stroke-width="0.25" stroke-miterlimit="10"/>
<path d="M80.9015 23.8555L77.1674 67.4015" stroke="black" stroke-opacity="0.32" stroke-width="0.25" stroke-miterlimit="10" stroke-dasharray="5.02 5.02"/>
<path d="M77.062 68.6445L76.9566 69.8823" stroke="black" stroke-opacity="0.32" stroke-width="0.25" stroke-miterlimit="10"/>
<path d="M99.7125 20.127L99.6071 21.3647" stroke="black" stroke-opacity="0.32" stroke-width="0.25" stroke-miterlimit="10"/>
<path d="M99.3913 23.8555L95.6572 67.4015" stroke="black" stroke-opacity="0.32" stroke-width="0.25" stroke-miterlimit="10" stroke-dasharray="5.02 5.02"/>
<path d="M95.5518 68.6445L95.4464 69.8823" stroke="black" stroke-opacity="0.32" stroke-width="0.25" stroke-miterlimit="10"/>
<path d="M104.932 35.8496H103.678" stroke="black" stroke-opacity="0.32" stroke-width="0.25" stroke-miterlimit="10"/>
<path d="M101.228 35.8496H38.8025" stroke="black" stroke-opacity="0.32" stroke-width="0.25" stroke-miterlimit="10" stroke-dasharray="4.88 4.88"/>
<path d="M37.5779 35.8496H36.3231" stroke="black" stroke-opacity="0.32" stroke-width="0.25" stroke-miterlimit="10"/>
<path d="M103.361 54.1641H102.107" stroke="black" stroke-opacity="0.32" stroke-width="0.25" stroke-miterlimit="10"/>
<path d="M99.6624 54.1641H37.2316" stroke="black" stroke-opacity="0.32" stroke-width="0.25" stroke-miterlimit="10" stroke-dasharray="4.88 4.88"/>
<path d="M36.0069 54.1641H34.7522" stroke="black" stroke-opacity="0.32" stroke-width="0.25" stroke-miterlimit="10"/>
<path d="M47.5807 77.8762H36.1927L36.3332 76.2109H47.7212L47.5807 77.8762Z" fill="#584960"/>
<path d="M54.1254 81.8723H35.8514L35.9919 80.207H54.271L54.1254 81.8723Z" fill="#705D7A"/>
<path d="M62.6426 77.8762H51.2545L51.3951 76.2109H62.7831L62.6426 77.8762Z" fill="#584960"/>
<path d="M39.982 13.5765H20.7794C20.1119 13.5765 19.615 13.0396 19.6702 12.3785L20.0115 8.37184C20.0667 7.7107 20.654 7.17383 21.3265 7.17383H40.529C41.1965 7.17383 41.6934 7.7107 41.6382 8.37184L41.2969 12.3785C41.2417 13.0396 40.6545 13.5765 39.982 13.5765Z" fill="black" fill-opacity="0.16"/>
<path d="M66.4469 13.5765H47.2444C46.5769 13.5765 46.08 13.0396 46.1352 12.3785L46.4765 8.37184C46.5317 7.7107 47.1189 7.17383 47.7915 7.17383H66.994C67.6615 7.17383 68.1584 7.7107 68.1032 8.37184L67.7619 12.3785C67.7067 13.0396 67.1195 13.5765 66.4469 13.5765Z" fill="#1B4CA1"/>
<path d="M92.9119 13.5765H73.7094C73.0418 13.5765 72.545 13.0396 72.6002 12.3785L72.9415 8.37184C72.9967 7.7107 73.5839 7.17383 74.2564 7.17383H93.459C94.1265 7.17383 94.6234 7.7107 94.5681 8.37184L94.2269 12.3785C94.1716 13.0396 93.5844 13.5765 92.9119 13.5765Z" fill="black" fill-opacity="0.16"/>
<path d="M119.377 13.5765H100.174C99.5068 13.5765 99.0099 13.0396 99.0651 12.3785L99.4064 8.37184C99.4616 7.7107 100.049 7.17383 100.721 7.17383H119.924C120.591 7.17383 121.088 7.7107 121.033 8.37184L120.692 12.3785C120.637 13.0396 120.049 13.5765 119.377 13.5765Z" fill="black" fill-opacity="0.16"/>
<path d="M82.5277 54.2289C77.5589 51.803 77.7296 28.8867 71.5613 28.8867C65.393 28.8867 61.5083 51.803 56.1079 54.2289" stroke="#F3962F" stroke-miterlimit="10"/>
<path d="M43.4099 54.2285H95.2307" stroke="#F3962F" stroke-miterlimit="10"/>
<path d="M71.9176 24.9102L68.0128 68.9681" stroke="#F3962F" stroke-miterlimit="10"/>
<path d="M99.522 79.3926H114.945C116.867 79.3926 118.428 80.9386 118.428 82.8425V84.8358H96.0438V82.8425C96.0438 80.9386 97.6047 79.3926 99.527 79.3926H99.522Z" fill="#FF8268"/>
<path opacity="0.1" d="M104.054 84.8309H101.228L102.819 79.3926H105.645L104.054 84.8309Z" fill="white"/>
<path opacity="0.1" d="M107.231 84.8309H105.821L107.412 79.3926H108.822L107.231 84.8309Z" fill="white"/>
<path d="M118.423 84.8301H96.0387V86.5749H118.423V84.8301Z" fill="url(#paint0_linear_1246_16701)"/>
<path d="M91.8981 83.418H83.948C82.5377 83.418 81.2428 84.1835 80.5703 85.4113C80.2842 85.9383 80.6656 86.5795 81.2729 86.5795H91.8981C92.7814 86.5795 93.4941 85.8736 93.4941 84.9987C93.4941 84.1238 92.7814 83.418 91.8981 83.418Z" fill="white"/>
<path d="M125.4 67.2475H106.383L108.596 45.9766H127.618L125.4 67.2475Z" fill="#F3962F"/>
<path opacity="0.5" d="M120.325 49.0343H115.256L115.894 42.9199H120.963L120.325 49.0343Z" fill="white"/>
<path d="M119.924 52.1067H109.941L110.072 50.8789H120.054L119.924 52.1067Z" fill="#F0AF11"/>
<path d="M124.883 52.1067H121.59L121.716 50.8789H125.008L124.883 52.1067Z" fill="#F0AF11"/>
<path d="M114.769 56.0032H109.535L109.665 54.7754H114.895L114.769 56.0032Z" fill="#F0AF11"/>
<path d="M118.273 56.0032H115.643L115.768 54.7754H118.403L118.273 56.0032Z" fill="#F0AF11"/>
<path d="M124.476 56.0032H119.517L119.648 54.7754H124.602L124.476 56.0032Z" fill="#F0AF11"/>
<path d="M112.35 59.8958H109.133L109.259 58.668H112.476L112.35 59.8958Z" fill="#F0AF11"/>
<path d="M124.07 59.8958H114.363L114.493 58.668H124.2L124.07 59.8958Z" fill="#F0AF11"/>
<path d="M113.956 63.7942H108.727L108.852 62.5664H114.087L113.956 63.7942Z" fill="#F0AF11"/>
<path d="M119.778 63.7942H114.549L114.674 62.5664H119.909L119.778 63.7942Z" fill="#F0AF11"/>
<path d="M123.663 63.7942H120.371L120.501 62.5664H123.794L123.663 63.7942Z" fill="#F0AF11"/>
<defs>
<linearGradient id="paint0_linear_1246_16701" x1="2201.85" y1="192.493" x2="173.436" y2="192.493" gradientUnits="userSpaceOnUse">
<stop stop-color="#D95181"/>
<stop offset="1" stop-color="#A63446"/>
</linearGradient>
</defs>
</svg>
