
<svg width="24" height="24" viewBox="0 0 24 24" fill="none" xmlns="http://www.w3.org/2000/svg">
<path fill-rule="evenodd" clip-rule="evenodd" d="M18 4H6C4.9 4 4 4.9 4 6V18C4 19.1 4.9 20 6 20H18C19.1 20 20 19.1 20 18V6C20 4.9 19.1 4 18 4ZM9.5 11.5C9.5 12.33 8.83 13 8 13H7V14.25C7 14.66 6.66 15 6.25 15C5.84 15 5.5 14.66 5.5 14.25V10C5.5 9.45 5.95 9 6.5 9H8C8.83 9 9.5 9.67 9.5 10.5V11.5ZM14.5 13.5C14.5 14.33 13.83 15 13 15H11C10.72 15 10.5 14.78 10.5 14.5V9.5C10.5 9.22 10.72 9 11 9H13C13.83 9 14.5 9.67 14.5 10.5V13.5ZM18.5 9.75C18.5 10.16 18.16 10.5 17.75 10.5H17V11.5H17.75C18.16 11.5 18.5 11.84 18.5 12.25C18.5 12.66 18.16 13 17.75 13H17V14.25C17 14.66 16.66 15 16.25 15C15.84 15 15.5 14.66 15.5 14.25V10C15.5 9.45 15.95 9 16.5 9H17.75C18.16 9 18.5 9.34 18.5 9.75ZM7 11.5H8V10.5H7V11.5ZM12 13.5H13V10.5H12V13.5Z" fill="#1B4CA1"/>
</svg>
