
<svg width="24" height="24" viewBox="0 0 24 24" fill="none" xmlns="http://www.w3.org/2000/svg">
<path d="M20 5.5H4C3.44772 5.5 3 5.94772 3 6.5V17.5C3 18.0523 3.44772 18.5 4 18.5H20C20.5523 18.5 21 18.0523 21 17.5V6.5C21 5.94772 20.5523 5.5 20 5.5Z" fill="#1B4CA1"/>
<path fill-rule="evenodd" clip-rule="evenodd" d="M10.0488 9.43514V14.4909C10.0488 14.767 10.2726 14.9909 10.5488 14.9909C10.6346 14.9909 10.719 14.9688 10.7938 14.9267L15.234 12.4304C15.4747 12.2951 15.5601 11.9902 15.4248 11.7495C15.3807 11.6712 15.3164 11.6062 15.2386 11.5614L10.7985 9.00196C10.5592 8.86405 10.2535 8.9462 10.1156 9.18544C10.0718 9.26138 10.0488 9.34749 10.0488 9.43514Z" fill="white"/>
</svg>
