
<svg width="20" height="29" viewBox="0 0 20 29" fill="none" xmlns="http://www.w3.org/2000/svg">
<path fill-rule="evenodd" clip-rule="evenodd" d="M7.83203 22.2303C8.42787 22.2303 8.91536 22.7197 8.91536 23.3179L8.90804 23.4442C8.84517 23.9834 8.38531 24.4054 7.83203 24.4054H2.41536C1.81953 24.4054 1.33203 23.916 1.33203 23.3179L1.33935 23.1915C1.40223 22.6523 1.86209 22.2303 2.41536 22.2303H7.83203ZM7.83203 17.8803C8.42787 17.8803 8.91536 18.3697 8.91536 18.9678L8.90804 19.0942C8.84517 19.6333 8.38531 20.0553 7.83203 20.0553H2.41536C1.81953 20.0553 1.33203 19.5659 1.33203 18.9678L1.33935 18.8414C1.40223 18.3022 1.86209 17.8803 2.41536 17.8803H7.83203ZM17.582 13.5302C18.1779 13.5302 18.6654 14.0196 18.6654 14.6177L18.658 14.7441C18.5952 15.2833 18.1353 15.7052 17.582 15.7052H2.41536C1.81953 15.7052 1.33203 15.2159 1.33203 14.6177L1.33935 14.4914C1.40223 13.9522 1.86209 13.5302 2.41536 13.5302H17.582ZM17.582 9.18014C18.1353 9.18014 18.5952 9.60211 18.658 10.1413L18.6654 10.2677C18.6654 10.8658 18.1779 11.3552 17.582 11.3552H2.41536C1.86209 11.3552 1.40223 10.9332 1.33935 10.394L1.33203 10.2677C1.33203 9.66953 1.81953 9.18014 2.41536 9.18014H17.582ZM17.582 4.83008C18.1779 4.83008 18.6654 5.31946 18.6654 5.91759L18.658 6.04396C18.5952 6.58314 18.1353 7.00511 17.582 7.00511H2.41536C1.81953 7.00511 1.33203 6.51573 1.33203 5.91759L1.33935 5.79123C1.40223 5.25205 1.86209 4.83008 2.41536 4.83008H17.582Z" fill="#1B4CA1"/>
<path d="M17.8076 18.4524C17.3966 18.0614 16.7326 18.0614 16.3216 18.4524L13.7184 20.9189L12.9701 20.207C12.5907 19.8461 11.9957 19.8183 11.5832 20.1237L11.4841 20.207C11.073 20.598 11.073 21.2297 11.4841 21.6207L12.9806 23.0444C13.3917 23.4354 14.0556 23.4354 14.4667 23.0444L17.8076 19.8661C18.187 19.5052 18.2162 18.9392 17.8951 18.5467L17.8076 18.4524Z" fill="#F3962F"/>
</svg>
