
<svg width="24" height="25" viewBox="0 0 24 25" fill="none" xmlns="http://www.w3.org/2000/svg">
<path fill-rule="evenodd" clip-rule="evenodd" d="M19.8548 2.68164H8.07301C6.99301 2.68164 6.10938 3.56528 6.10938 4.64528V16.4271C6.10938 17.5071 6.99301 18.3907 8.07301 18.3907H19.8548C20.9348 18.3907 21.8185 17.5071 21.8185 16.4271V4.64528C21.8185 3.56528 20.9348 2.68164 19.8548 2.68164ZM12.0003 14.9544V6.118L17.3708 10.1435C17.6359 10.3398 17.6359 10.7326 17.3708 10.9289L12.0003 14.9544Z" fill="#1B4CA1"/>
<path fill-rule="evenodd" clip-rule="evenodd" d="M19.8548 2.68164H8.07301C6.99301 2.68164 6.10938 3.56528 6.10938 4.64528V16.4271C6.10938 17.5071 6.99301 18.3907 8.07301 18.3907H19.8548C20.9348 18.3907 21.8185 17.5071 21.8185 16.4271V4.64528C21.8185 3.56528 20.9348 2.68164 19.8548 2.68164ZM12.0003 14.9544V6.118L17.3708 10.1435C17.6359 10.3398 17.6359 10.7326 17.3708 10.9289L12.0003 14.9544Z" fill="#1B4CA1"/>
<path d="M2.17969 7.59119C2.17969 7.05119 2.62151 6.60938 3.16151 6.60938C3.70151 6.60938 4.14332 7.05119 4.14332 7.59119V19.373C4.14332 19.913 4.58514 20.3548 5.12514 20.3548H16.907C17.447 20.3548 17.8888 20.7966 17.8888 21.3366C17.8888 21.8766 17.447 22.3185 16.907 22.3185H4.14332C3.06332 22.3185 2.17969 21.4348 2.17969 20.3548V7.59119Z" fill="#F3962F"/>
</svg>
