<svg width="16" height="16" viewBox="0 0 16 16" fill="none" xmlns="http://www.w3.org/2000/svg">
<path fill-rule="evenodd" clip-rule="evenodd" d="M13.333 3.99992V11.9999C13.333 12.3666 13.633 12.6666 13.9997 12.6666C14.3663 12.6666 14.6663 12.3666 14.6663 11.9999V3.99992C14.6663 3.63325 14.3663 3.33325 13.9997 3.33325C13.633 3.33325 13.333 3.63325 13.333 3.99992ZM11.333 12.6666C11.6997 12.6666 11.9997 12.3666 11.9997 11.9999V3.99992C11.9997 3.63325 11.6997 3.33325 11.333 3.33325C10.9663 3.33325 10.6663 3.63325 10.6663 3.99992V11.9999C10.6663 12.3666 10.9663 12.6666 11.333 12.6666ZM8.76158 3.33325H1.90444C1.59015 3.33325 1.33301 3.63325 1.33301 3.99992V11.9999C1.33301 12.3666 1.59015 12.6666 1.90444 12.6666H8.76158C9.07587 12.6666 9.33301 12.3666 9.33301 11.9999V3.99992C9.33301 3.63325 9.07587 3.33325 8.76158 3.33325Z" fill="currentColor"/>
</svg>
