
<svg width="24" height="25" viewBox="0 0 24 25" fill="none" xmlns="http://www.w3.org/2000/svg">
<g clip-path="url(#clip0_7206_207)">
<path d="M20 2.5H8C6.9 2.5 6 3.4 6 4.5V16.5C6 17.6 6.9 18.5 8 18.5H20C21.1 18.5 22 17.6 22 16.5V4.5C22 3.4 21.1 2.5 20 2.5ZM18 11.5H10C9.45 11.5 9 11.05 9 10.5C9 9.95 9.45 9.5 10 9.5H18C18.55 9.5 19 9.95 19 10.5C19 11.05 18.55 11.5 18 11.5ZM14 15.5H10C9.45 15.5 9 15.05 9 14.5C9 13.95 9.45 13.5 10 13.5H14C14.55 13.5 15 13.95 15 14.5C15 15.05 14.55 15.5 14 15.5ZM18 7.5H10C9.45 7.5 9 7.05 9 6.5C9 5.95 9.45 5.5 10 5.5H18C18.55 5.5 19 5.95 19 6.5C19 7.05 18.55 7.5 18 7.5Z" fill="#1B4CA1"/>
<path d="M2 7.5C2 6.95 2.45 6.5 3 6.5C3.55 6.5 4 6.95 4 7.5V19.5C4 20.05 4.45 20.5 5 20.5H17C17.55 20.5 18 20.95 18 21.5C18 22.05 17.55 22.5 17 22.5H4C2.9 22.5 2 21.6 2 20.5V7.5Z" fill="#F3962F"/>
</g>
<defs>
<clipPath id="clip0_7206_207">
<rect width="20" height="20" fill="white" transform="translate(2 2.5)"/>
</clipPath>
</defs>
</svg>
