<svg width="16" height="16" viewBox="0 0 16 16" fill="none" xmlns="http://www.w3.org/2000/svg">
<path fill-rule="evenodd" clip-rule="evenodd" d="M2.66669 8.78667V10.66C2.66669 11.1467 2.93335 11.6 3.36002 11.8333L6.69335 13.6533C7.09335 13.8733 7.57335 13.8733 7.97335 13.6533L11.3067 11.8333C11.7334 11.6 12 11.1467 12 10.66V8.78667L7.97335 10.9867C7.57335 11.2067 7.09335 11.2067 6.69335 10.9867L2.66669 8.78667Z" fill="white"/>
<path fill-rule="evenodd" clip-rule="evenodd" d="M6.69333 2.34666L1.07333 5.41333C0.613333 5.66666 0.613333 6.33333 1.07333 6.58666L6.69333 9.65333C7.09333 9.87333 7.57333 9.87333 7.97333 9.65333L13.3333 6.72666V10.6667C13.3333 11.0333 13.6333 11.3333 14 11.3333C14.3667 11.3333 14.6667 11.0333 14.6667 10.6667V6.39333C14.6667 6.14666 14.5333 5.92666 14.32 5.80666L7.97333 2.34666C7.57333 2.13333 7.09333 2.13333 6.69333 2.34666Z" fill="white"/>
</svg>
