<svg width="40" height="40" viewBox="0 0 40 40" fill="none" xmlns="http://www.w3.org/2000/svg">
<path d="M8.33301 3.33334V36.6667H28.1663L36.6663 28.3333V3.33334H8.33301Z" fill="#EFEEEE"/>
<path d="M26.667 10V11.6667H21.667V10H26.667Z" fill="#B8B8B8"/>
<path d="M33.333 10V11.6667H28.333V10H33.333Z" fill="#B8B8B8"/>
<path d="M26.667 13.3333V15H21.667V13.3333H26.667Z" fill="#B8B8B8"/>
<path d="M33.333 13.3333V15H28.333V13.3333H33.333Z" fill="#B8B8B8"/>
<path d="M26.667 16.6667V18.3333H21.667V16.6667H26.667Z" fill="#B8B8B8"/>
<path d="M26.667 20V21.6667H21.667V20H26.667Z" fill="#B8B8B8"/>
<path d="M33.333 16.6667V18.3333H28.333V16.6667H33.333Z" fill="#B8B8B8"/>
<path d="M33.333 20V21.6667H28.333V20H33.333Z" fill="#B8B8B8"/>
<path d="M28.333 28.3333V36.6667L36.6663 28.3333H28.333Z" fill="#ABABAB"/>
<path d="M20 36.6667H28.3333V28.3333L20 36.6667Z" fill="#DEDEDD"/>
<path d="M16.2502 11.6667H4.5835C2.51243 11.6667 0.833496 13.3456 0.833496 15.4167V19.5833C0.833496 21.6544 2.51243 23.3333 4.5835 23.3333H16.2502C18.3212 23.3333 20.0002 21.6544 20.0002 19.5833V15.4167C20.0002 13.3456 18.3212 11.6667 16.2502 11.6667Z" fill="#61B565"/>
<path d="M8.9695 17.1094H8.34735C8.33598 17.0289 8.31278 16.9574 8.27774 16.8949C8.24271 16.8314 8.19772 16.7774 8.1428 16.7329C8.08788 16.6884 8.02443 16.6543 7.95246 16.6307C7.88144 16.607 7.80426 16.5952 7.72093 16.5952C7.57036 16.5952 7.4392 16.6326 7.32746 16.7074C7.21572 16.7812 7.12907 16.8892 7.06752 17.0312C7.00596 17.1723 6.97519 17.3437 6.97519 17.5454C6.97519 17.7528 7.00596 17.9271 7.06752 18.0682C7.13002 18.2093 7.21714 18.3158 7.32888 18.3878C7.44062 18.4597 7.56988 18.4957 7.71666 18.4957C7.79905 18.4957 7.87528 18.4848 7.94536 18.4631C8.01638 18.4413 8.07935 18.4095 8.13428 18.3679C8.1892 18.3253 8.23466 18.2737 8.27064 18.2131C8.30757 18.1524 8.33314 18.0833 8.34735 18.0057L8.9695 18.0085C8.95341 18.142 8.91316 18.2708 8.84877 18.3949C8.78532 18.518 8.69962 18.6283 8.59166 18.7258C8.48466 18.8224 8.35682 18.8991 8.20814 18.956C8.06041 19.0118 7.89327 19.0398 7.70672 19.0398C7.44725 19.0398 7.21524 18.981 7.0107 18.8636C6.8071 18.7462 6.64611 18.5762 6.52774 18.3537C6.41032 18.1311 6.35161 17.8617 6.35161 17.5454C6.35161 17.2282 6.41127 16.9583 6.53058 16.7358C6.6499 16.5132 6.81183 16.3437 7.01638 16.2273C7.22093 16.1098 7.45104 16.0511 7.70672 16.0511C7.87528 16.0511 8.03153 16.0748 8.17547 16.1221C8.32036 16.1695 8.44867 16.2386 8.56041 16.3295C8.67216 16.4195 8.76307 16.5298 8.83314 16.6605C8.90416 16.7912 8.94962 16.9408 8.9695 17.1094ZM10.9887 16.9275C10.9773 16.813 10.9285 16.7239 10.8424 16.6605C10.7562 16.597 10.6392 16.5653 10.4915 16.5653C10.3911 16.5653 10.3064 16.5795 10.2373 16.6079C10.1681 16.6354 10.1151 16.6738 10.0782 16.723C10.0422 16.7722 10.0242 16.8281 10.0242 16.8906C10.0223 16.9427 10.0332 16.9881 10.0569 17.027C10.0815 17.0658 10.1151 17.0994 10.1577 17.1278C10.2003 17.1553 10.2496 17.1794 10.3054 17.2003C10.3613 17.2202 10.421 17.2372 10.4844 17.2514L10.7458 17.3139C10.8727 17.3423 10.9892 17.3802 11.0952 17.4275C11.2013 17.4749 11.2931 17.5331 11.3708 17.6023C11.4484 17.6714 11.5086 17.7528 11.5512 17.8466C11.5947 17.9403 11.617 18.0478 11.6179 18.169C11.617 18.347 11.5715 18.5014 11.4816 18.6321C11.3926 18.7618 11.2638 18.8627 11.0952 18.9346C10.9276 19.0057 10.7254 19.0412 10.4887 19.0412C10.2538 19.0412 10.0493 19.0052 9.87504 18.9332C9.70175 18.8613 9.56633 18.7547 9.46879 18.6136C9.3722 18.4716 9.32154 18.2959 9.31681 18.0866H9.91198C9.91861 18.1842 9.94654 18.2656 9.99578 18.331C10.046 18.3953 10.1127 18.4441 10.1961 18.4773C10.2803 18.5095 10.3755 18.5256 10.4816 18.5256C10.5857 18.5256 10.6762 18.5104 10.7529 18.4801C10.8305 18.4498 10.8907 18.4077 10.9333 18.3537C10.9759 18.2997 10.9972 18.2377 10.9972 18.1676C10.9972 18.1023 10.9778 18.0473 10.939 18.0028C10.9011 17.9583 10.8452 17.9204 10.7714 17.8892C10.6984 17.8579 10.6089 17.8295 10.5029 17.804L10.1861 17.7244C9.94086 17.6648 9.7472 17.5715 9.60516 17.4446C9.46311 17.3177 9.39256 17.1468 9.39351 16.9318C9.39256 16.7557 9.43944 16.6018 9.53414 16.4702C9.62978 16.3385 9.76093 16.2358 9.9276 16.1619C10.0943 16.0881 10.2837 16.0511 10.4958 16.0511C10.7117 16.0511 10.9001 16.0881 11.0611 16.1619C11.2231 16.2358 11.349 16.3385 11.439 16.4702C11.5289 16.6018 11.5753 16.7542 11.5782 16.9275H10.9887ZM12.5572 16.0909L13.2603 18.3011H13.2873L13.9919 16.0909H14.6737L13.6709 19H12.8782L11.874 16.0909H12.5572Z" fill="white"/>
</svg>
