<svg width="24" height="26" viewBox="0 0 24 26" fill="none" xmlns="http://www.w3.org/2000/svg">
<path d="M13.3745 23.2931C14.0601 23.2023 14.6018 23.8726 14.3694 24.5242C14.248 24.8546 13.9659 25.0864 13.6159 25.1328C12.8105 25.2364 11.997 25.2611 11.1868 25.2064C8.19777 25.0052 5.50853 23.71 3.51633 21.7178C1.3439 19.5454 0 16.544 0 13.2294C0 9.91432 1.3439 6.91336 3.51633 4.74093C5.68876 2.5685 8.68972 1.2246 12.0048 1.2246C13.1541 1.2246 14.2743 1.39001 15.3418 1.69838C16.2177 1.95109 17.0616 2.30352 17.8571 2.74874L17.6204 2.12914C17.4229 1.60994 17.6835 1.02906 18.2022 0.83113C18.7214 0.63368 19.3023 0.894238 19.5002 1.41344L20.5004 4.03049C20.5381 4.13006 20.5601 4.23491 20.5654 4.34125C20.6438 4.8289 20.3517 5.31225 19.866 5.4595L17.1873 6.27894C16.6571 6.43958 16.0972 6.14029 15.9366 5.61057C15.7759 5.08085 16.0752 4.52053 16.6049 4.3599L16.8253 4.29248C16.1905 3.94884 15.5205 3.67443 14.8269 3.474C13.9391 3.21774 12.9925 3.08005 12.0048 3.08005C9.20223 3.08005 6.66454 4.21599 4.82821 6.0528C2.99139 7.88914 1.85546 10.4263 1.85546 13.2294C1.85546 16.0319 2.99139 18.5691 4.82821 20.406C6.49243 22.0702 8.73227 23.1593 11.2236 23.3486C11.9359 23.4026 12.6688 23.3849 13.3745 23.2931ZM10.167 8.34667C10.167 7.83464 10.5825 7.41918 11.095 7.41918C11.607 7.41918 12.0225 7.83464 12.0225 8.34667V13.9938L15.8878 15.693C16.3563 15.899 16.5686 16.446 16.3625 16.9145C16.1565 17.3825 15.6096 17.5953 15.141 17.3892L10.7684 15.4673C10.4171 15.3349 10.167 14.9959 10.167 14.5986V8.34667ZM16.6069 22.3016C15.8601 22.6836 15.9595 23.7789 16.7641 24.0193C16.997 24.0853 17.2288 24.0652 17.4459 23.9567C18.0445 23.656 18.6191 23.3017 19.1579 22.904C19.4209 22.7079 19.5576 22.3991 19.5294 22.0726C19.4577 21.3511 18.6363 20.9854 18.0526 21.4138C17.5968 21.7503 17.1132 22.0473 16.6069 22.3016ZM20.3914 18.9765C19.9688 19.6066 20.4435 20.4538 21.2027 20.4203C21.4996 20.4045 21.7654 20.2592 21.9318 20.0106C22.3076 19.4531 22.6322 18.8694 22.9104 18.2574C23.1786 17.6531 22.7608 16.9761 22.0996 16.9479C21.7205 16.9355 21.3772 17.1473 21.2194 17.493C20.9837 18.0117 20.7098 18.5041 20.3914 18.9765ZM22.0963 14.2185C22.0628 14.5828 22.2397 14.9242 22.5547 15.1092C23.1457 15.4448 23.8743 15.0691 23.9436 14.3935C24.0072 13.7232 24.0172 13.0597 23.9713 12.3879C23.9484 12.0652 23.7619 11.7808 23.4751 11.6302C22.8316 11.2965 22.069 11.7956 22.1202 12.518C22.1594 13.0879 22.1503 13.6496 22.0963 14.2185ZM21.3275 9.22826C21.5355 9.70778 22.0934 9.9234 22.5681 9.70444C23.0257 9.49408 23.2308 8.95814 23.0324 8.49535C22.7694 7.8791 22.4529 7.28675 22.091 6.7226C21.6363 6.02364 20.5664 6.22731 20.401 7.04531C20.3555 7.28579 20.3986 7.52053 20.531 7.72754C20.8379 8.20659 21.1047 8.70476 21.3275 9.22826Z" fill="white"/>
</svg>
