
<svg width="14" height="14" viewBox="0 0 14 14" fill="none" xmlns="http://www.w3.org/2000/svg">
<g clip-path="url(#clip0_1481_6038)">
<rect width="14" height="14" fill="white" fill-opacity="0.01"/>
<g clip-path="url(#clip1_1481_6038)">
<path d="M7 13.1241C5.37555 13.1241 3.81763 12.4788 2.66897 11.3302C1.52031 10.1815 0.875 8.6236 0.875 6.99915C0.875 5.37469 1.52031 3.81678 2.66897 2.66812C3.81763 1.51946 5.37555 0.874146 7 0.874146C8.62445 0.874146 10.1824 1.51946 11.331 2.66812C12.4797 3.81678 13.125 5.37469 13.125 6.99915C13.125 8.6236 12.4797 10.1815 11.331 11.3302C10.1824 12.4788 8.62445 13.1241 7 13.1241ZM7 13.9991C8.85651 13.9991 10.637 13.2616 11.9497 11.9489C13.2625 10.6361 14 8.85566 14 6.99915C14 5.14263 13.2625 3.36215 11.9497 2.0494C10.637 0.736643 8.85651 -0.000854492 7 -0.000854492C5.14348 -0.000854492 3.36301 0.736643 2.05025 2.0494C0.737498 3.36215 0 5.14263 0 6.99915C0 8.85566 0.737498 10.6361 2.05025 11.9489C3.36301 13.2616 5.14348 13.9991 7 13.9991Z" fill="#6C757D"/>
<path d="M7.81375 5.76365L5.81 6.01477L5.73825 6.34727L6.132 6.4199C6.38925 6.48115 6.44 6.5739 6.384 6.83027L5.73825 9.86477C5.5685 10.6496 5.83013 11.0189 6.44525 11.0189C6.92213 11.0189 7.476 10.7984 7.72713 10.4956L7.80412 10.1316C7.62912 10.2856 7.37362 10.3469 7.20387 10.3469C6.96325 10.3469 6.87575 10.178 6.93787 9.88052L7.81375 5.76365ZM7.875 3.93665C7.875 4.16871 7.78281 4.39127 7.61872 4.55536C7.45462 4.71946 7.23206 4.81165 7 4.81165C6.76794 4.81165 6.54538 4.71946 6.38128 4.55536C6.21719 4.39127 6.125 4.16871 6.125 3.93665C6.125 3.70458 6.21719 3.48202 6.38128 3.31793C6.54538 3.15383 6.76794 3.06165 7 3.06165C7.23206 3.06165 7.45462 3.15383 7.61872 3.31793C7.78281 3.48202 7.875 3.70458 7.875 3.93665Z" fill="#6C757D"/>
</g>
</g>
<defs>
<clipPath id="clip0_1481_6038">
<rect width="14" height="14" fill="white"/>
</clipPath>
<clipPath id="clip1_1481_6038">
<rect width="14" height="14" fill="white"/>
</clipPath>
</defs>
</svg>
