<svg width="206" height="98" viewBox="0 0 206 98" fill="none" xmlns="http://www.w3.org/2000/svg">
<path fill-rule="evenodd" clip-rule="evenodd" d="M43.8704 82H130.657C131.149 82 131.627 81.9472 132.088 81.8482C132.549 81.9472 133.027 82 133.519 82H183.111C186.798 82 189.787 79.0451 189.787 75.4C189.787 71.7549 186.798 68.8 183.111 68.8H177.389C173.702 68.8 170.713 65.8451 170.713 62.2C170.713 58.5549 173.702 55.6 177.389 55.6H195.509C199.196 55.6 202.185 52.6451 202.185 49C202.185 45.3549 199.196 42.4 195.509 42.4H174.528C178.215 42.4 181.204 39.4451 181.204 35.8C181.204 32.1549 178.215 29.2 174.528 29.2H113.491C117.178 29.2 120.167 26.2451 120.167 22.6C120.167 18.9549 117.178 16 113.491 16H59.1296C55.4426 16 52.4537 18.9549 52.4537 22.6C52.4537 26.2451 55.4426 29.2 59.1296 29.2H20.9815C17.2945 29.2 14.3056 32.1549 14.3056 35.8C14.3056 39.4451 17.2945 42.4 20.9815 42.4H44.8241C48.5111 42.4 51.5 45.3549 51.5 49C51.5 52.6451 48.5111 55.6 44.8241 55.6H6.67593C2.98891 55.6 0 58.5549 0 62.2C0 65.8451 2.98891 68.8 6.67593 68.8H43.8704C40.1834 68.8 37.1944 71.7549 37.1944 75.4C37.1944 79.0451 40.1834 82 43.8704 82ZM199.324 82C203.011 82 206 79.0451 206 75.4C206 71.7549 203.011 68.8 199.324 68.8C195.637 68.8 192.648 71.7549 192.648 75.4C192.648 79.0451 195.637 82 199.324 82Z" fill="#DDE8FB"/>
<g clip-path="url(#clip0_694_53290)">
<path d="M115.459 0H61V98H145V28.1894L115.459 0Z" fill="#1B4CA1"/>
<path d="M115.459 0L145 28.1894H115.459V0Z" fill="#7FAEFF"/>
<path d="M94.0416 37.6616C94.0416 40.604 92.3275 42.9834 90.2122 42.9834C88.0969 42.9834 86.3828 40.5949 86.3828 37.6616C86.3828 34.7282 88.0969 32.3397 90.2122 32.3397C92.3275 32.3397 94.0416 34.7282 94.0416 37.6616Z" fill="white"/>
<path d="M115.687 42.9834C117.802 42.9834 119.516 40.6007 119.516 37.6616C119.516 34.7224 117.802 32.3397 115.687 32.3397C113.572 32.3397 111.857 34.7224 111.857 37.6616C111.857 40.6007 113.572 42.9834 115.687 42.9834Z" fill="white"/>
<path d="M92.2911 53.6544C93.8866 51.9107 96.1022 50.5484 98.3087 49.7583C103.898 47.7513 109.295 49.8492 113.544 53.6544C114.684 54.6715 116.371 53.0005 115.231 51.9743C110.517 47.7513 104.399 45.272 98.1263 47.3154C95.3728 48.2145 92.5828 49.831 90.6134 51.9743C89.5832 53.1004 91.2608 54.7805 92.3002 53.6544H92.2911Z" fill="white"/>
</g>
<defs>
<clipPath id="clip0_694_53290">
<rect width="84" height="98" fill="white" transform="translate(61)"/>
</clipPath>
</defs>
</svg>
