<svg width="18" height="18" viewBox="0 0 18 18" fill="none" xmlns="http://www.w3.org/2000/svg">
<rect x="1.67001" y="0.669922" width="14" height="15" fill="#F3962F"/>
<path fill-rule="evenodd" clip-rule="evenodd" d="M15.1725 0H2.1675C0.975375 0 0 0.975375 0 2.1675V15.1725C0 16.3646 0.975375 17.34 2.1675 17.34H15.1725C16.3646 17.34 17.34 16.3646 17.34 15.1725V2.1675C17.34 0.975375 16.3646 0 15.1725 0ZM13.005 5.41875H9.75375V11.3794C9.75375 12.8966 8.56163 14.0887 7.04437 14.0887C5.52712 14.0887 4.335 12.8966 4.335 11.3794C4.335 9.86213 5.52712 8.67 7.04437 8.67C7.69462 8.67 8.2365 8.88675 8.67 9.21187V3.25125H13.005V5.41875Z" fill="#1B4CA1"/>
</svg>
