
<svg width="82" height="80" viewBox="0 0 82 80" fill="none" xmlns="http://www.w3.org/2000/svg">
<path d="M21.3457 7.00244V73.0024H60.6534L77.4995 56.5024V7.00244H21.3457Z" fill="#EFEEEE"/>
<path d="M57.6829 20.2024V23.5024H47.7734V20.2024H57.6829Z" fill="#B8B8B8"/>
<path d="M70.8939 20.2024V23.5024H60.9844V20.2024H70.8939Z" fill="#B8B8B8"/>
<path d="M57.6829 26.8025V30.1025H47.7734V26.8025H57.6829Z" fill="#B8B8B8"/>
<path d="M70.8939 26.8025V30.1025H60.9844V26.8025H70.8939Z" fill="#B8B8B8"/>
<path d="M57.6829 33.4023V36.7023H47.7734V33.4023H57.6829Z" fill="#B8B8B8"/>
<path d="M57.6829 40.0024V43.3024H47.7734V40.0024H57.6829Z" fill="#B8B8B8"/>
<path d="M70.8939 33.4023V36.7023H60.9844V33.4023H70.8939Z" fill="#B8B8B8"/>
<path d="M70.8939 40.0024V43.3024H60.9844V40.0024H70.8939Z" fill="#B8B8B8"/>
<path d="M60.9844 56.5024V73.0024L77.5002 56.5024H60.9844Z" fill="#ABABAB"/>
<path d="M44.4688 73.0024H60.9846V56.5024L44.4688 73.0024Z" fill="#DEDEDD"/>
<rect x="4.5" y="44.95" width="39.638" height="21.78" rx="4" fill="#61B565"/>
<path d="M30.9791 51.0278L33.4177 58.6863H33.5113L35.9549 51.0278H38.3197L34.8415 61.1078H32.0925L28.6094 51.0278H30.9791Z" fill="white"/>
<path d="M25.5388 53.9268C25.4994 53.5298 25.3303 53.2213 25.0314 53.0015C24.7325 52.7817 24.3269 52.6717 23.8145 52.6717C23.4664 52.6717 23.1724 52.721 22.9327 52.8194C22.6929 52.9145 22.509 53.0474 22.3809 53.2181C22.2561 53.3887 22.1937 53.5823 22.1937 53.7988C22.1871 53.9793 22.2249 54.1368 22.307 54.2713C22.3924 54.4059 22.509 54.5224 22.6568 54.6208C22.8046 54.716 22.9754 54.7996 23.1691 54.8718C23.3629 54.9407 23.5698 54.9998 23.7899 55.049L24.6964 55.2656C25.1365 55.364 25.5405 55.4952 25.9083 55.6593C26.2762 55.8234 26.5948 56.0252 26.8641 56.2647C27.1334 56.5042 27.342 56.7864 27.4898 57.1113C27.6409 57.4361 27.718 57.8085 27.7213 58.2285C27.718 58.8454 27.5604 59.3802 27.2484 59.8331C26.9396 60.2826 26.493 60.632 25.9083 60.8814C25.327 61.1275 24.6258 61.2506 23.8047 61.2506C22.9901 61.2506 22.2807 61.1259 21.6764 60.8765C21.0753 60.6271 20.6057 60.258 20.2674 59.7691C19.9324 59.2769 19.7567 58.6682 19.7402 57.9431H21.8045C21.8275 58.281 21.9244 58.5632 22.0951 58.7896C22.2692 59.0127 22.5008 59.1817 22.7898 59.2966C23.0821 59.4081 23.4122 59.4639 23.78 59.4639C24.1413 59.4639 24.455 59.4114 24.721 59.3064C24.9903 59.2014 25.1989 59.0554 25.3467 58.8684C25.4945 58.6813 25.5684 58.4664 25.5684 58.2236C25.5684 57.9972 25.5011 57.8069 25.3664 57.6527C25.235 57.4985 25.0413 57.3672 24.7851 57.2589C24.5322 57.1506 24.2218 57.0522 23.8539 56.9636L22.7553 56.688C21.9047 56.4813 21.233 56.1581 20.7403 55.7184C20.2477 55.2787 20.003 54.6864 20.0063 53.9416C20.003 53.3313 20.1656 52.7981 20.494 52.342C20.8257 51.8859 21.2806 51.5299 21.8587 51.2739C22.4367 51.018 23.0936 50.89 23.8293 50.89C24.5782 50.89 25.2318 51.018 25.7901 51.2739C26.3517 51.5299 26.7886 51.8859 27.1006 52.342C27.4126 52.7981 27.5735 53.3263 27.5834 53.9268H25.5388Z" fill="white"/>
<path d="M18.5348 54.5568H16.377C16.3375 54.2779 16.2571 54.0302 16.1355 53.8136C16.014 53.5938 15.858 53.4067 15.6675 53.2525C15.477 53.0983 15.257 52.9802 15.0074 52.8981C14.761 52.8161 14.4933 52.7751 14.2043 52.7751C13.6821 52.7751 13.2272 52.9047 12.8397 53.1639C12.4521 53.4199 12.1516 53.7939 11.9381 54.2861C11.7246 54.775 11.6179 55.3689 11.6179 56.0678C11.6179 56.7864 11.7246 57.3902 11.9381 57.8791C12.1549 58.368 12.457 58.7371 12.8446 58.9865C13.2321 59.2359 13.6805 59.3606 14.1895 59.3606C14.4753 59.3606 14.7397 59.3228 14.9827 59.2474C15.2291 59.1719 15.4475 59.062 15.638 58.9176C15.8285 58.7699 15.9861 58.5911 16.1109 58.3811C16.239 58.1711 16.3277 57.9316 16.377 57.6625L18.5348 57.6724C18.479 58.135 18.3394 58.5813 18.116 59.0111C17.896 59.4377 17.5987 59.8199 17.2243 60.1579C16.8532 60.4926 16.4098 60.7584 15.8941 60.9552C15.3818 61.1488 14.8021 61.2456 14.1551 61.2456C13.2551 61.2456 12.4505 61.0422 11.741 60.6353C11.0349 60.2285 10.4765 59.6395 10.066 58.8684C9.65871 58.0973 9.45508 57.1638 9.45508 56.0678C9.45508 54.9686 9.662 54.0335 10.0758 53.2624C10.4897 52.4913 11.0513 51.9039 11.7607 51.5003C12.4702 51.0935 13.2683 50.89 14.1551 50.89C14.7397 50.89 15.2816 50.972 15.7808 51.1361C16.2833 51.3002 16.7284 51.5397 17.1159 51.8547C17.5035 52.1664 17.8188 52.5487 18.0618 53.0015C18.3082 53.4543 18.4658 53.9727 18.5348 54.5568Z" fill="white"/>
</svg>
