<svg width="132" height="125" viewBox="0 0 132 125" fill="none" xmlns="http://www.w3.org/2000/svg">
<g clip-path="url(#clip0_1387_11829)">
<path d="M0.655564 61.76L0.00195312 61.8359L1.16346 71.7066L1.81707 71.6306L0.655564 61.76Z" fill="#1B4CA1"/>
<path d="M2.24345 75.3029L1.58984 75.3789L2.17584 80.3588L2.82945 80.2829L2.24345 75.3029Z" fill="#1B4CA1"/>
<path d="M45.6445 41.6296L44.8703 39.4753C43.7736 36.417 40.6962 34.5191 37.451 34.8974L6.61873 38.4815C2.77357 38.9303 0.0187338 42.3925 0.470347 46.2138L9.24454 120.78C9.55422 123.403 11.9413 125.275 14.58 124.974L124.896 112.15C127.535 111.843 129.419 109.47 129.116 106.848L121.528 42.3861C121.219 39.7638 118.832 37.8916 116.193 38.193L52.1349 45.6368C49.2962 45.9638 46.6058 44.3032 45.6445 41.6296Z" fill="#1B4CA1"/>
<path d="M48.7316 9.20643L13.875 16.1094L23.4449 63.8348L58.3015 56.9319L48.7316 9.20643Z" fill="#1B4CA1"/>
<g filter="url(#filter0_d_1387_11829)">
<path d="M48.7316 9.20643L13.875 16.1094L23.4449 63.8348L58.3015 56.9319L48.7316 9.20643Z" fill="white"/>
</g>
<g opacity="0.4">
<path d="M44.0708 20.6913L22.5998 24.9422C21.5611 25.1474 20.5482 24.4742 20.3417 23.4419C20.1353 22.4096 20.8127 21.403 21.8514 21.1978L43.3224 16.947C44.3611 16.7418 45.374 17.415 45.5804 18.4473C45.7869 19.4795 45.1095 20.4862 44.0708 20.6913Z" fill="#F3962F"/>
<path d="M45.6587 28.5839L24.1877 32.8348C23.149 33.0399 22.1361 32.3667 21.9296 31.3345C21.7232 30.3022 22.4006 29.2956 23.4393 29.0904L44.9103 24.8395C45.949 24.6344 46.9619 25.3076 47.1683 26.3399C47.3748 27.3721 46.6974 28.3787 45.6587 28.5839Z" fill="#F3962F"/>
<path d="M47.2387 36.4706L25.7678 40.7215C24.7291 40.9267 23.7162 40.2535 23.5097 39.2212C23.3033 38.1889 23.9807 37.1823 25.0194 36.9771L46.4903 32.7263C47.5291 32.5211 48.542 33.1943 48.7484 34.2266C48.9549 35.2588 48.2774 36.2655 47.2387 36.4706Z" fill="#F3962F"/>
<path d="M48.8188 44.3632L27.3478 48.6141C26.3091 48.8192 25.2962 48.146 25.0898 47.1138C24.8833 46.0815 25.5607 45.0749 26.5995 44.8697L48.0704 40.6188C49.1091 40.4137 50.122 41.0869 50.3285 42.1192C50.5349 43.1514 49.8575 44.158 48.8188 44.3632Z" fill="#1B4CA1"/>
<path d="M44.5357 53.4159L28.9357 56.5063C27.897 56.7115 26.8841 56.0383 26.6777 55.006C26.4712 53.9737 27.1486 52.9671 28.1873 52.762L43.7873 49.6716C44.8261 49.4664 45.839 50.1396 46.0454 51.1719C46.2519 52.2041 45.5744 53.2108 44.5357 53.4159Z" fill="#1B4CA1"/>
</g>
<path d="M98.3936 0.00346593L63.1797 4.79102L69.8169 53.0057L105.031 48.2182L98.3936 0.00346593Z" fill="#1B4CA1"/>
<g filter="url(#filter1_d_1387_11829)">
<path d="M98.3936 0.00346593L63.1797 4.79102L69.8169 53.0057L105.031 48.2182L98.3936 0.00346593Z" fill="white"/>
</g>
<g opacity="0.4">
<path d="M93.0455 11.1817L71.3552 14.131C70.3036 14.272 69.3358 13.5411 69.1875 12.496C69.0455 11.4509 69.781 10.4892 70.8326 10.3417L92.5229 7.39242C93.5746 7.25137 94.5423 7.98229 94.6907 9.02737C94.8326 10.0725 94.0971 11.0342 93.0455 11.1817Z" fill="#F3962F"/>
<path d="M94.1432 19.1582L72.4528 22.1075C71.4012 22.2486 70.4335 21.5177 70.2851 20.4726C70.1432 19.4275 70.8787 18.4658 71.9303 18.3183L93.6206 15.369C94.6722 15.2279 95.6399 15.9588 95.7883 17.0039C95.9303 18.049 95.1948 19.0108 94.1432 19.1582Z" fill="#F3962F"/>
<path d="M79.5286 29.2617L73.5544 30.076C72.5028 30.2171 71.5351 29.4861 71.3867 28.4411C71.2447 27.396 71.9802 26.4342 73.0318 26.2868L79.006 25.4725C80.0576 25.3314 81.0254 26.0624 81.1738 27.1074C81.3157 28.1525 80.5802 29.1143 79.5286 29.2617Z" fill="#F3962F"/>
<path d="M91.1165 27.6914L85.1423 28.5057C84.0907 28.6467 83.1229 27.9158 82.9746 26.8707C82.8326 25.8257 83.5681 24.8639 84.6197 24.7165L90.5939 23.9022C91.6455 23.7611 92.6133 24.4921 92.7617 25.5371C92.9036 26.5822 92.1681 27.544 91.1165 27.6914Z" fill="#1B4CA1"/>
<path d="M96.3424 35.0977L74.6521 38.047C73.6005 38.1881 72.6327 37.4571 72.4843 36.412C72.3424 35.367 73.0779 34.4052 74.1295 34.2578L95.8198 31.3084C96.8714 31.1674 97.8392 31.8983 97.9876 32.9434C98.1295 33.9885 97.394 34.9502 96.3424 35.0977Z" fill="#F3962F"/>
<path d="M91.5091 43.8809L75.7478 46.0223C74.6962 46.1634 73.7284 45.4325 73.58 44.3874C73.4381 43.3423 74.1736 42.3806 75.2252 42.2331L90.9865 40.0916C92.0381 39.9506 93.0058 40.6815 93.1542 41.7266C93.2962 42.7717 92.5607 43.7334 91.5091 43.8809Z" fill="#F3962F"/>
</g>
<path d="M65.1714 7.04515L29.7637 10.1113L34.0145 58.5914L69.4222 55.5253L65.1714 7.04515Z" fill="#1B4CA1"/>
<g filter="url(#filter2_d_1387_11829)">
<path d="M65.1714 7.04515L29.7637 10.1113L34.0145 58.5914L69.4222 55.5253L65.1714 7.04515Z" fill="white"/>
</g>
<g opacity="0.4">
<path d="M59.2711 17.9542L37.4582 19.8456C36.4001 19.9354 35.4711 19.1596 35.3743 18.1081C35.284 17.0566 36.0646 16.1333 37.1227 16.0372L58.9356 14.1457C59.9937 14.056 60.9227 14.8318 61.0195 15.8833C61.1098 16.9348 60.3291 17.858 59.2711 17.9542Z" fill="#F3962F"/>
<path d="M59.9742 25.9679L38.1613 27.8593C37.1032 27.9491 36.1742 27.1733 36.0774 26.1218C35.9871 25.0703 36.7677 24.147 37.8258 24.0508L59.6387 22.1594C60.6968 22.0696 61.6258 22.8454 61.7226 23.8969C61.8129 24.9484 61.0323 25.8717 59.9742 25.9679Z" fill="#F3962F"/>
<path d="M60.6773 33.9894L38.8644 35.8808C37.8064 35.9705 36.8773 35.1947 36.7805 34.1432C36.6902 33.0917 37.4709 32.1685 38.5289 32.0723L60.3418 30.1809C61.3999 30.0911 62.3289 30.8669 62.4257 31.9184C62.516 32.9699 61.7354 33.8932 60.6773 33.9894Z" fill="#F3962F"/>
<path d="M61.3804 42.005L39.5675 43.8964C38.5095 43.9862 37.5804 43.2104 37.4837 42.1589C37.3934 41.1074 38.174 40.1841 39.2321 40.0879L61.045 38.1965C62.103 38.1068 63.0321 38.8826 63.1288 39.9341C63.2192 40.9856 62.4385 41.9088 61.3804 42.005Z" fill="#F3962F"/>
<path d="M56.1223 50.5382L40.2707 51.9103C39.2126 52 38.2836 51.2242 38.1868 50.1727C38.0965 49.1212 38.8771 48.198 39.9352 48.1018L55.7868 46.7297C56.8449 46.64 57.7739 47.4158 57.8707 48.4673C57.961 49.5188 57.1803 50.442 56.1223 50.5382Z" fill="#1B4CA1"/>
</g>
<path d="M108.321 4.68396L72.8203 6.38477L75.1782 54.9921L110.679 53.2913L108.321 4.68396Z" fill="#1B4CA1"/>
<g filter="url(#filter3_d_1387_11829)">
<path d="M108.321 4.68396L72.8203 6.38477L75.1782 54.9921L110.679 53.2913L108.321 4.68396Z" fill="white"/>
</g>
<g opacity="0.4">
<path d="M102.007 15.3543L80.1363 16.4058C79.0782 16.4571 78.175 15.6428 78.1234 14.5913C78.0718 13.5398 78.8911 12.6422 79.9492 12.5909L101.82 11.5394C102.878 11.4881 103.781 12.3024 103.833 13.3539C103.885 14.4054 103.065 15.303 102.007 15.3543Z" fill="#F3962F"/>
<path d="M102.394 23.3875L80.523 24.439C79.465 24.4903 78.5617 23.676 78.5101 22.6245C78.4585 21.573 79.2779 20.6754 80.3359 20.6241L102.207 19.5726C103.265 19.5213 104.168 20.3356 104.22 21.3871C104.271 22.4386 103.452 23.3362 102.394 23.3875Z" fill="#F3962F"/>
<path d="M86.9434 32.1844L80.9176 32.4729C79.8595 32.5242 78.9563 31.7099 78.9047 30.6584C78.853 29.6069 79.6724 28.7093 80.7305 28.658L86.7563 28.3695C87.8143 28.3182 88.7176 29.1325 88.7692 30.184C88.8208 31.2355 88.0014 32.1331 86.9434 32.1844Z" fill="#F3962F"/>
<path d="M98.627 31.6277L92.6011 31.9162C91.5431 31.9675 90.6399 31.1533 90.5882 30.1018C90.5366 29.0503 91.356 28.1527 92.4141 28.1014L98.4399 27.8128C99.4979 27.7616 100.401 28.5758 100.453 29.6273C100.504 30.6788 99.685 31.5764 98.627 31.6277Z" fill="#F3962F"/>
<path d="M103.175 39.4617L81.3043 40.5132C80.2462 40.5645 79.343 39.7502 79.2914 38.6987C79.2398 37.6472 80.0591 36.7496 81.1172 36.6983L102.988 35.6468C104.046 35.5955 104.949 36.4098 105.001 37.4613C105.053 38.5128 104.233 39.4104 103.175 39.4617Z" fill="#F3962F"/>
<path d="M97.5872 47.784L81.6969 48.547C80.6388 48.5982 79.7356 47.784 79.684 46.7325C79.6323 45.681 80.4517 44.7834 81.5098 44.7321L97.4001 43.9691C98.4581 43.9178 99.3614 44.7321 99.413 45.7836C99.4646 46.8351 98.6452 47.7327 97.5872 47.784Z" fill="#1B4CA1"/>
</g>
<path d="M55.4905 43.0157L54.9228 40.9063C54.1228 37.9121 51.2518 36.0592 48.0131 36.4375L17.1809 40.0215C13.3357 40.4703 10.2905 43.8621 10.3809 47.6064L12.1293 120.596C12.1938 123.16 14.3809 124.994 17.0196 124.686L127.336 111.863C129.974 111.555 132.065 109.228 132 106.663L130.491 43.5671C130.426 41.0025 128.239 39.1688 125.6 39.4765L61.5421 46.9204C58.7034 47.2474 56.2002 45.6316 55.497 43.0157H55.4905Z" fill="#1B4CA1"/>
<path opacity="0.3" d="M55.4905 43.0157L54.9228 40.9063C54.1228 37.9121 51.2518 36.0592 48.0131 36.4375L17.1809 40.0215C13.3357 40.4703 10.2905 43.8621 10.3809 47.6064L12.1293 120.596C12.1938 123.16 14.3809 124.994 17.0196 124.686L127.336 111.863C129.974 111.555 132.065 109.228 132 106.663L130.491 43.5671C130.426 41.0025 128.239 39.1688 125.6 39.4765L61.5421 46.9204C58.7034 47.2474 56.2002 45.6316 55.497 43.0157H55.4905Z" fill="#7FAEFF"/>
</g>
<defs>
<filter id="filter0_d_1387_11829" x="9.875" y="9.20703" width="52.4258" height="62.627" filterUnits="userSpaceOnUse" color-interpolation-filters="sRGB">
<feFlood flood-opacity="0" result="BackgroundImageFix"/>
<feColorMatrix in="SourceAlpha" type="matrix" values="0 0 0 0 0 0 0 0 0 0 0 0 0 0 0 0 0 0 127 0" result="hardAlpha"/>
<feOffset dy="4"/>
<feGaussianBlur stdDeviation="2"/>
<feComposite in2="hardAlpha" operator="out"/>
<feColorMatrix type="matrix" values="0 0 0 0 0 0 0 0 0 0 0 0 0 0 0 0 0 0 0.04 0"/>
<feBlend mode="normal" in2="BackgroundImageFix" result="effect1_dropShadow_1387_11829"/>
<feBlend mode="normal" in="SourceGraphic" in2="effect1_dropShadow_1387_11829" result="shape"/>
</filter>
<filter id="filter1_d_1387_11829" x="59.1797" y="0.00390625" width="49.8516" height="61.002" filterUnits="userSpaceOnUse" color-interpolation-filters="sRGB">
<feFlood flood-opacity="0" result="BackgroundImageFix"/>
<feColorMatrix in="SourceAlpha" type="matrix" values="0 0 0 0 0 0 0 0 0 0 0 0 0 0 0 0 0 0 127 0" result="hardAlpha"/>
<feOffset dy="4"/>
<feGaussianBlur stdDeviation="2"/>
<feComposite in2="hardAlpha" operator="out"/>
<feColorMatrix type="matrix" values="0 0 0 0 0 0 0 0 0 0 0 0 0 0 0 0 0 0 0.04 0"/>
<feBlend mode="normal" in2="BackgroundImageFix" result="effect1_dropShadow_1387_11829"/>
<feBlend mode="normal" in="SourceGraphic" in2="effect1_dropShadow_1387_11829" result="shape"/>
</filter>
<filter id="filter2_d_1387_11829" x="25.7637" y="7.04492" width="47.6582" height="59.5469" filterUnits="userSpaceOnUse" color-interpolation-filters="sRGB">
<feFlood flood-opacity="0" result="BackgroundImageFix"/>
<feColorMatrix in="SourceAlpha" type="matrix" values="0 0 0 0 0 0 0 0 0 0 0 0 0 0 0 0 0 0 127 0" result="hardAlpha"/>
<feOffset dy="4"/>
<feGaussianBlur stdDeviation="2"/>
<feComposite in2="hardAlpha" operator="out"/>
<feColorMatrix type="matrix" values="0 0 0 0 0 0 0 0 0 0 0 0 0 0 0 0 0 0 0.04 0"/>
<feBlend mode="normal" in2="BackgroundImageFix" result="effect1_dropShadow_1387_11829"/>
<feBlend mode="normal" in="SourceGraphic" in2="effect1_dropShadow_1387_11829" result="shape"/>
</filter>
<filter id="filter3_d_1387_11829" x="68.8203" y="4.68359" width="45.8594" height="58.3086" filterUnits="userSpaceOnUse" color-interpolation-filters="sRGB">
<feFlood flood-opacity="0" result="BackgroundImageFix"/>
<feColorMatrix in="SourceAlpha" type="matrix" values="0 0 0 0 0 0 0 0 0 0 0 0 0 0 0 0 0 0 127 0" result="hardAlpha"/>
<feOffset dy="4"/>
<feGaussianBlur stdDeviation="2"/>
<feComposite in2="hardAlpha" operator="out"/>
<feColorMatrix type="matrix" values="0 0 0 0 0 0 0 0 0 0 0 0 0 0 0 0 0 0 0.04 0"/>
<feBlend mode="normal" in2="BackgroundImageFix" result="effect1_dropShadow_1387_11829"/>
<feBlend mode="normal" in="SourceGraphic" in2="effect1_dropShadow_1387_11829" result="shape"/>
</filter>
<clipPath id="clip0_1387_11829">
<rect width="132" height="125" fill="white"/>
</clipPath>
</defs>
</svg>
