<svg width="16" height="16" viewBox="0 0 16 16" fill="none" xmlns="http://www.w3.org/2000/svg">
<path fill-rule="evenodd" clip-rule="evenodd" d="M13.334 3.99967V11.9997C13.334 12.3663 13.634 12.6663 14.0007 12.6663C14.3673 12.6663 14.6673 12.3663 14.6673 11.9997V3.99967C14.6673 3.63301 14.3673 3.33301 14.0007 3.33301C13.634 3.33301 13.334 3.63301 13.334 3.99967ZM11.334 12.6663C11.7007 12.6663 12.0007 12.3663 12.0007 11.9997V3.99967C12.0007 3.63301 11.7007 3.33301 11.334 3.33301C10.9673 3.33301 10.6673 3.63301 10.6673 3.99967V11.9997C10.6673 12.3663 10.9673 12.6663 11.334 12.6663ZM8.76256 3.33301H1.90541C1.59113 3.33301 1.33398 3.63301 1.33398 3.99967V11.9997C1.33398 12.3663 1.59113 12.6663 1.90541 12.6663H8.76256C9.07684 12.6663 9.33398 12.3663 9.33398 11.9997V3.99967C9.33398 3.63301 9.07684 3.33301 8.76256 3.33301Z" fill="#666666"/>
</svg>
