<svg width="40" height="40" viewBox="0 0 40 40" fill="none" xmlns="http://www.w3.org/2000/svg">
<path d="M25.4328 4H7.8846C7.39605 4 7 4.37428 7 5.10055V35.428C7 35.6251 7.39605 35.9994 7.8846 35.9994H32.1154C32.604 35.9994 33 35.6251 33 35.428V11.4159C33 11.0182 32.9438 10.8902 32.8446 10.7959L25.8089 4.14685C25.7091 4.05314 25.5737 4 25.4328 4Z" fill="#EFEEEE"/>
<path d="M32.1154 36H7.8846C7.39605 36 7 35.4991 7 34.8812V23H33V34.8812C33 35.4991 32.604 36 32.1154 36Z" fill="#CB5641"/>
<path d="M15.8473 26H17.1234V33.2849H15.8473V28.2731L14.1213 32.3255H13.0128L11.2761 28.2731V33.2849H10V26H11.2761L13.5667 30.9822L15.8473 26Z" fill="white"/>
<path d="M20.2828 33.2849H19.0273V26H21.2445C21.5719 26 21.8963 26.0492 22.2168 26.1482C22.5374 26.2473 22.8251 26.3955 23.0798 26.5929C23.3346 26.7902 23.5404 27.0296 23.6972 27.3094C23.854 27.5892 23.9328 27.9037 23.9328 28.2536C23.9328 28.623 23.8663 28.9571 23.7339 29.2571C23.6016 29.5572 23.4164 29.8095 23.1793 30.0134C22.9421 30.2173 22.656 30.3756 22.3216 30.4877C21.9873 30.5997 21.617 30.6554 21.2131 30.6554H20.282V33.2849H20.2828ZM20.2828 26.8994V29.7856H21.4334C21.5864 29.7856 21.7379 29.761 21.8886 29.7112C22.0386 29.662 22.1763 29.581 22.3018 29.469C22.4272 29.3569 22.5282 29.2007 22.6047 28.9997C22.6812 28.7987 22.7195 28.55 22.7195 28.2536C22.7195 28.135 22.7019 27.9976 22.6674 27.8436C22.6323 27.6889 22.5611 27.5407 22.4532 27.399C22.3446 27.2573 22.1931 27.1387 21.998 27.0433C21.8029 26.9479 21.5444 26.9001 21.2238 26.9001L20.2828 26.8994Z" fill="white"/>
<path d="M28.1469 31.5845H24.8105V30.646L28.1469 26H29.423V30.646H30.2286V31.5852H29.423V33.2849H28.1469V31.5845ZM28.1469 30.646V27.3838L25.9291 30.646H28.1469Z" fill="white"/>
<path d="M17.3846 17C17.3208 17 17.2573 16.9872 17.1996 16.9616C17.0765 16.9066 17 16.8016 17 16.6875V12.3124C17 12.1984 17.0765 12.0934 17.1996 12.0384C17.3231 11.9837 17.4727 11.9877 17.5915 12.0487L21.8223 14.2362C21.9327 14.2937 22 14.3931 22 14.5C22 14.6068 21.9327 14.7062 21.8219 14.7637L17.5912 16.9512C17.5285 16.9834 17.4565 17 17.3846 17ZM17.7692 12.8815V16.1181L20.8988 14.5L17.7692 12.8815Z" fill="#ABABAB"/>
<path d="M19.5 20C16.4673 20 14 17.5327 14 14.5C14 11.4673 16.4673 9 19.5 9C22.5327 9 25 11.4673 25 14.5C25 17.5327 22.5327 20 19.5 20ZM19.5 9.73333C16.8717 9.73333 14.7333 11.8717 14.7333 14.5C14.7333 17.1283 16.8717 19.2667 19.5 19.2667C22.1283 19.2667 24.2667 17.1283 24.2667 14.5C24.2667 11.8717 22.1283 9.73333 19.5 9.73333Z" fill="#ABABAB"/>
<path d="M25.7461 4.08496V10.8557H32.9106L25.7461 4.08496Z" fill="#DEDEDD"/>
</svg>
