<svg width="206" height="107" viewBox="0 0 206 107" fill="none" xmlns="http://www.w3.org/2000/svg">
<path fill-rule="evenodd" clip-rule="evenodd" d="M43.8704 86H130.657C131.149 86 131.627 85.9472 132.088 85.8482C132.549 85.9472 133.027 86 133.519 86H183.111C186.798 86 189.787 83.0451 189.787 79.4C189.787 75.7549 186.798 72.8 183.111 72.8H177.389C173.702 72.8 170.713 69.8451 170.713 66.2C170.713 62.5549 173.702 59.6 177.389 59.6H195.509C199.196 59.6 202.185 56.6451 202.185 53C202.185 49.3549 199.196 46.4 195.509 46.4H174.528C178.215 46.4 181.204 43.4451 181.204 39.8C181.204 36.1549 178.215 33.2 174.528 33.2H113.491C117.178 33.2 120.167 30.2451 120.167 26.6C120.167 22.9549 117.178 20 113.491 20H59.1296C55.4426 20 52.4537 22.9549 52.4537 26.6C52.4537 30.2451 55.4426 33.2 59.1296 33.2H20.9815C17.2945 33.2 14.3056 36.1549 14.3056 39.8C14.3056 43.4451 17.2945 46.4 20.9815 46.4H44.8241C48.5111 46.4 51.5 49.3549 51.5 53C51.5 56.6451 48.5111 59.6 44.8241 59.6H6.67593C2.98891 59.6 0 62.5549 0 66.2C0 69.8451 2.98891 72.8 6.67593 72.8H43.8704C40.1834 72.8 37.1944 75.7549 37.1944 79.4C37.1944 83.0451 40.1834 86 43.8704 86ZM199.324 86C203.011 86 206 83.0451 206 79.4C206 75.7549 203.011 72.8 199.324 72.8C195.637 72.8 192.648 75.7549 192.648 79.4C192.648 83.0451 195.637 86 199.324 86Z" fill="#DDE8FB"/>
<g clip-path="url(#clip0_1637_114695)">
<path d="M47.5595 52.8661L47 52.9312L47.9943 61.3804L48.5539 61.3154L47.5595 52.8661Z" fill="#1B4CA1"/>
<path d="M48.9228 64.4584L48.3633 64.5234L48.8649 68.7862L49.4245 68.7212L48.9228 64.4584Z" fill="#1B4CA1"/>
<path d="M86.0766 35.6357L85.4139 33.7916C84.475 31.1737 81.8405 29.5491 79.0625 29.873L52.6682 32.9409C49.3765 33.3251 47.0182 36.2888 47.4048 39.5598L54.916 103.389C55.1811 105.634 57.2246 107.236 59.4835 106.978L153.921 96.0015C156.18 95.7381 157.792 93.7074 157.533 91.4627L151.038 36.2833C150.773 34.0386 148.729 32.436 146.47 32.6939L91.6327 39.0659C89.2026 39.3458 86.8995 37.9243 86.0766 35.6357Z" fill="#1B4CA1"/>
<path d="M88.7183 7.88014L58.8789 13.7891L67.0713 54.642L96.9107 48.7331L88.7183 7.88014Z" fill="#1B4CA1"/>
<g filter="url(#filter0_d_1637_114695)">
<path d="M88.7183 7.88014L58.8789 13.7891L67.0713 54.642L96.9107 48.7331L88.7183 7.88014Z" fill="white"/>
</g>
<g opacity="0.4">
<path d="M84.728 17.7108L66.3476 21.3496C65.4584 21.5252 64.5913 20.9489 64.4145 20.0653C64.2378 19.1817 64.8177 18.32 65.7069 18.1444L84.0874 14.5056C84.9765 14.33 85.8437 14.9063 86.0204 15.7899C86.1971 16.6735 85.6172 17.5352 84.728 17.7108Z" fill="#7FAEFF"/>
<path d="M86.0874 24.4672L67.7069 28.1059C66.8177 28.2815 65.9506 27.7053 65.7739 26.8216C65.5972 25.938 66.1771 25.0764 67.0663 24.9007L85.4467 21.262C86.3359 21.0864 87.203 21.6626 87.3798 22.5462C87.5565 23.4299 86.9766 24.2915 86.0874 24.4672Z" fill="#7FAEFF"/>
<path d="M87.439 31.2176L69.0585 34.8564C68.1693 35.032 67.3022 34.4557 67.1255 33.5721C66.9487 32.6885 67.5286 31.8268 68.4178 31.6512L86.7983 28.0125C87.6875 27.8368 88.5546 28.4131 88.7313 29.2967C88.9081 30.1804 88.3282 31.042 87.439 31.2176Z" fill="#7FAEFF"/>
<path d="M88.7944 37.9735L70.414 41.6122C69.5248 41.7879 68.6577 41.2116 68.4809 40.328C68.3042 39.4444 68.8841 38.5827 69.7733 38.4071L88.1538 34.7683C89.043 34.5927 89.9101 35.169 90.0868 36.0526C90.2635 36.9362 89.6836 37.7979 88.7944 37.9735Z" fill="#1B4CA1"/>
<path d="M85.124 45.723L71.7694 48.3684C70.8802 48.544 70.0131 47.9677 69.8364 47.0841C69.6597 46.2005 70.2396 45.3388 71.1288 45.1632L84.4833 42.5178C85.3725 42.3422 86.2396 42.9185 86.4164 43.8021C86.5931 44.6857 86.0132 45.5474 85.124 45.723Z" fill="#1B4CA1"/>
</g>
<path d="M131.231 0.00293153L101.086 4.10107L106.768 45.3729L136.913 41.2747L131.231 0.00293153Z" fill="#1B4CA1"/>
<g filter="url(#filter1_d_1637_114695)">
<path d="M131.231 0.00293153L101.086 4.10107L106.768 45.3729L136.913 41.2747L131.231 0.00293153Z" fill="white"/>
</g>
<g opacity="0.4">
<path d="M126.654 9.57149L108.086 12.0961C107.185 12.2169 106.357 11.5912 106.23 10.6966C106.108 9.802 106.738 8.97875 107.638 8.85252L126.206 6.3279C127.107 6.20716 127.935 6.83282 128.062 7.72742C128.184 8.62201 127.554 9.44526 126.654 9.57149Z" fill="#7FAEFF"/>
<path d="M127.591 16.3991L109.023 18.9237C108.123 19.0445 107.294 18.4188 107.167 17.5242C107.046 16.6296 107.675 15.8064 108.576 15.6802L127.144 13.1555C128.044 13.0348 128.873 13.6605 129 14.5551C129.121 15.4496 128.492 16.2729 127.591 16.3991Z" fill="#7FAEFF"/>
<path d="M115.083 25.0485L109.968 25.7456C109.068 25.8663 108.24 25.2406 108.113 24.346C107.991 23.4514 108.621 22.6282 109.521 22.502L114.635 21.805C115.536 21.6842 116.364 22.3099 116.491 23.2045C116.613 24.0991 115.983 24.9223 115.083 25.0485Z" fill="#7FAEFF"/>
<path d="M125.001 23.7038L119.886 24.4008C118.986 24.5216 118.158 23.8959 118.031 23.0013C117.909 22.1067 118.539 21.2835 119.439 21.1572L124.553 20.4602C125.454 20.3395 126.282 20.9652 126.409 21.8597C126.53 22.7543 125.901 23.5776 125.001 23.7038Z" fill="#1B4CA1"/>
<path d="M129.474 30.0427L110.906 32.5673C110.006 32.688 109.177 32.0624 109.05 31.1678C108.929 30.2732 109.558 29.4499 110.459 29.3237L129.027 26.7991C129.927 26.6783 130.755 27.304 130.882 28.1986C131.004 29.0932 130.374 29.9164 129.474 30.0427Z" fill="#7FAEFF"/>
<path d="M125.34 37.5617L111.847 39.3948C110.947 39.5156 110.119 38.8899 109.992 37.9953C109.87 37.1007 110.5 36.2775 111.4 36.1512L124.893 34.3181C125.793 34.1974 126.621 34.8231 126.748 35.7177C126.87 36.6122 126.24 37.4355 125.34 37.5617Z" fill="#7FAEFF"/>
</g>
<path d="M102.792 6.02965L72.4805 8.6543L76.1194 50.1533L106.431 47.5286L102.792 6.02965Z" fill="#1B4CA1"/>
<g filter="url(#filter2_d_1637_114695)">
<path d="M102.792 6.02965L72.4805 8.6543L76.1194 50.1533L106.431 47.5286L102.792 6.02965Z" fill="white"/>
</g>
<g opacity="0.4">
<path d="M97.7405 15.3672L79.0673 16.9862C78.1616 17.0631 77.3663 16.399 77.2834 15.4989C77.2061 14.5988 77.8744 13.8085 78.7802 13.7262L97.4533 12.1071C98.3591 12.0303 99.1544 12.6944 99.2372 13.5945C99.3146 14.4945 98.6463 15.2849 97.7405 15.3672Z" fill="#7FAEFF"/>
<path d="M98.3421 22.2275L79.6689 23.8466C78.7631 23.9234 77.9678 23.2593 77.885 22.3592C77.8077 21.4592 78.476 20.6688 79.3817 20.5865L98.0549 18.9675C98.9607 18.8906 99.756 19.5547 99.8388 20.4548C99.9161 21.3549 99.2478 22.1452 98.3421 22.2275Z" fill="#7FAEFF"/>
<path d="M98.9436 29.0932L80.2705 30.7123C79.3647 30.7891 78.5694 30.1251 78.4866 29.225C78.4092 28.3249 79.0775 27.5346 79.9833 27.4522L98.6564 25.8332C99.5622 25.7564 100.358 26.4204 100.44 27.3205C100.518 28.2206 99.8494 29.0109 98.9436 29.0932Z" fill="#7FAEFF"/>
<path d="M99.5452 35.9536L80.872 37.5727C79.9663 37.6495 79.171 36.9854 79.0881 36.0853C79.0108 35.1852 79.6791 34.3949 80.5848 34.3126L99.258 32.6935C100.164 32.6167 100.959 33.2808 101.042 34.1809C101.119 35.081 100.451 35.8713 99.5452 35.9536Z" fill="#7FAEFF"/>
<path d="M95.0435 43.2588L81.4736 44.4333C80.5678 44.5101 79.7725 43.846 79.6897 42.9459C79.6124 42.0459 80.2806 41.2555 81.1864 41.1732L94.7564 39.9987C95.6621 39.9219 96.4574 40.586 96.5403 41.4861C96.6176 42.3861 95.9493 43.1765 95.0435 43.2588Z" fill="#1B4CA1"/>
</g>
<path d="M139.727 4.00993L109.336 5.46582L111.354 47.0737L141.745 45.6178L139.727 4.00993Z" fill="#1B4CA1"/>
<g filter="url(#filter3_d_1637_114695)">
<path d="M139.727 4.00993L109.336 5.46582L111.354 47.0737L141.745 45.6178L139.727 4.00993Z" fill="white"/>
</g>
<g opacity="0.4">
<path d="M134.323 13.1445L115.6 14.0445C114.694 14.0884 113.921 13.3914 113.877 12.4914C113.833 11.5913 114.534 10.8229 115.44 10.779L134.163 9.87892C135.069 9.83501 135.842 10.532 135.886 11.4321C135.93 12.3322 135.229 13.1006 134.323 13.1445Z" fill="#7FAEFF"/>
<path d="M134.655 20.0214L115.932 20.9215C115.026 20.9654 114.253 20.2684 114.209 19.3683C114.165 18.4682 114.866 17.6999 115.772 17.656L134.495 16.7559C135.401 16.712 136.174 17.409 136.218 18.3091C136.262 19.2091 135.561 19.9775 134.655 20.0214Z" fill="#7FAEFF"/>
<path d="M121.427 27.5512L116.268 27.7982C115.362 27.8421 114.589 27.1451 114.545 26.245C114.501 25.3449 115.202 24.5765 116.108 24.5326L121.266 24.2857C122.172 24.2418 122.945 24.9388 122.99 25.8388C123.034 26.7389 122.332 27.5073 121.427 27.5512Z" fill="#7FAEFF"/>
<path d="M131.43 27.0737L126.272 27.3206C125.366 27.3645 124.593 26.6675 124.549 25.7674C124.505 24.8674 125.206 24.099 126.112 24.0551L131.27 23.8081C132.176 23.7642 132.949 24.4612 132.993 25.3613C133.038 26.2614 132.336 27.0298 131.43 27.0737Z" fill="#7FAEFF"/>
<path d="M135.323 33.7807L116.6 34.6808C115.694 34.7247 114.921 34.0277 114.877 33.1276C114.833 32.2275 115.534 31.4591 116.44 31.4152L135.163 30.5151C136.069 30.4712 136.842 31.1683 136.886 32.0683C136.93 32.9684 136.229 33.7368 135.323 33.7807Z" fill="#7FAEFF"/>
<path d="M130.539 40.9042L116.936 41.5573C116.03 41.6012 115.257 40.9042 115.213 40.0041C115.169 39.1041 115.87 38.3357 116.776 38.2918L130.379 37.6387C131.285 37.5948 132.058 38.2918 132.102 39.1919C132.146 40.092 131.445 40.8603 130.539 40.9042Z" fill="#1B4CA1"/>
</g>
<path d="M94.505 36.8212L94.019 35.0155C93.3341 32.4525 90.8764 30.8664 88.1039 31.1902L61.7096 34.2582C58.4179 34.6423 55.8111 37.5457 55.8884 40.7508L57.3851 103.23C57.4403 105.425 59.3126 106.995 61.5715 106.731L156.009 95.7546C158.268 95.4912 160.057 93.4989 160.002 91.3036L158.71 37.2932C158.654 35.0979 156.782 33.5282 154.523 33.7917L99.6856 40.1636C97.2554 40.4435 95.1125 39.0604 94.5105 36.8212H94.505Z" fill="#1B4CA1"/>
<path opacity="0.3" d="M94.505 36.8212L94.019 35.0155C93.3341 32.4525 90.8764 30.8664 88.1039 31.1902L61.7096 34.2582C58.4179 34.6423 55.8111 37.5457 55.8884 40.7508L57.3851 103.23C57.4403 105.425 59.3126 106.995 61.5715 106.731L156.009 95.7546C158.268 95.4912 160.057 93.4989 160.002 91.3036L158.71 37.2932C158.654 35.0979 156.782 33.5282 154.523 33.7917L99.6856 40.1636C97.2554 40.4435 95.1125 39.0604 94.5105 36.8212H94.505Z" fill="#7FAEFF"/>
</g>
<defs>
<filter id="filter0_d_1637_114695" x="54.8789" y="7.88037" width="46.0312" height="54.7617" filterUnits="userSpaceOnUse" color-interpolation-filters="sRGB">
<feFlood flood-opacity="0" result="BackgroundImageFix"/>
<feColorMatrix in="SourceAlpha" type="matrix" values="0 0 0 0 0 0 0 0 0 0 0 0 0 0 0 0 0 0 127 0" result="hardAlpha"/>
<feOffset dy="4"/>
<feGaussianBlur stdDeviation="2"/>
<feComposite in2="hardAlpha" operator="out"/>
<feColorMatrix type="matrix" values="0 0 0 0 0 0 0 0 0 0 0 0 0 0 0 0 0 0 0.04 0"/>
<feBlend mode="normal" in2="BackgroundImageFix" result="effect1_dropShadow_1637_114695"/>
<feBlend mode="normal" in="SourceGraphic" in2="effect1_dropShadow_1637_114695" result="shape"/>
</filter>
<filter id="filter1_d_1637_114695" x="97.0859" y="0.00292969" width="43.8281" height="53.3701" filterUnits="userSpaceOnUse" color-interpolation-filters="sRGB">
<feFlood flood-opacity="0" result="BackgroundImageFix"/>
<feColorMatrix in="SourceAlpha" type="matrix" values="0 0 0 0 0 0 0 0 0 0 0 0 0 0 0 0 0 0 127 0" result="hardAlpha"/>
<feOffset dy="4"/>
<feGaussianBlur stdDeviation="2"/>
<feComposite in2="hardAlpha" operator="out"/>
<feColorMatrix type="matrix" values="0 0 0 0 0 0 0 0 0 0 0 0 0 0 0 0 0 0 0.04 0"/>
<feBlend mode="normal" in2="BackgroundImageFix" result="effect1_dropShadow_1637_114695"/>
<feBlend mode="normal" in="SourceGraphic" in2="effect1_dropShadow_1637_114695" result="shape"/>
</filter>
<filter id="filter2_d_1637_114695" x="68.4805" y="6.02979" width="41.9492" height="52.1235" filterUnits="userSpaceOnUse" color-interpolation-filters="sRGB">
<feFlood flood-opacity="0" result="BackgroundImageFix"/>
<feColorMatrix in="SourceAlpha" type="matrix" values="0 0 0 0 0 0 0 0 0 0 0 0 0 0 0 0 0 0 127 0" result="hardAlpha"/>
<feOffset dy="4"/>
<feGaussianBlur stdDeviation="2"/>
<feComposite in2="hardAlpha" operator="out"/>
<feColorMatrix type="matrix" values="0 0 0 0 0 0 0 0 0 0 0 0 0 0 0 0 0 0 0.04 0"/>
<feBlend mode="normal" in2="BackgroundImageFix" result="effect1_dropShadow_1637_114695"/>
<feBlend mode="normal" in="SourceGraphic" in2="effect1_dropShadow_1637_114695" result="shape"/>
</filter>
<filter id="filter3_d_1637_114695" x="105.336" y="4.00977" width="40.4102" height="51.064" filterUnits="userSpaceOnUse" color-interpolation-filters="sRGB">
<feFlood flood-opacity="0" result="BackgroundImageFix"/>
<feColorMatrix in="SourceAlpha" type="matrix" values="0 0 0 0 0 0 0 0 0 0 0 0 0 0 0 0 0 0 127 0" result="hardAlpha"/>
<feOffset dy="4"/>
<feGaussianBlur stdDeviation="2"/>
<feComposite in2="hardAlpha" operator="out"/>
<feColorMatrix type="matrix" values="0 0 0 0 0 0 0 0 0 0 0 0 0 0 0 0 0 0 0.04 0"/>
<feBlend mode="normal" in2="BackgroundImageFix" result="effect1_dropShadow_1637_114695"/>
<feBlend mode="normal" in="SourceGraphic" in2="effect1_dropShadow_1637_114695" result="shape"/>
</filter>
<clipPath id="clip0_1637_114695">
<rect width="113" height="107" fill="white" transform="translate(47)"/>
</clipPath>
</defs>
</svg>
