<svg width="206" height="93" viewBox="0 0 206 93" fill="none" xmlns="http://www.w3.org/2000/svg">
<path fill-rule="evenodd" clip-rule="evenodd" d="M43.8704 79.5H130.657C131.149 79.5 131.627 79.4472 132.088 79.3482C132.549 79.4472 133.027 79.5 133.519 79.5H183.111C186.798 79.5 189.787 76.5451 189.787 72.9C189.787 69.2549 186.798 66.3 183.111 66.3H177.389C173.702 66.3 170.713 63.3451 170.713 59.7C170.713 56.0549 173.702 53.1 177.389 53.1H195.509C199.196 53.1 202.185 50.1451 202.185 46.5C202.185 42.8549 199.196 39.9 195.509 39.9H174.528C178.215 39.9 181.204 36.9451 181.204 33.3C181.204 29.6549 178.215 26.7 174.528 26.7H113.491C117.178 26.7 120.167 23.7451 120.167 20.1C120.167 16.4549 117.178 13.5 113.491 13.5H59.1296C55.4426 13.5 52.4537 16.4549 52.4537 20.1C52.4537 23.7451 55.4426 26.7 59.1296 26.7H20.9815C17.2945 26.7 14.3056 29.6549 14.3056 33.3C14.3056 36.9451 17.2945 39.9 20.9815 39.9H44.8241C48.5111 39.9 51.5 42.8549 51.5 46.5C51.5 50.1451 48.5111 53.1 44.8241 53.1H6.67593C2.98891 53.1 0 56.0549 0 59.7C0 63.3451 2.98891 66.3 6.67593 66.3H43.8704C40.1834 66.3 37.1944 69.2549 37.1944 72.9C37.1944 76.5451 40.1834 79.5 43.8704 79.5ZM199.324 79.5C203.011 79.5 206 76.5451 206 72.9C206 69.2549 203.011 66.3 199.324 66.3C195.637 66.3 192.648 69.2549 192.648 72.9C192.648 76.5451 195.637 79.5 199.324 79.5Z" fill="#DDE8FB"/>
<g clip-path="url(#clip0_1687_41954)">
<path d="M50.0966 1.96998C50.0966 1.96998 49.1936 56.0467 56.6776 92.4229L149.926 92.1303L125.513 1.53613L50.0966 1.96998Z" fill="#E0E0E0"/>
<path d="M50.0963 1.96981C50.6894 1.96645 79.8841 1.77138 125.513 1.46533H125.566L125.58 1.51914C132.535 27.3114 140.925 58.4411 150.003 92.1066L150.034 92.2176H149.919C147.574 92.2243 145.046 92.2344 142.506 92.2411C111.178 92.3353 81.7542 92.4227 56.6705 92.5001H56.6065L56.5964 92.4396C56.2864 90.7681 55.9764 89.1134 55.6731 87.4789C55.5249 86.6582 55.3564 85.8477 55.2317 85.0372C55.107 84.2233 54.9823 83.4161 54.861 82.609C54.6184 81.0014 54.3758 79.4106 54.1366 77.8366C53.9378 76.2593 53.7389 74.7021 53.5469 73.1618C53.4492 72.3916 53.3514 71.6282 53.2571 70.8681C53.1661 70.108 53.0953 69.3513 53.0145 68.6013C52.8561 67.0979 52.7045 65.6181 52.5495 64.1552C52.3843 62.6955 52.2866 61.2494 52.1552 59.8301C52.0339 58.4075 51.9126 57.0084 51.7947 55.6295C50.9388 44.5948 50.5445 34.9459 50.3086 26.9919C50.0862 19.0413 50.0424 12.7825 50.0391 8.51457C50.0391 6.38231 50.0525 4.74444 50.0627 3.64131C50.0694 3.08975 50.0761 2.67272 50.0795 2.39021C50.0862 2.12452 50.0896 2.00681 50.0896 1.96981C50.0896 2.13461 50.0896 4.26687 50.0829 8.51457C50.0997 12.7825 50.157 19.038 50.3929 26.9886C50.6422 34.9391 51.0466 44.5881 51.916 55.616C52.0339 56.9949 52.1552 58.394 52.2799 59.8133C52.4113 61.2325 52.509 62.6787 52.6775 64.1383C52.8325 65.598 52.9875 67.0811 53.1459 68.5811C53.2268 69.3311 53.2975 70.0878 53.3919 70.8479C53.4896 71.608 53.5873 72.3714 53.685 73.1382C53.8805 74.6752 54.0793 76.2324 54.2781 77.8097C54.5173 79.3803 54.7599 80.9711 55.0059 82.5787C55.1306 83.3825 55.2553 84.1897 55.38 85.0035C55.5046 85.8174 55.6765 86.6246 55.8214 87.4452C56.128 89.0797 56.4347 90.7311 56.748 92.4026L56.6739 92.342C81.7576 92.2613 111.181 92.1638 142.509 92.0629C145.05 92.0562 147.574 92.0461 149.922 92.0393L149.838 92.1503C140.774 58.4815 132.39 27.3484 125.445 1.55277L125.516 1.60659C79.8841 1.82856 50.6894 1.96645 50.0963 1.96981Z" fill="#1B4CA1"/>
<path d="M50.0948 1.97006C50.0948 1.97006 50.0173 9.09666 51.2236 21.786C52.0222 30.1838 51.9346 41.2117 54.1653 55.2631C58.8794 84.95 61.3595 89.4869 61.3595 89.4869L152.32 88.8883L128.102 0.641602L50.0948 1.97006Z" fill="#EBEBEB"/>
<path d="M50.0966 1.96989C50.7065 1.9598 81.0098 1.41496 128.104 0.570801H128.161L128.175 0.624612C135.11 25.8788 143.436 56.2013 152.406 88.8646L152.436 88.9756H152.322C150.755 88.9856 149.063 88.9991 147.365 89.0092C115.923 89.211 86.4282 89.4027 61.3613 89.5641H61.3108L61.2939 89.5238C60.9368 88.7536 60.7043 87.9666 60.4583 87.183C60.2157 86.3993 60.0034 85.609 59.7944 84.8254C59.5889 84.0384 59.3901 83.2581 59.2048 82.4745C59.0127 81.6943 58.8375 80.9174 58.6656 80.1405C57.9782 77.043 57.3616 74.0026 56.8089 71.0296C55.6936 65.0868 54.7568 59.4266 53.9279 54.0993C53.5202 51.4323 53.1967 48.8426 52.9338 46.3371C52.6676 43.8315 52.4553 41.41 52.2902 39.0827C51.9499 34.428 51.7679 30.1433 51.5253 26.2756C51.4107 24.3418 51.2557 22.5156 51.0974 20.8004C50.939 19.0818 50.8076 17.4708 50.6964 15.9675C50.4706 12.9641 50.3257 10.4081 50.2381 8.33304C50.1471 6.25795 50.1101 4.66716 50.0966 3.59431C50.0966 3.05956 50.0898 2.65261 50.0898 2.37683C50.0898 2.10441 50.0966 1.96652 50.0966 1.96652C50.0966 2.04724 50.1067 2.53827 50.1202 3.59431C50.1404 4.66716 50.1876 6.25795 50.2819 8.33304C50.3796 10.4081 50.5313 12.9641 50.7638 15.9641C50.8783 17.4641 51.0131 19.0751 51.1749 20.7936C51.3366 22.5122 51.4984 24.3384 51.6129 26.2723C51.8623 30.1399 52.051 34.4213 52.3981 39.0759C52.5665 41.4033 52.7822 43.8214 53.0484 46.327C53.3146 48.8325 53.6415 51.4188 54.0526 54.0825C54.8882 59.4064 55.8284 65.0667 56.9471 71.006C57.4997 73.9757 58.1197 77.0127 58.8071 80.1102C58.9824 80.8837 59.1542 81.6606 59.3497 82.4409C59.5316 83.2211 59.7338 84.0014 59.9393 84.7884C60.1483 85.572 60.3605 86.359 60.6032 87.1392C60.8458 87.9161 61.0884 88.7166 61.4287 89.4531L61.3613 89.4128C86.4282 89.2446 115.926 89.0462 147.365 88.8343C149.063 88.8242 150.755 88.8108 152.322 88.8007L152.238 88.9117C143.281 56.245 134.961 25.9191 128.033 0.661607L128.104 0.715418C81.0098 1.47214 50.7031 1.9598 50.0966 1.96989Z" fill="#1B4CA1"/>
<path d="M136.337 4.83545L50.1718 6.3018C49.8079 29.6221 58.0332 66.0253 64.0683 85.1753L154.493 84.2302C145.237 59.6924 134.588 31.7981 136.334 4.83545H136.337Z" fill="#F5F5F5"/>
<path d="M136.336 4.83534C136.336 4.91269 136.319 5.36336 136.292 6.33196C136.275 6.82971 136.255 7.44517 136.232 8.17499C136.218 8.90816 136.147 9.75905 136.188 10.7176C136.232 12.6379 136.215 15.0056 136.454 17.7836C136.501 18.4798 136.548 19.1995 136.599 19.9461C136.67 20.6894 136.764 21.4596 136.852 22.2533C136.939 23.047 137.034 23.8643 137.128 24.7084C137.219 25.5526 137.377 26.4102 137.505 27.2981C137.64 28.186 137.782 29.094 137.923 30.029C138.085 30.9606 138.277 31.909 138.459 32.8843C138.651 33.8563 138.816 34.8585 139.045 35.8675C139.271 36.8798 139.504 37.9123 139.743 38.9683C139.864 39.4964 139.975 40.0311 140.107 40.5658C140.242 41.1006 140.38 41.6421 140.521 42.1869C140.801 43.2766 141.084 44.3898 141.374 45.5198C141.691 46.6431 142.014 47.79 142.341 48.9536C142.509 49.5355 142.664 50.124 142.843 50.7126C143.022 51.3011 143.203 51.8931 143.389 52.4917C146.27 62.0768 150.202 72.6742 154.566 84.2066L154.603 84.3075H154.495C129.216 84.5765 99.1857 84.896 67.0695 85.2357C66.062 85.2458 65.0545 85.2559 64.0705 85.266H64.0065L63.9863 85.2054C61.8061 78.1932 59.9562 71.2045 58.3084 64.3268C56.6674 57.4457 55.242 50.6655 54.0357 44.0333C52.8327 37.4011 51.8454 30.9135 51.1412 24.6075C50.4403 18.3015 50.0056 12.1772 50.0932 6.29833V6.22434H50.1673C101.784 5.39363 135.679 4.84543 136.333 4.83534C135.679 4.84543 101.78 5.45417 50.1673 6.37568L50.2415 6.30169C50.1572 12.1705 50.5953 18.2881 51.2928 24.584C51.9971 30.8832 52.9877 37.3675 54.1941 43.9963C55.4038 50.6251 56.8291 57.402 58.4702 64.2797C60.1179 71.1574 61.9679 78.1427 64.1447 85.1483L64.0604 85.0877C65.0477 85.0776 66.0519 85.0676 67.0594 85.0575C99.1756 84.7279 129.209 84.4151 154.485 84.1561L154.414 84.257C150.054 72.7213 146.132 62.1172 143.257 52.5253C143.075 51.9267 142.893 51.3348 142.715 50.7429C142.536 50.1543 142.381 49.5624 142.213 48.9805C141.886 47.8135 141.562 46.67 141.249 45.5434C140.959 44.41 140.68 43.3001 140.4 42.2071C140.262 41.6622 140.124 41.1208 139.989 40.586C139.857 40.0513 139.746 39.5132 139.628 38.9851C139.392 37.9291 139.163 36.8932 138.938 35.8809C138.708 34.8686 138.547 33.8664 138.355 32.8944C138.173 31.9191 137.984 30.9707 137.822 30.0391C137.681 29.1041 137.542 28.1927 137.408 27.3048C137.283 26.4169 137.125 25.5559 137.034 24.7118C136.943 23.8676 136.852 23.0504 136.764 22.2533C136.68 21.4596 136.586 20.6894 136.515 19.9461C136.468 19.1995 136.42 18.4798 136.377 17.7836C136.144 15.0056 136.168 12.6346 136.131 10.7142C136.094 9.75232 136.168 8.91152 136.185 8.17835C136.215 7.44854 136.238 6.83307 136.259 6.33868C136.302 5.36336 136.319 4.90933 136.323 4.82861L136.336 4.83534Z" fill="#1B4CA1"/>
<path d="M136.493 0.5L50.0981 1.96971C49.7341 25.2934 53.5654 46.7169 59.5971 65.8703L84.5258 81.2804L156.896 80.0495C147.639 55.5117 134.751 27.466 136.496 0.503363L136.493 0.5Z" fill="#FAFAFA"/>
<path d="M136.492 0.5C136.492 0.577353 136.472 1.03138 136.431 2.01007C136.408 2.51119 136.377 3.13674 136.377 3.87328C136.374 4.61318 136.34 5.46743 136.37 6.43603C136.418 10.3037 136.761 16.0009 138.082 23.1208C139.38 30.2407 141.664 38.7563 144.96 48.2943C146.601 53.0666 148.481 58.098 150.52 63.3849C152.558 68.6685 154.762 74.2076 156.962 80.0259L157 80.1268H156.892C135.683 80.4934 110.963 80.9172 84.525 81.3712H84.498L84.4778 81.3578C81.0441 79.2356 77.3813 76.9688 73.6814 74.6852C68.9033 71.7323 64.1824 68.8131 59.5491 65.951L59.5222 65.9342L59.512 65.9039C55.984 54.6709 53.4837 43.5152 51.964 32.753C50.4308 21.984 49.8849 11.6254 50.0197 1.96971V1.89572H50.0939C101.801 1.05829 135.835 0.51009 136.492 0.5C135.835 0.51009 101.801 1.12219 50.0972 2.04707L50.1714 1.97308C50.0399 11.6254 50.5959 21.9706 52.1291 32.7227C53.6522 43.4748 56.1559 54.6204 59.6805 65.8434L59.6435 65.7963C64.2767 68.6584 68.9976 71.5776 73.7758 74.5305C77.4723 76.8175 81.1385 79.0809 84.5722 81.2031L84.525 81.1896C110.967 80.7457 135.686 80.3286 156.895 79.9721L156.824 80.073C154.627 74.2547 152.43 68.7189 150.395 63.4286C148.36 58.1417 146.483 53.107 144.845 48.3313C141.556 38.7865 139.282 30.2642 137.998 23.1343C136.691 16.0077 136.36 10.3071 136.327 6.43603C136.3 5.46743 136.337 4.61318 136.344 3.87328C136.347 3.13338 136.384 2.51791 136.411 2.0168C136.465 1.03475 136.492 0.577353 136.495 0.5L136.492 0.5Z" fill="#1B4CA1"/>
<path d="M59.668 65.8601L81.6213 63.5059L84.5259 81.2769L59.668 65.8601Z" fill="#E0E0E0"/>
<path d="M84.5264 81.2768C84.5264 81.2768 84.5163 81.2465 84.5028 81.1894C84.4893 81.1221 84.4724 81.0347 84.4522 80.927C84.4084 80.6849 84.3478 80.3452 84.2703 79.9114C84.1186 79.0168 83.8996 77.7354 83.63 76.1513C83.101 72.9496 82.3664 68.5135 81.5375 63.5226L81.6318 63.5965C80.9815 63.6672 80.2873 63.7412 79.5898 63.8151C74.0737 64.397 69.0832 64.9216 65.4575 65.305C63.6581 65.4867 62.1957 65.6346 61.1713 65.7355C60.6759 65.7826 60.2851 65.8196 60.0054 65.8431C59.8807 65.8532 59.7796 65.86 59.7021 65.8667C59.6347 65.8701 59.5977 65.8734 59.5977 65.8667C59.5977 65.8667 59.6314 65.8566 59.6987 65.8465C59.7762 65.8364 59.8773 65.823 60.002 65.8062C60.2783 65.7725 60.6692 65.7254 61.1645 65.6649C62.1856 65.5472 63.6446 65.3824 65.444 65.1772C69.0698 64.7804 74.0602 64.2389 79.573 63.6369C80.2739 63.5629 80.9646 63.4889 81.615 63.4183L81.6958 63.4082L81.7093 63.4889C82.5147 68.4833 83.229 72.9227 83.7446 76.1278C83.994 77.7186 84.1928 78.9999 84.3343 79.8979C84.3983 80.3318 84.4489 80.6748 84.4859 80.917C84.4994 81.0246 84.5129 81.112 84.5196 81.1826C84.5264 81.2432 84.5297 81.2735 84.5264 81.2735V81.2768Z" fill="#1B4CA1"/>
<path d="M120.273 24.8224C120.273 24.8695 108.631 25.1082 94.2726 25.3538C79.9078 25.5993 68.2656 25.7573 68.2656 25.7069C68.2656 25.6598 79.9044 25.421 94.2692 25.1755C108.627 24.93 120.273 24.7719 120.273 24.8224Z" fill="#1B4CA1"/>
<path d="M121.726 32.9112C121.726 32.9583 110.084 33.1971 95.7257 33.4426C81.3609 33.6881 69.7188 33.8462 69.7188 33.7958C69.7188 33.7487 81.3575 33.5099 95.7224 33.2644C110.08 33.0189 121.726 32.8608 121.726 32.9112Z" fill="#1B4CA1"/>
<path d="M124.98 40.9693C124.98 41.0164 113.338 41.2552 98.9796 41.5007C84.6148 41.7462 72.9727 41.9043 72.9727 41.8539C72.9727 41.8068 84.6114 41.568 98.9763 41.3225C113.334 41.077 124.98 40.9189 124.98 40.9693Z" fill="#1B4CA1"/>
<path d="M128.398 50.107C128.398 50.1541 116.756 50.3929 102.398 50.6384C88.0328 50.8839 76.3906 51.042 76.3906 50.9916C76.3906 50.9445 88.0294 50.7057 102.394 50.4602C116.752 50.2147 128.398 50.0566 128.398 50.107Z" fill="#1B4CA1"/>
<path d="M132.249 58.6026C132.249 58.6497 120.607 58.8885 106.249 59.134C91.8843 59.3795 80.2422 59.5376 80.2422 59.4872C80.2422 59.4401 91.881 59.2013 106.246 58.9558C120.604 58.7103 132.249 58.5522 132.249 58.6026Z" fill="#1B4CA1"/>
<path d="M144.378 33.0321C150.676 30.1778 153.464 22.7678 150.604 16.4813C147.745 10.1949 140.32 7.41257 134.022 10.2669C127.723 13.1212 124.936 20.5312 127.795 26.8177C130.655 33.1041 138.079 35.8864 144.378 33.0321Z" fill="#F3962F"/>
<path d="M138.895 17.286C138.945 20.1851 138.992 23.0842 139.043 25.9832C139.06 27.0628 140.745 27.0662 140.728 25.9832C140.677 23.0842 140.63 20.1851 140.58 17.286C140.563 16.2065 138.874 16.2031 138.895 17.286Z" fill="white"/>
<path d="M135.148 22.5561C138.255 22.5023 141.362 22.4518 144.472 22.398C145.554 22.3812 145.557 20.6996 144.472 20.7164C141.365 20.7702 138.259 20.8207 135.148 20.8745C134.067 20.8913 134.063 22.5729 135.148 22.5561Z" fill="white"/>
</g>
<defs>
<clipPath id="clip0_1687_41954">
<rect width="107" height="92" fill="white" transform="translate(50 0.5)"/>
</clipPath>
</defs>
</svg>
