<svg width="146" height="125" viewBox="0 0 146 125" fill="none" xmlns="http://www.w3.org/2000/svg">
<g clip-path="url(#clip0_1398_11510)">
<path d="M0.632193 1.99572C0.632193 1.99572 -0.591589 75.4695 9.55028 124.894L135.915 124.496L102.832 1.40625L0.632193 1.99572Z" fill="#E0E0E0"/>
<path d="M0.632316 1.99598C1.43599 1.99141 40.9989 1.72638 102.832 1.31055H102.905L102.923 1.38366C112.348 36.4275 123.718 78.7233 136.02 124.464L136.061 124.615H135.906C132.728 124.624 129.303 124.638 125.86 124.647C83.4066 124.775 43.5332 124.894 9.54127 124.999H9.45451L9.44081 124.917C9.02071 122.646 8.6006 120.398 8.18963 118.177C7.98871 117.062 7.76039 115.961 7.59144 114.859C7.42248 113.753 7.25353 112.657 7.08914 111.56C6.76036 109.376 6.43158 107.214 6.10737 105.076C5.83796 102.933 5.56854 100.817 5.30826 98.7242C5.17584 97.6778 5.04341 96.6405 4.91556 95.6077C4.79226 94.575 4.69637 93.5469 4.58678 92.5279C4.37216 90.4853 4.16667 88.4747 3.95662 86.4869C3.73287 84.5038 3.60045 82.5388 3.42236 80.6105C3.25797 78.6776 3.09358 76.7766 2.93376 74.9031C1.7739 59.9104 1.23964 46.8004 0.919996 35.9934C0.618616 25.191 0.559254 16.6871 0.554688 10.8883C0.554688 7.99123 0.572953 5.76586 0.586652 4.26705C0.595785 3.51764 0.604917 2.95101 0.609484 2.56717C0.618616 2.20618 0.623183 2.04624 0.623183 1.99598C0.623183 2.21989 0.623183 5.11698 0.61405 10.8883C0.636882 16.6871 0.71451 25.1864 1.03415 35.9888C1.37206 46.7913 1.92003 59.9013 3.09815 74.8849C3.25797 76.7584 3.42236 78.6593 3.59131 80.5876C3.7694 82.516 3.90182 84.4809 4.13014 86.4641C4.34019 88.4473 4.55025 90.4624 4.76487 92.5005C4.87446 93.5195 4.97035 94.5476 5.09821 95.5803C5.23063 96.6131 5.36306 97.6503 5.49548 98.6922C5.76033 100.78 6.02975 102.896 6.29916 105.039C6.62337 107.173 6.95215 109.335 7.28549 111.519C7.45445 112.611 7.6234 113.708 7.79236 114.814C7.96131 115.919 8.1942 117.016 8.39055 118.131C8.80609 120.352 9.22163 122.596 9.6463 124.867L9.54584 124.784C43.5378 124.675 83.4112 124.542 125.865 124.405C129.308 124.396 132.728 124.382 135.911 124.373L135.796 124.524C123.513 78.7781 112.152 36.4778 102.741 1.42936L102.836 1.50247C40.9989 1.80406 1.43599 1.99141 0.632316 1.99598Z" fill="#1B4CA1"/>
<path d="M0.632221 1.99638C0.632221 1.99638 0.527195 11.6793 2.16195 28.9202C3.24418 40.3303 3.12545 55.3139 6.14838 74.4054C12.5367 114.741 15.8975 120.905 15.8975 120.905L139.162 120.092L106.343 0.191406L0.632221 1.99638Z" fill="#EBEBEB"/>
<path d="M0.63218 1.99664C1.45869 1.98293 42.5239 1.24266 106.343 0.0957031H106.421L106.439 0.168816C115.837 34.4816 127.12 75.6806 139.276 120.06L139.317 120.211H139.162C137.038 120.225 134.746 120.243 132.445 120.257C89.8359 120.531 49.8666 120.791 15.8975 121.011H15.829L15.8062 120.956C15.3221 119.909 15.0071 118.84 14.6737 117.775C14.3449 116.711 14.0573 115.637 13.7741 114.572C13.4956 113.503 13.2262 112.443 12.975 111.378C12.7148 110.318 12.4773 109.262 12.2444 108.207C11.3129 103.998 10.4772 99.8672 9.72836 95.8278C8.21689 87.7534 6.94745 80.0628 5.82412 72.8246C5.27159 69.201 4.83322 65.6824 4.47705 62.2781C4.11631 58.8738 3.82863 55.5837 3.60488 52.4216C3.14367 46.0974 2.89709 40.2757 2.56831 35.0208C2.41306 32.3933 2.20301 29.912 1.98839 27.5815C1.77377 25.2465 1.59568 23.0577 1.44499 21.0151C1.13904 16.9345 0.942692 13.4616 0.823966 10.6422C0.700675 7.82281 0.650445 5.66141 0.63218 4.20373C0.63218 3.47717 0.623047 2.92425 0.623047 2.54955C0.623047 2.17942 0.63218 1.99207 0.63218 1.99207C0.63218 2.10174 0.645879 2.76889 0.664144 4.20373C0.691542 5.66141 0.755471 7.82281 0.883329 10.6422C1.01575 13.4616 1.22124 16.9345 1.53632 21.0105C1.69157 23.0485 1.87423 25.2374 2.09341 27.5724C2.3126 29.9074 2.53178 32.3887 2.68704 35.0162C3.02495 40.2712 3.28066 46.0882 3.751 52.4125C3.97932 55.5746 4.27156 58.8601 4.63231 62.2644C4.99305 65.6687 5.43598 69.1827 5.99308 72.8018C7.12553 80.0354 8.39955 87.7259 9.91558 95.7958C10.6645 99.8307 11.5047 103.957 12.4362 108.166C12.6737 109.217 12.9065 110.272 13.1714 111.332C13.418 112.392 13.692 113.452 13.9705 114.522C14.2536 115.586 14.5413 116.656 14.8701 117.716C15.1988 118.771 15.5276 119.859 15.9888 120.86L15.8975 120.805C49.8666 120.576 89.8405 120.307 132.445 120.019C134.746 120.005 137.038 119.987 139.162 119.973L139.048 120.124C126.91 75.74 115.636 34.5364 106.247 0.219081L106.343 0.292194C42.5239 1.32034 1.45412 1.98293 0.63218 1.99664Z" fill="#1B4CA1"/>
<path d="M117.497 5.89062L0.730657 7.88295C0.237491 39.5682 11.384 89.029 19.5623 115.048L142.1 113.764C129.557 80.4245 115.127 42.5247 117.492 5.89062H117.497Z" fill="#F5F5F5"/>
<path d="M117.498 5.89C117.498 5.9951 117.475 6.60742 117.438 7.92345C117.416 8.59974 117.388 9.43597 117.356 10.4276C117.338 11.4237 117.242 12.5798 117.297 13.8821C117.356 16.4914 117.333 19.7083 117.658 23.4828C117.721 24.4287 117.785 25.4065 117.854 26.421C117.95 27.4309 118.078 28.4773 118.196 29.5557C118.315 30.6341 118.443 31.7445 118.571 32.8915C118.694 34.0384 118.909 35.2037 119.082 36.41C119.265 37.6164 119.457 38.8502 119.648 40.1205C119.868 41.3863 120.128 42.6749 120.375 44C120.635 45.3206 120.859 46.6824 121.169 48.0532C121.475 49.4287 121.79 50.8315 122.114 52.2663C122.279 52.9838 122.429 53.7103 122.607 54.4369C122.79 55.1634 122.977 55.8991 123.169 56.6394C123.548 58.1199 123.932 59.6325 124.324 61.1678C124.754 62.6941 125.192 64.2523 125.635 65.8333C125.863 66.6239 126.073 67.4235 126.315 68.2232C126.557 69.0229 126.804 69.8271 127.055 70.6405C130.959 83.6637 136.288 98.0624 142.202 113.731L142.252 113.868H142.106C107.849 114.234 67.1537 114.668 23.6318 115.13C22.2664 115.143 20.9011 115.157 19.5677 115.171H19.481L19.4536 115.089C16.4991 105.561 13.9922 96.0655 11.7592 86.7207C9.53543 77.3715 7.60386 68.1592 5.96911 59.1481C4.33892 50.1369 3.00098 41.3223 2.04661 32.7544C1.09681 24.1865 0.507751 15.8653 0.626476 7.87775V7.77722H0.726936C70.6743 6.64854 116.607 5.90371 117.493 5.89C116.607 5.90371 70.6698 6.7308 0.726936 7.98285L0.827395 7.88232C0.713237 15.8562 1.30686 24.1682 2.2521 32.7224C3.20647 41.2812 4.54897 50.0912 6.18373 59.0978C7.82305 68.1044 9.75462 77.312 11.9784 86.6568C14.2114 96.0015 16.7183 105.492 19.6682 115.011L19.554 114.929C20.892 114.915 22.2527 114.901 23.6181 114.887C67.14 114.44 107.84 114.015 142.092 113.663L141.996 113.8C136.087 98.1263 130.772 83.7186 126.877 70.6862C126.63 69.8728 126.384 69.0686 126.142 68.2643C125.9 67.4647 125.69 66.6604 125.461 65.8699C125.019 64.2843 124.58 62.7306 124.155 61.1998C123.763 59.6599 123.384 58.1519 123.005 56.6668C122.818 55.9266 122.63 55.1909 122.448 54.4643C122.27 53.7377 122.119 53.0066 121.959 52.2892C121.639 50.8544 121.329 49.4469 121.023 48.0715C120.712 46.6961 120.493 45.3343 120.233 44.0137C119.986 42.6886 119.731 41.4 119.512 40.1342C119.32 38.8639 119.132 37.6255 118.95 36.4192C118.781 35.2128 118.566 34.043 118.443 32.896C118.32 31.7491 118.196 30.6387 118.078 29.5557C117.964 28.4773 117.836 27.4309 117.74 26.421C117.676 25.4065 117.612 24.4287 117.553 23.4828C117.237 19.7083 117.269 16.4868 117.219 13.8776C117.169 12.5707 117.269 11.4283 117.292 10.4321C117.333 9.44054 117.365 8.60431 117.393 7.93259C117.452 6.60742 117.475 5.99053 117.479 5.88086L117.498 5.89Z" fill="#1B4CA1"/>
<path d="M117.709 0L0.631919 1.99689C0.138753 33.6867 5.3307 62.7947 13.5045 88.8183L47.2864 109.756L145.358 108.084C132.814 74.7441 115.348 36.6386 117.713 0.00456955L117.709 0Z" fill="#FAFAFA"/>
<path d="M117.709 0C117.709 0.1051 117.681 0.721989 117.626 2.05173C117.594 2.73259 117.553 3.58253 117.553 4.58326C117.549 5.58856 117.503 6.74922 117.544 8.06525C117.608 13.3202 118.074 21.0611 119.864 30.7348C121.622 40.4085 124.718 51.9786 129.184 64.9379C131.408 71.4221 133.956 78.2581 136.718 85.4414C139.481 92.6202 142.467 100.146 145.449 108.052L145.499 108.189H145.353C116.613 108.687 83.1138 109.262 47.2862 109.879H47.2497L47.2223 109.861C42.5692 106.978 37.6055 103.898 32.5917 100.795C26.1166 96.7831 19.7191 92.8167 13.4404 88.928L13.4039 88.9051L13.3902 88.864C8.60918 73.6017 5.22095 58.4445 3.16152 43.822C1.08383 29.1903 0.344082 15.1161 0.526736 1.99689V1.89636H0.627196C70.6979 0.758545 116.818 0.0137086 117.709 0C116.818 0.0137086 70.6979 0.845367 0.631763 2.10199L0.732222 2.00146C0.554135 15.1161 1.30758 29.172 3.38527 43.7808C5.44927 58.3897 8.84207 73.5332 13.6185 88.7818L13.5682 88.7178C19.847 92.6065 26.2444 96.5728 32.7195 100.585C37.7288 103.692 42.697 106.768 47.3501 109.651L47.2862 109.633C83.1184 109.029 116.617 108.463 145.358 107.978L145.262 108.116C142.285 100.21 139.307 92.6887 136.549 85.5008C133.791 78.3175 131.248 71.4769 129.029 64.9881C124.572 52.0197 121.489 40.4405 119.75 30.7531C117.978 21.0702 117.53 13.3248 117.485 8.06525C117.448 6.74922 117.498 5.58856 117.508 4.58326C117.512 3.57796 117.562 2.74173 117.599 2.06087C117.672 0.726558 117.709 0.1051 117.713 0L117.709 0Z" fill="#1B4CA1"/>
<path d="M13.5996 88.8042L43.3494 85.6055L47.2856 109.751L13.5996 88.8042Z" fill="#E0E0E0"/>
<path d="M47.2858 109.751C47.2858 109.751 47.2721 109.71 47.2538 109.632C47.2356 109.54 47.2127 109.422 47.1853 109.275C47.126 108.946 47.0438 108.485 46.9387 107.895C46.7333 106.68 46.4365 104.939 46.0711 102.787C45.3542 98.4365 44.3588 92.4092 43.2354 85.628L43.3633 85.7285C42.482 85.8245 41.5413 85.925 40.5961 86.0256C33.121 86.8161 26.3582 87.529 21.4448 88.0499C19.0064 88.2966 17.0246 88.4977 15.6364 88.6348C14.9651 88.6988 14.4354 88.749 14.0564 88.781C13.8875 88.7947 13.7505 88.8039 13.6455 88.813C13.5541 88.8176 13.5039 88.8221 13.5039 88.813C13.5039 88.813 13.5496 88.7993 13.6409 88.7856C13.7459 88.7719 13.8829 88.7536 14.0519 88.7307C14.4263 88.685 14.956 88.6211 15.6273 88.5388C17.0109 88.3789 18.9881 88.155 21.4265 87.8762C26.3399 87.337 33.1027 86.6013 40.5733 85.7834C41.5231 85.6829 42.4592 85.5823 43.3405 85.4864L43.4501 85.4727L43.4683 85.5823C44.5597 92.3681 45.5277 98.3999 46.2264 102.755C46.5643 104.916 46.8337 106.657 47.0255 107.877C47.1123 108.467 47.1808 108.933 47.231 109.262C47.2493 109.408 47.2675 109.527 47.2767 109.623C47.2858 109.705 47.2904 109.746 47.2858 109.746V109.751Z" fill="#1B4CA1"/>
<path d="M95.731 33.0479C95.731 33.1119 79.9543 33.4363 60.497 33.7699C41.0307 34.1035 25.2539 34.3182 25.2539 34.2497C25.2539 34.1857 41.0261 33.8613 60.4925 33.5277C79.9497 33.1941 95.731 32.9794 95.731 33.0479Z" fill="#1B4CA1"/>
<path d="M97.6998 44.0362C97.6998 44.1002 81.923 44.4246 62.4658 44.7582C42.9994 45.0917 27.2227 45.3065 27.2227 45.238C27.2227 45.174 42.9948 44.8496 62.4612 44.516C81.9184 44.1824 97.6998 43.9676 97.6998 44.0362Z" fill="#1B4CA1"/>
<path d="M102.11 54.9854C102.11 55.0494 86.3332 55.3738 66.8759 55.7074C47.4096 56.041 31.6328 56.2557 31.6328 56.1872C31.6328 56.1232 47.405 55.7988 66.8714 55.4652C86.3286 55.1316 102.11 54.9169 102.11 54.9854Z" fill="#1B4CA1"/>
<path d="M106.741 67.4014C106.741 67.4654 90.964 67.7898 71.5068 68.1234C52.0404 68.457 36.2637 68.6718 36.2637 68.6032C36.2637 68.5392 52.0359 68.2148 71.5022 67.8812C90.9595 67.5476 106.741 67.3329 106.741 67.4014Z" fill="#1B4CA1"/>
<path d="M111.96 78.9444C111.96 79.0084 96.1828 79.3328 76.7255 79.6664C57.2592 80 41.4824 80.2147 41.4824 80.1462C41.4824 80.0822 57.2546 79.7578 76.721 79.4242C96.1782 79.0906 111.96 78.8758 111.96 78.9444Z" fill="#1B4CA1"/>
<path d="M128.397 44.202C136.932 40.3239 140.71 30.2559 136.835 21.7145C132.959 13.1732 122.898 9.39285 114.363 13.271C105.828 17.1491 102.05 27.2171 105.925 35.7585C109.801 44.2999 119.862 48.0802 128.397 44.202Z" fill="#F3962F"/>
<path d="M120.969 22.8069C121.037 26.7459 121.101 30.6848 121.17 34.6238C121.193 36.0906 123.476 36.0952 123.453 34.6238C123.385 30.6848 123.321 26.7459 123.252 22.8069C123.229 21.3401 120.942 21.3355 120.969 22.8069Z" fill="white"/>
<path d="M115.892 29.9665C120.102 29.8934 124.312 29.8249 128.527 29.7517C129.993 29.7289 129.998 27.4441 128.527 27.467C124.317 27.5401 120.107 27.6086 115.892 27.6817C114.426 27.7046 114.422 29.9894 115.892 29.9665Z" fill="white"/>
</g>
<defs>
<clipPath id="clip0_1398_11510">
<rect width="145" height="125" fill="white" transform="translate(0.5)"/>
</clipPath>
</defs>
</svg>
