<svg width="16" height="16" viewBox="0 0 16 16" fill="none" xmlns="http://www.w3.org/2000/svg">
<rect x="1" y="2" width="14" height="12" fill="#F3962F"/>
<path fill-rule="evenodd" clip-rule="evenodd" d="M14 0H2C0.9 0 0 0.9 0 2V14C0 15.1 0.9 16 2 16H14C15.1 16 16 15.1 16 14V2C16 0.9 15.1 0 14 0ZM5.5 7.5C5.5 8.33 4.83 9 4 9H3V10.25C3 10.66 2.66 11 2.25 11C1.84 11 1.5 10.66 1.5 10.25V6C1.5 5.45 1.95 5 2.5 5H4C4.83 5 5.5 5.67 5.5 6.5V7.5ZM10.5 9.5C10.5 10.33 9.83 11 9 11H7C6.72 11 6.5 10.78 6.5 10.5V5.5C6.5 5.22 6.72 5 7 5H9C9.83 5 10.5 5.67 10.5 6.5V9.5ZM14.5 5.75C14.5 6.16 14.16 6.5 13.75 6.5H13V7.5H13.75C14.16 7.5 14.5 7.84 14.5 8.25C14.5 8.66 14.16 9 13.75 9H13V10.25C13 10.66 12.66 11 12.25 11C11.84 11 11.5 10.66 11.5 10.25V6C11.5 5.45 11.95 5 12.5 5H13.75C14.16 5 14.5 5.34 14.5 5.75ZM3 7.5H4V6.5H3V7.5ZM8 9.5H9V6.5H8V9.5Z" fill="#1B4CA1"/>
</svg>
