<svg width="40" height="40" viewBox="0 0 40 40" fill="none" xmlns="http://www.w3.org/2000/svg">
<path d="M8.33398 3.3335V36.6668H28.1673L36.6673 28.3335V3.3335H8.33398Z" fill="#EFEEEE"/>
<path d="M28.334 28.3335V36.6668L36.6673 28.3335H28.334Z" fill="#ABABAB"/>
<path d="M20 36.6668H28.3333V28.3335L20 36.6668Z" fill="#DEDEDD"/>
<path d="M3.33398 10V25H30.0007V10H3.33398Z" fill="#CB5641"/>
<path d="M8.01611 21.5024V18.5402H9.10417C10.0232 18.5402 10.7524 18.2877 11.2917 17.7826C11.8309 17.2775 12.1006 16.628 12.1006 15.8343C12.1006 15.0406 11.8423 14.4253 11.3258 13.9886C10.8094 13.5519 10.0821 13.3335 9.14404 13.3335H6.66602V21.5024H8.01611ZM8.89339 17.4351H8.01611V14.45H9.00163C10.1182 14.45 10.6764 14.9304 10.6764 15.8913C10.6764 16.3812 10.5245 16.761 10.2207 17.0306C9.91688 17.3002 9.47445 17.4351 8.89339 17.4351ZM15.5798 21.5024C16.9849 21.5024 18.1053 21.1198 18.9408 20.3546C19.7763 19.5893 20.194 18.5763 20.194 17.3154C20.194 14.6608 18.6882 13.3335 15.6766 13.3335H13.3182V21.5024H15.5798ZM15.7507 20.3574H14.6683V14.4842H15.8019C17.7805 14.4842 18.7699 15.4393 18.7699 17.3496C18.7699 18.3066 18.505 19.0472 17.9752 19.5713C17.4454 20.0954 16.7039 20.3574 15.7507 20.3574ZM22.8757 21.5024V18.0845H25.6898V16.9395H22.8757V14.4842H25.929V13.3335H21.5199V21.5024H22.8757Z" fill="white"/>
</svg>
