<svg width="28" height="28" viewBox="0 0 28 28" fill="none" xmlns="http://www.w3.org/2000/svg">
<path fill-rule="evenodd" clip-rule="evenodd" d="M23.9993 0.666016H3.99935C2.16602 0.666016 0.666016 2.16602 0.666016 3.99935V23.9993C0.666016 25.8327 2.16602 27.3327 3.99935 27.3327H23.9993C25.8327 27.3327 27.3327 25.8327 27.3327 23.9993V3.99935C27.3327 2.16602 25.8327 0.666016 23.9993 0.666016ZM9.83268 13.166C9.83268 14.5493 8.71602 15.666 7.33268 15.666H5.66602V17.7493C5.66602 18.4327 5.09935 18.9993 4.41602 18.9993C3.73268 18.9993 3.16602 18.4327 3.16602 17.7493V10.666C3.16602 9.74935 3.91602 8.99935 4.83268 8.99935H7.33268C8.71602 8.99935 9.83268 10.116 9.83268 11.4993V13.166ZM18.166 16.4993C18.166 17.8827 17.0493 18.9993 15.666 18.9993H12.3327C11.866 18.9993 11.4993 18.6327 11.4993 18.166V9.83268C11.4993 9.36602 11.866 8.99935 12.3327 8.99935H15.666C17.0493 8.99935 18.166 10.116 18.166 11.4993V16.4993ZM24.8327 10.2493C24.8327 10.9327 24.266 11.4993 23.5827 11.4993H22.3327V13.166H23.5827C24.266 13.166 24.8327 13.7327 24.8327 14.416C24.8327 15.0993 24.266 15.666 23.5827 15.666H22.3327V17.7493C22.3327 18.4327 21.766 18.9993 21.0827 18.9993C20.3993 18.9993 19.8327 18.4327 19.8327 17.7493V10.666C19.8327 9.74935 20.5827 8.99935 21.4993 8.99935H23.5827C24.266 8.99935 24.8327 9.56602 24.8327 10.2493ZM5.66602 13.166H7.33268V11.4993H5.66602V13.166ZM13.9993 16.4993H15.666V11.4993H13.9993V16.4993Z" fill="#1B4CA1"/>
</svg>
