
<svg width="18" height="18" viewBox="0 0 18 18" fill="none" xmlns="http://www.w3.org/2000/svg">
<path d="M12.9772 11.4713H12.1872L11.9072 11.2013C13.1072 9.80133 13.7272 7.89133 13.3872 5.86133C12.9172 3.08133 10.5972 0.861329 7.79719 0.521329C3.56719 0.00132874 0.00718811 3.56133 0.527188 7.79133C0.867188 10.5913 3.08719 12.9113 5.86719 13.3813C7.89719 13.7213 9.80719 13.1013 11.2072 11.9013L11.4772 12.1813V12.9713L15.7272 17.2213C16.1372 17.6313 16.8072 17.6313 17.2172 17.2213C17.6272 16.8113 17.6272 16.1413 17.2172 15.7313L12.9772 11.4713ZM6.97719 11.4713C4.48719 11.4713 2.47719 9.46133 2.47719 6.97133C2.47719 4.48133 4.48719 2.47133 6.97719 2.47133C9.46719 2.47133 11.4772 4.48133 11.4772 6.97133C11.4772 9.46133 9.46719 11.4713 6.97719 11.4713Z" fill="black" fill-opacity="0.87"/>
</svg>
