<svg width="163" height="85" viewBox="0 0 163 85" fill="none" xmlns="http://www.w3.org/2000/svg">
<path fill-rule="evenodd" clip-rule="evenodd" d="M34.713 69.2965H103.384C103.773 69.2965 104.152 69.2543 104.516 69.1751C104.881 69.2543 105.26 69.2965 105.648 69.2965H144.889C147.806 69.2965 150.171 66.9328 150.171 64.0169C150.171 61.101 147.806 58.7372 144.889 58.7372H140.361C137.444 58.7372 135.079 56.3735 135.079 53.4576C135.079 50.5417 137.444 48.1779 140.361 48.1779H154.699C157.616 48.1779 159.981 45.8141 159.981 42.8983C159.981 39.9824 157.616 37.6186 154.699 37.6186H138.097C141.015 37.6186 143.38 35.2548 143.38 32.339C143.38 29.4231 141.015 27.0593 138.097 27.0593H89.8009C92.7183 27.0593 95.0833 24.6955 95.0833 21.7797C95.0833 18.8638 92.7183 16.5 89.8009 16.5H46.787C43.8696 16.5 41.5046 18.8638 41.5046 21.7797C41.5046 24.6955 43.8696 27.0593 46.787 27.0593H16.6019C13.6845 27.0593 11.3194 29.4231 11.3194 32.339C11.3194 35.2548 13.6845 37.6186 16.6019 37.6186H35.4676C38.385 37.6186 40.75 39.9824 40.75 42.8983C40.75 45.8141 38.385 48.1779 35.4676 48.1779H5.28241C2.36501 48.1779 0 50.5417 0 53.4576C0 56.3735 2.36501 58.7372 5.28241 58.7372H34.713C31.7956 58.7372 29.4306 61.101 29.4306 64.0169C29.4306 66.9328 31.7956 69.2965 34.713 69.2965ZM157.718 69.2965C160.635 69.2965 163 66.9328 163 64.0169C163 61.101 160.635 58.7372 157.718 58.7372C154.8 58.7372 152.435 61.101 152.435 64.0169C152.435 66.9328 154.8 69.2965 157.718 69.2965Z" fill="#DDE8FB"/>
<g clip-path="url(#clip0_1682_154562)">
<path d="M40.7885 10.9166L41.5371 75.0078L121.515 73.4349L120.767 9.34368L40.7885 10.9166Z" fill="#EBEBEB"/>
<path d="M121.12 9.084C121.12 9.084 120.984 9.09133 120.735 9.09703C120.474 9.1072 120.101 9.11576 119.616 9.12268C118.622 9.14548 117.155 9.17074 115.257 9.19749C111.448 9.25547 105.87 9.34983 98.8121 9.47392C84.6759 9.70161 64.5965 10.0153 40.7253 10.3949L40.8681 10.2449C41.005 29.5917 41.1643 51.7676 41.339 75.2301L41.1874 75.0743C70.9486 74.656 98.6168 74.2648 121.573 73.9355L121.438 74.0685C121.331 54.4862 121.245 38.2528 121.172 26.9027C121.148 21.2232 121.134 16.7759 121.108 13.7373C121.11 12.2198 121.097 11.059 121.101 10.2708C121.106 9.48258 121.104 9.076 121.104 9.076C121.104 9.076 121.114 9.46562 121.122 10.2493C121.129 11.0331 121.143 12.1939 121.161 13.69C121.187 16.7286 121.238 21.1625 121.287 26.833C121.381 38.2036 121.517 54.461 121.679 74.0798L121.68 74.2055L121.556 74.2083C98.6046 74.5501 70.945 74.9663 41.1758 75.4015L41.0224 75.4008L41.0242 75.2457C40.8619 51.7788 40.715 29.5984 40.5904 10.2471L40.5841 10.1089L40.7208 10.1016C64.6261 9.77984 84.7395 9.52409 98.8887 9.33382C105.947 9.25164 111.505 9.17871 115.305 9.13768C117.191 9.1154 118.65 9.1071 119.632 9.08878C120.117 9.08185 120.482 9.09026 120.743 9.08008C120.992 9.07438 121.108 9.08848 121.108 9.08848L121.12 9.084Z" fill="#1B4CA1"/>
<path d="M43.5784 13.7183L43.7695 70.8779L118.621 70.6196L118.43 13.4599L43.5784 13.7183Z" fill="#7FAEFF"/>
<path d="M43.7617 70.8716L69.7821 35.2519L86.0547 57.421L97.0064 45.5076L118.626 70.6061L43.7617 70.8716Z" fill="#E8505B"/>
<path d="M92.8417 30.8179C92.8596 34.1277 90.2221 36.8202 86.9721 36.8215C83.7139 36.8396 81.0635 34.1603 81.0623 30.8586C81.0444 27.5488 83.6819 24.8563 86.9319 24.855C90.1901 24.8369 92.8405 27.5162 92.8417 30.8179Z" fill="#E8505B"/>
<path d="M43.8338 71.1385L69.7091 35.5157L86.0411 57.3363L96.9422 45.3976L118.626 70.067L43.8338 71.1385Z" fill="#1B4CA1"/>
<path d="M92.8336 30.7542C92.8629 34.0467 90.2392 36.7539 86.9946 36.7906C83.7421 36.8442 81.0869 34.2077 81.0743 30.9232C81.045 27.6308 83.6688 24.9236 86.9133 24.8869C90.1658 24.8333 92.821 27.4698 92.8336 30.7542Z" fill="#1B4CA1"/>
</g>
<defs>
<clipPath id="clip0_1682_154562">
<rect width="84" height="68" fill="white" transform="translate(39 8.5)"/>
</clipPath>
</defs>
</svg>
