<svg width="18" height="14" viewBox="0 0 18 14" fill="none" xmlns="http://www.w3.org/2000/svg">
<path d="M17 0.5H1C0.447715 0.5 0 0.947715 0 1.5V12.5C0 13.0523 0.447715 13.5 1 13.5H17C17.5523 13.5 18 13.0523 18 12.5V1.5C18 0.947715 17.5523 0.5 17 0.5Z" fill="#1B4CA1"/>
<path fill-rule="evenodd" clip-rule="evenodd" d="M7.04877 4.43514V9.49091C7.04877 9.76705 7.27262 9.99091 7.54877 9.99091C7.6346 9.99091 7.71899 9.96881 7.79381 9.92675L12.234 7.4304C12.4747 7.29507 12.5601 6.99023 12.4248 6.74952C12.3807 6.67122 12.3164 6.60623 12.2386 6.56137L7.79847 4.00196C7.55922 3.86405 7.25349 3.9462 7.11558 4.18544C7.07181 4.26138 7.04877 4.34749 7.04877 4.43514Z" fill="#F3962F"/>
</svg>
