<svg width="161" height="85" viewBox="0 0 161 85" fill="none" xmlns="http://www.w3.org/2000/svg">
<path fill-rule="evenodd" clip-rule="evenodd" d="M34.287 67.8999H102.116C102.5 67.8999 102.874 67.8586 103.234 67.7813C103.594 67.8586 103.968 67.8999 104.352 67.8999H143.111C145.993 67.8999 148.329 65.5905 148.329 62.7416C148.329 59.8928 145.993 57.5834 143.111 57.5834H138.639C135.757 57.5834 133.421 55.274 133.421 52.4251C133.421 49.5763 135.757 47.2669 138.639 47.2669H152.801C155.683 47.2669 158.019 44.9575 158.019 42.1086C158.019 39.2598 155.683 36.9504 152.801 36.9504H136.403C139.284 36.9504 141.62 34.641 141.62 31.7921C141.62 28.9433 139.284 26.6339 136.403 26.6339H88.6991C91.5807 26.6339 93.9167 24.3245 93.9167 21.4756C93.9167 18.6268 91.5807 16.3174 88.6991 16.3174H46.213C43.3314 16.3174 40.9954 18.6268 40.9954 21.4756C40.9954 24.3245 43.3314 26.6339 46.213 26.6339H16.3981C13.5165 26.6339 11.1806 28.9433 11.1806 31.7921C11.1806 34.641 13.5165 36.9504 16.3981 36.9504H35.0324C37.914 36.9504 40.25 39.2598 40.25 42.1086C40.25 44.9575 37.914 47.2669 35.0324 47.2669H5.21759C2.33599 47.2669 0 49.5763 0 52.4251C0 55.274 2.33599 57.5834 5.21759 57.5834H34.287C31.4054 57.5834 29.0694 59.8928 29.0694 62.7416C29.0694 65.5905 31.4054 67.8999 34.287 67.8999ZM155.782 67.8999C158.664 67.8999 161 65.5905 161 62.7416C161 59.8928 158.664 57.5834 155.782 57.5834C152.901 57.5834 150.565 59.8928 150.565 62.7416C150.565 65.5905 152.901 67.8999 155.782 67.8999Z" fill="#DDE8FB"/>
<g clip-path="url(#clip0_2575_10147)">
<path d="M37.1717 42.0039L36.7344 42.0547L37.5115 48.6583L37.9488 48.6074L37.1717 42.0039Z" fill="#1B4CA1"/>
<path d="M38.2342 51.0644L37.7969 51.1152L38.1889 54.4468L38.6262 54.396L38.2342 51.0644Z" fill="#1B4CA1"/>
<path d="M67.2722 28.5378L66.7542 27.0966C66.0204 25.0505 63.9614 23.7809 61.7902 24.0339L41.1617 26.4317C38.589 26.732 36.7459 29.0483 37.0481 31.6047L42.9185 81.4905C43.1257 83.2449 44.7228 84.4974 46.4882 84.2958L120.296 75.717C122.061 75.5111 123.322 73.924 123.119 72.1696L118.043 29.044C117.836 27.2896 116.239 26.0371 114.473 26.2387L71.6146 31.2187C69.7153 31.4375 67.9153 30.3265 67.2722 28.5378Z" fill="#1B4CA1"/>
<path d="M69.3367 6.84573L46.0156 11.4639L52.4184 43.3927L75.7395 38.7745L69.3367 6.84573Z" fill="#1B4CA1"/>
<g filter="url(#filter0_d_2575_10147)">
<path d="M69.3367 6.84573L46.0156 11.4639L52.4184 43.3927L75.7395 38.7745L69.3367 6.84573Z" fill="white"/>
</g>
<g opacity="0.4">
<path d="M66.2173 14.5287L51.852 17.3725C51.157 17.5098 50.4793 17.0594 50.3412 16.3688C50.2031 15.6782 50.6563 15.0048 51.3513 14.8675L65.7166 12.0237C66.4115 11.8864 67.0892 12.3368 67.2273 13.0274C67.3655 13.718 66.9122 14.3914 66.2173 14.5287Z" fill="#7FAEFF"/>
<path d="M67.2798 19.8089L52.9145 22.6528C52.2195 22.7901 51.5418 22.3397 51.4037 21.6491C51.2656 20.9585 51.7188 20.2851 52.4138 20.1478L66.7791 17.3039C67.474 17.1667 68.1517 17.6171 68.2898 18.3076C68.428 18.9982 67.9747 19.6717 67.2798 19.8089Z" fill="#7FAEFF"/>
<path d="M68.3364 25.0853L53.9711 27.9292C53.2762 28.0664 52.5985 27.6161 52.4603 26.9255C52.3222 26.2349 52.7754 25.5614 53.4704 25.4242L67.8357 22.5803C68.5307 22.443 69.2083 22.8934 69.3465 23.584C69.4846 24.2746 69.0314 24.948 68.3364 25.0853Z" fill="#7FAEFF"/>
<path d="M69.395 30.3656L55.0297 33.2095C54.3347 33.3467 53.6571 32.8963 53.5189 32.2057C53.3808 31.5151 53.834 30.8417 54.529 30.7044L68.8943 27.8606C69.5892 27.7233 70.2669 28.1737 70.4051 28.8643C70.5432 29.5549 70.09 30.2283 69.395 30.3656Z" fill="#1B4CA1"/>
<path d="M66.5275 36.4222L56.0902 38.4897C55.3953 38.627 54.7176 38.1766 54.5795 37.486C54.4413 36.7954 54.8946 36.122 55.5895 35.9847L66.0268 33.9172C66.7218 33.7799 67.3995 34.2303 67.5376 34.9209C67.6757 35.6115 67.2225 36.285 66.5275 36.4222Z" fill="#1B4CA1"/>
</g>
<path d="M102.564 0.688684L79.0039 3.8916L83.4446 36.1477L107.005 32.9448L102.564 0.688684Z" fill="#1B4CA1"/>
<g filter="url(#filter1_d_2575_10147)">
<path d="M102.564 0.688684L79.0039 3.8916L83.4446 36.1477L107.005 32.9448L102.564 0.688684Z" fill="white"/>
</g>
<g opacity="0.4">
<path d="M98.9859 8.16681L84.4738 10.1399C83.7702 10.2343 83.1227 9.74531 83.0234 9.04614C82.9285 8.34696 83.4206 7.70355 84.1242 7.6049L98.6362 5.63177C99.3398 5.5374 99.9873 6.0264 100.087 6.72557C100.182 7.42474 99.6894 8.06815 98.9859 8.16681Z" fill="#7FAEFF"/>
<path d="M99.7202 13.5027L85.2082 15.4759C84.5046 15.5702 83.8571 15.0812 83.7578 14.3821C83.6629 13.6829 84.1549 13.0395 84.8585 12.9408L99.3706 10.9677C100.074 10.8733 100.722 11.3623 100.821 12.0615C100.916 12.7607 100.424 13.4041 99.7202 13.5027Z" fill="#7FAEFF"/>
<path d="M89.9435 20.2625L85.9464 20.8073C85.2429 20.9016 84.5954 20.4126 84.4961 19.7135C84.4011 19.0143 84.8932 18.3709 85.5968 18.2722L89.5939 17.7275C90.2975 17.6331 90.9449 18.1221 91.0442 18.8213C91.1392 19.5204 90.6471 20.1639 89.9435 20.2625Z" fill="#7FAEFF"/>
<path d="M97.6955 19.2117L93.6984 19.7565C92.9948 19.8509 92.3473 19.3619 92.2481 18.6627C92.1531 17.9635 92.6452 17.3201 93.3488 17.2214L97.3458 16.6767C98.0494 16.5823 98.6969 17.0713 98.7962 17.7705C98.8911 18.4697 98.3991 19.1131 97.6955 19.2117Z" fill="#1B4CA1"/>
<path d="M101.191 24.1658L86.6789 26.139C85.9753 26.2333 85.3278 25.7443 85.2285 25.0452C85.1336 24.346 85.6256 23.7026 86.3292 23.6039L100.841 21.6308C101.545 21.5364 102.192 22.0254 102.292 22.7246C102.387 23.4238 101.895 24.0672 101.191 24.1658Z" fill="#7FAEFF"/>
<path d="M97.9584 30.0428L87.4132 31.4754C86.7097 31.5698 86.0622 31.0808 85.9629 30.3816C85.8679 29.6825 86.36 29.0391 87.0636 28.9404L97.6088 27.5077C98.3124 27.4134 98.9599 27.9024 99.0592 28.6015C99.1541 29.3007 98.662 29.9441 97.9584 30.0428Z" fill="#7FAEFF"/>
</g>
<path d="M80.3344 5.39987L56.6445 7.45117L59.4886 39.8848L83.1784 37.8335L80.3344 5.39987Z" fill="#1B4CA1"/>
<g filter="url(#filter2_d_2575_10147)">
<path d="M80.3344 5.39987L56.6445 7.45117L59.4886 39.8848L83.1784 37.8335L80.3344 5.39987Z" fill="white"/>
</g>
<g opacity="0.4">
<path d="M76.3876 12.6972L61.7935 13.9625C61.0856 14.0226 60.464 13.5036 60.3993 12.8001C60.3389 12.0966 60.8612 11.479 61.5691 11.4146L76.1631 10.1493C76.871 10.0892 77.4926 10.6082 77.5574 11.3117C77.6178 12.0151 77.0955 12.6328 76.3876 12.6972Z" fill="#7FAEFF"/>
<path d="M76.8583 18.0585L62.2642 19.3239C61.5563 19.3839 60.9347 18.8649 60.87 18.1614C60.8096 17.458 61.3319 16.8403 62.0398 16.776L76.6338 15.5106C77.3417 15.4505 77.9633 15.9696 78.0281 16.673C78.0885 17.3765 77.5662 17.9942 76.8583 18.0585Z" fill="#7FAEFF"/>
<path d="M77.329 23.4247L62.7349 24.6901C62.027 24.7501 61.4054 24.2311 61.3407 23.5276C61.2803 22.8242 61.8026 22.2065 62.5105 22.1422L77.1045 20.8768C77.8124 20.8167 78.434 21.3358 78.4988 22.0392C78.5592 22.7427 78.0369 23.3604 77.329 23.4247Z" fill="#7FAEFF"/>
<path d="M77.7997 28.787L63.2056 30.0524C62.4977 30.1124 61.8761 29.5934 61.8114 28.89C61.751 28.1865 62.2733 27.5688 62.9812 27.5045L77.5752 26.2391C78.2832 26.1791 78.9047 26.6981 78.9695 27.4015C79.0299 28.105 78.5076 28.7227 77.7997 28.787Z" fill="#7FAEFF"/>
<path d="M74.282 34.496L63.6763 35.4139C62.9684 35.474 62.3468 34.955 62.2821 34.2515C62.2217 33.548 62.744 32.9304 63.4519 32.866L74.0575 31.9481C74.7654 31.888 75.387 32.4071 75.4517 33.1105C75.5122 33.814 74.9899 34.4317 74.282 34.496Z" fill="#1B4CA1"/>
</g>
<path d="M109.205 3.82015L85.4531 4.95801L87.0307 37.4768L110.783 36.339L109.205 3.82015Z" fill="#1B4CA1"/>
<g filter="url(#filter3_d_2575_10147)">
<path d="M109.205 3.82015L85.4531 4.95801L87.0307 37.4768L110.783 36.339L109.205 3.82015Z" fill="white"/>
</g>
<g opacity="0.4">
<path d="M104.981 10.96L90.3483 11.6634C89.6404 11.6978 89.0361 11.153 89.0015 10.4495C88.967 9.74608 89.5152 9.14556 90.2231 9.11125L104.856 8.40779C105.564 8.37347 106.168 8.91823 106.203 9.62169C106.237 10.3251 105.689 10.9257 104.981 10.96Z" fill="#7FAEFF"/>
<path d="M105.241 16.335L90.6081 17.0384C89.9002 17.0728 89.2958 16.528 89.2613 15.8245C89.2268 15.1211 89.775 14.5206 90.4829 14.4862L105.116 13.7828C105.824 13.7485 106.428 14.2932 106.463 14.9967C106.497 15.7001 105.949 16.3007 105.241 16.335Z" fill="#7FAEFF"/>
<path d="M94.9014 22.2197L90.8698 22.4128C90.1619 22.4471 89.5576 21.9023 89.523 21.1989C89.4885 20.4954 90.0367 19.8949 90.7446 19.8606L94.7762 19.6676C95.4841 19.6332 96.0884 20.178 96.123 20.8815C96.1575 21.5849 95.6093 22.1854 94.9014 22.2197Z" fill="#7FAEFF"/>
<path d="M102.72 21.8467L98.6881 22.0397C97.9802 22.074 97.3759 21.5293 97.3414 20.8258C97.3069 20.1224 97.8551 19.5218 98.563 19.4875L102.595 19.2945C103.302 19.2602 103.907 19.8049 103.941 20.5084C103.976 21.2119 103.428 21.8124 102.72 21.8467Z" fill="#7FAEFF"/>
<path d="M105.762 27.0879L91.1295 27.7914C90.4216 27.8257 89.8173 27.2809 89.7828 26.5775C89.7483 25.874 90.2965 25.2735 91.0044 25.2392L105.637 24.5357C106.345 24.5014 106.95 25.0462 106.984 25.7496C107.019 26.4531 106.47 27.0536 105.762 27.0879Z" fill="#7FAEFF"/>
<path d="M102.025 32.6563L91.3932 33.1667C90.6853 33.201 90.081 32.6563 90.0465 31.9528C90.0119 31.2493 90.5601 30.6488 91.268 30.6145L101.9 30.1041C102.607 30.0698 103.212 30.6145 103.246 31.318C103.281 32.0214 102.733 32.622 102.025 32.6563Z" fill="#1B4CA1"/>
</g>
<path d="M73.858 29.4638L73.4782 28.0526C72.9429 26.0495 71.0221 24.8098 68.8552 25.0629L48.2267 27.4607C45.654 27.7609 43.6167 30.03 43.6771 32.5351L44.8469 81.3656C44.89 83.0814 46.3533 84.3082 48.1188 84.1023L121.927 75.5234C123.692 75.3176 125.091 73.7605 125.047 72.0447L124.037 29.8327C123.994 28.117 122.531 26.8902 120.765 27.0961L77.9069 32.0761C76.0077 32.2948 74.3329 31.2139 73.8624 29.4638H73.858Z" fill="#1B4CA1"/>
<path opacity="0.3" d="M73.858 29.4638L73.4782 28.0526C72.9429 26.0495 71.0221 24.8098 68.8552 25.0629L48.2267 27.4607C45.654 27.7609 43.6167 30.03 43.6771 32.5351L44.8469 81.3656C44.89 83.0814 46.3533 84.3082 48.1188 84.1023L121.927 75.5234C123.692 75.3176 125.091 73.7605 125.047 72.0447L124.037 29.8327C123.994 28.117 122.531 26.8902 120.765 27.0961L77.9069 32.0761C76.0077 32.2948 74.3329 31.2139 73.8624 29.4638H73.858Z" fill="#7FAEFF"/>
</g>
<defs>
<filter id="filter0_d_2575_10147" x="42.0156" y="6.8457" width="37.7246" height="44.5469" filterUnits="userSpaceOnUse" color-interpolation-filters="sRGB">
<feFlood flood-opacity="0" result="BackgroundImageFix"/>
<feColorMatrix in="SourceAlpha" type="matrix" values="0 0 0 0 0 0 0 0 0 0 0 0 0 0 0 0 0 0 127 0" result="hardAlpha"/>
<feOffset dy="4"/>
<feGaussianBlur stdDeviation="2"/>
<feComposite in2="hardAlpha" operator="out"/>
<feColorMatrix type="matrix" values="0 0 0 0 0 0 0 0 0 0 0 0 0 0 0 0 0 0 0.04 0"/>
<feBlend mode="normal" in2="BackgroundImageFix" result="effect1_dropShadow_2575_10147"/>
<feBlend mode="normal" in="SourceGraphic" in2="effect1_dropShadow_2575_10147" result="shape"/>
</filter>
<filter id="filter1_d_2575_10147" x="75.0039" y="0.688477" width="36" height="43.459" filterUnits="userSpaceOnUse" color-interpolation-filters="sRGB">
<feFlood flood-opacity="0" result="BackgroundImageFix"/>
<feColorMatrix in="SourceAlpha" type="matrix" values="0 0 0 0 0 0 0 0 0 0 0 0 0 0 0 0 0 0 127 0" result="hardAlpha"/>
<feOffset dy="4"/>
<feGaussianBlur stdDeviation="2"/>
<feComposite in2="hardAlpha" operator="out"/>
<feColorMatrix type="matrix" values="0 0 0 0 0 0 0 0 0 0 0 0 0 0 0 0 0 0 0.04 0"/>
<feBlend mode="normal" in2="BackgroundImageFix" result="effect1_dropShadow_2575_10147"/>
<feBlend mode="normal" in="SourceGraphic" in2="effect1_dropShadow_2575_10147" result="shape"/>
</filter>
<filter id="filter2_d_2575_10147" x="52.6445" y="5.39941" width="34.5332" height="42.4854" filterUnits="userSpaceOnUse" color-interpolation-filters="sRGB">
<feFlood flood-opacity="0" result="BackgroundImageFix"/>
<feColorMatrix in="SourceAlpha" type="matrix" values="0 0 0 0 0 0 0 0 0 0 0 0 0 0 0 0 0 0 127 0" result="hardAlpha"/>
<feOffset dy="4"/>
<feGaussianBlur stdDeviation="2"/>
<feComposite in2="hardAlpha" operator="out"/>
<feColorMatrix type="matrix" values="0 0 0 0 0 0 0 0 0 0 0 0 0 0 0 0 0 0 0.04 0"/>
<feBlend mode="normal" in2="BackgroundImageFix" result="effect1_dropShadow_2575_10147"/>
<feBlend mode="normal" in="SourceGraphic" in2="effect1_dropShadow_2575_10147" result="shape"/>
</filter>
<filter id="filter3_d_2575_10147" x="81.4531" y="3.82031" width="33.3301" height="41.6562" filterUnits="userSpaceOnUse" color-interpolation-filters="sRGB">
<feFlood flood-opacity="0" result="BackgroundImageFix"/>
<feColorMatrix in="SourceAlpha" type="matrix" values="0 0 0 0 0 0 0 0 0 0 0 0 0 0 0 0 0 0 127 0" result="hardAlpha"/>
<feOffset dy="4"/>
<feGaussianBlur stdDeviation="2"/>
<feComposite in2="hardAlpha" operator="out"/>
<feColorMatrix type="matrix" values="0 0 0 0 0 0 0 0 0 0 0 0 0 0 0 0 0 0 0.04 0"/>
<feBlend mode="normal" in2="BackgroundImageFix" result="effect1_dropShadow_2575_10147"/>
<feBlend mode="normal" in="SourceGraphic" in2="effect1_dropShadow_2575_10147" result="shape"/>
</filter>
<clipPath id="clip0_2575_10147">
<rect width="88.3155" height="83.6262" fill="white" transform="translate(36.7324 0.686523)"/>
</clipPath>
</defs>
</svg>
