<svg width="183" height="178" viewBox="0 0 183 178" fill="none" xmlns="http://www.w3.org/2000/svg">
<g clip-path="url(#clip0_2805_33255)">
<path d="M160.008 145.995C160.034 141.606 162.898 138.805 162.898 138.805C163.772 142.413 160.008 145.995 160.008 145.995Z" fill="#EBEBEB"/>
<path d="M164.203 143.958C168.231 142.234 171.939 143.745 171.939 143.745C168.985 145.986 164.203 143.958 164.203 143.958Z" fill="#EBEBEB"/>
<path d="M164.68 141.619C163.981 138.229 165.733 135.595 165.733 135.595C166.999 138.238 164.68 141.619 164.68 141.619Z" fill="#EBEBEB"/>
<path d="M148.453 133.183C154.586 134.818 157.877 140.159 157.877 140.159C152.634 140.159 148.453 133.183 148.453 133.183Z" fill="#EBEBEB"/>
<path d="M158.252 135.702C157.933 129.081 164.394 121.584 164.394 121.584C163.418 129.806 158.252 135.702 158.252 135.702Z" fill="#EBEBEB"/>
<path d="M158.218 116.841C158.491 122.211 155.895 126.327 155.895 126.327C154.983 122.066 158.218 116.841 158.218 116.841Z" fill="#EBEBEB"/>
<path d="M155.729 130.297C150.895 129.776 148.265 124.961 148.265 124.961C154.109 126.6 155.729 130.297 155.729 130.297Z" fill="#EBEBEB"/>
<path d="M145.303 150.541C148.998 148.185 152.903 149.077 152.903 149.077C150.349 151.766 145.303 150.541 145.303 150.541Z" fill="#EBEBEB"/>
<path d="M157.826 152.714C156.91 155.246 154.578 156.381 154.578 156.381C154.783 154.149 157.826 152.714 157.826 152.714Z" fill="#EBEBEB"/>
<path d="M157.208 152.001C154.459 153.696 151.428 153.034 151.428 153.034C153.291 151.092 157.208 152.001 157.208 152.001Z" fill="#EBEBEB"/>
<path d="M159.676 160.915C159.676 160.915 159.668 160.881 159.668 160.817C159.668 160.74 159.668 160.642 159.663 160.527C159.663 160.253 159.663 159.886 159.663 159.417C159.668 158.934 159.668 158.345 159.655 157.662C159.642 156.979 159.642 156.198 159.608 155.34C159.565 153.619 159.446 151.57 159.267 149.303C159.071 147.036 158.794 144.547 158.419 141.948C157.656 136.748 156.611 132.099 155.772 128.76C155.35 127.091 154.992 125.742 154.732 124.816C154.608 124.363 154.514 124.009 154.442 123.744C154.412 123.633 154.391 123.539 154.374 123.462C154.361 123.398 154.352 123.364 154.357 123.364C154.357 123.364 154.374 123.394 154.395 123.454C154.421 123.526 154.45 123.616 154.484 123.727C154.565 123.987 154.676 124.342 154.813 124.786C155.098 125.708 155.478 127.048 155.921 128.718C156.799 132.052 157.869 136.701 158.632 141.913C159.011 144.518 159.28 147.011 159.467 149.286C159.633 151.562 159.74 153.611 159.761 155.335C159.787 156.198 159.778 156.979 159.778 157.662C159.778 158.345 159.77 158.939 159.753 159.417C159.736 159.882 159.723 160.253 159.714 160.527C159.71 160.642 159.702 160.736 159.697 160.817C159.693 160.881 159.689 160.915 159.685 160.915H159.676Z" fill="#E0E0E0"/>
<path d="M150.806 146.9C150.84 146.848 152.792 148.133 155.17 149.764C157.549 151.395 159.446 152.757 159.412 152.808C159.377 152.859 157.425 151.574 155.047 149.944C152.673 148.313 150.772 146.951 150.806 146.9Z" fill="#E0E0E0"/>
<path d="M159.412 147.604C159.412 147.604 159.51 147.476 159.71 147.275C159.949 147.045 160.239 146.763 160.58 146.434C161.364 145.7 162.37 144.752 163.487 143.706C164.603 142.66 165.609 141.713 166.394 140.978C166.739 140.654 167.033 140.381 167.276 140.15C167.485 139.958 167.608 139.856 167.617 139.864C167.625 139.873 167.527 139.996 167.336 140.21C167.144 140.423 166.858 140.722 166.504 141.089C165.788 141.819 164.778 142.801 163.64 143.869C162.502 144.932 161.458 145.879 160.69 146.554C160.307 146.891 159.996 147.16 159.774 147.344C159.552 147.527 159.429 147.621 159.416 147.608L159.412 147.604Z" fill="#E0E0E0"/>
<path d="M144.6 143.762C144.6 143.762 149.595 143.668 151.709 147.604C151.709 147.604 147.447 147.745 144.6 143.762Z" fill="#EBEBEB"/>
<path d="M151.424 141.751C151.424 141.751 155.49 144.658 154.842 149.081C154.842 149.081 151.339 146.648 151.424 141.751Z" fill="#EBEBEB"/>
<path d="M172.847 134.592C172.847 134.592 171.24 140.193 166.142 141.2C166.142 141.2 167.446 136.402 172.847 134.592Z" fill="#EBEBEB"/>
<path d="M149.203 113.771C149.203 113.771 155.575 117.934 154.872 124.709C154.872 124.709 149.386 121.23 149.203 113.771Z" fill="#EBEBEB"/>
<path d="M170.417 150.81C170.417 150.81 170.276 150.943 170.004 151.143C169.727 151.344 169.334 151.638 168.861 152.018C167.911 152.774 166.649 153.888 165.409 155.267C164.173 156.65 163.201 158.025 162.553 159.054C162.229 159.566 161.973 159.989 161.807 160.288C161.636 160.582 161.534 160.74 161.521 160.736C161.509 160.727 161.585 160.557 161.735 160.249C161.879 159.942 162.114 159.502 162.425 158.977C163.043 157.922 164.002 156.522 165.251 155.126C166.5 153.735 167.787 152.629 168.772 151.903C169.262 151.54 169.671 151.258 169.961 151.079C170.251 150.9 170.413 150.806 170.421 150.814L170.417 150.81Z" fill="#E0E0E0"/>
<path d="M164.872 154.968C164.058 150.656 166.334 147.356 166.334 147.356C167.02 152.104 164.872 154.968 164.872 154.968Z" fill="#EBEBEB"/>
<path d="M169.16 152.625C171.909 151.011 174.722 151.762 174.722 151.762C171.645 153.397 169.16 152.625 169.16 152.625Z" fill="#EBEBEB"/>
<path d="M150.384 161.44L152.775 177.176H166.671L169.893 161.666L150.384 161.44Z" fill="#EBEBEB"/>
<path d="M167.949 171.524C167.949 171.571 164.39 171.605 160 171.605C155.609 171.605 152.05 171.566 152.05 171.524C152.05 171.481 155.609 171.443 160 171.443C164.39 171.443 167.949 171.481 167.949 171.524Z" fill="#FAFAFA"/>
<path d="M168.004 170.751C168.004 170.798 164.42 170.832 160 170.832C155.579 170.832 151.995 170.794 151.995 170.751C151.995 170.708 155.579 170.67 160 170.67C164.42 170.67 168.004 170.708 168.004 170.751Z" fill="#FAFAFA"/>
<path d="M167.979 169.876C167.979 169.923 164.394 169.957 159.974 169.957C155.554 169.957 151.969 169.919 151.969 169.876C151.969 169.833 155.554 169.795 159.974 169.795C164.394 169.795 167.979 169.833 167.979 169.876Z" fill="#FAFAFA"/>
<path d="M154.373 176.28C154.33 176.288 154.139 175.4 153.947 174.299C153.755 173.197 153.636 172.296 153.683 172.288C153.725 172.279 153.917 173.167 154.109 174.269C154.301 175.37 154.42 176.271 154.373 176.28Z" fill="#FAFAFA"/>
<path d="M155.315 176.113C155.268 176.113 155.217 175.246 155.145 174.179C155.072 173.112 155.008 172.245 155.055 172.241C155.098 172.237 155.234 173.095 155.307 174.171C155.379 175.242 155.362 176.113 155.315 176.113Z" fill="#FAFAFA"/>
<path d="M157.038 176.113C156.995 176.122 156.803 175.238 156.675 174.132C156.543 173.027 156.526 172.121 156.569 172.121C156.616 172.121 156.705 173.014 156.837 174.115C156.965 175.217 157.08 176.109 157.038 176.117V176.113Z" fill="#FAFAFA"/>
<path d="M158.248 176.194C158.205 176.194 158.09 175.298 158.056 174.179C158.017 173.061 158.073 172.156 158.116 172.156C158.162 172.156 158.179 173.061 158.218 174.175C158.252 175.289 158.295 176.19 158.248 176.194Z" fill="#FAFAFA"/>
<path d="M160.388 176.113C160.341 176.113 160.277 175.259 160.243 174.201C160.208 173.142 160.213 172.284 160.26 172.284C160.307 172.284 160.37 173.138 160.405 174.196C160.439 175.255 160.434 176.113 160.388 176.113Z" fill="#FAFAFA"/>
<path d="M161.952 176.194C161.905 176.194 161.879 175.306 161.888 174.218C161.896 173.125 161.939 172.241 161.986 172.241C162.033 172.241 162.058 173.125 162.05 174.218C162.041 175.31 161.999 176.194 161.952 176.194Z" fill="#FAFAFA"/>
<path d="M163.418 175.985C163.371 175.981 163.427 175.054 163.537 173.919C163.648 172.783 163.772 171.861 163.819 171.865C163.866 171.87 163.81 172.796 163.699 173.932C163.589 175.067 163.465 175.989 163.418 175.985Z" fill="#FAFAFA"/>
<path d="M165.311 175.78C165.268 175.776 165.337 174.982 165.545 174.021C165.754 173.061 166.018 172.314 166.061 172.326C166.104 172.339 165.908 173.108 165.703 174.055C165.494 175.007 165.358 175.784 165.311 175.78Z" fill="#FAFAFA"/>
<path d="M148.79 158.319V161.265C148.79 161.905 149.31 162.426 149.949 162.426H170.068C170.707 162.426 171.227 161.905 171.227 161.265V158.319H148.794H148.79Z" fill="#EBEBEB"/>
<path d="M150.533 162.426L150.703 163.365L169.266 164.689L169.735 162.426H150.533Z" fill="#E0E0E0"/>
<path d="M161.995 31.2114C163.989 30.3747 165.409 28.3127 165.417 25.8878C165.43 22.7074 163.026 20.1203 160.051 20.1075C157.076 20.0947 154.65 22.6604 154.638 25.8409C154.629 28.2913 156.057 30.3747 158.073 31.2157C149.778 32.4665 150.153 41.4956 150.153 41.4956L169.769 41.5853C169.769 41.5853 170.217 32.458 161.995 31.2157V31.2114Z" fill="#EBEBEB"/>
<path d="M22.8127 83.7085L17.2247 81.9624C17.2247 81.9624 15.7626 86.6627 10.8608 85.2198C8.31614 84.4727 7.51906 82.4021 7.38266 80.9635C7.22495 79.2942 7.93678 77.6677 9.1942 76.5578C10.6306 75.2898 13.1498 74.5171 16.7089 76.3571L20.6389 63.7419L15.1148 62.0172L12.813 69.407C12.813 69.407 4.44156 68.9929 1.77753 77.5439C-0.771419 85.7278 5.96326 89.9158 9.10043 90.8977C11.5002 91.649 19.8503 93.6171 22.817 83.7128L22.8127 83.7085Z" fill="#F5F5F5"/>
<path d="M15.8622 59.394L21.4692 61.1464L23.1033 55.9015L17.4963 54.1491L15.8622 59.394Z" fill="#F5F5F5"/>
<path d="M35.9793 78.1671L38.7713 77.4286C38.7713 77.4286 38.1532 75.0806 40.5785 74.3932C41.8402 74.0389 42.714 74.6921 43.1488 75.2599C43.6518 75.9173 43.7796 76.7839 43.5452 77.578C43.2767 78.4873 42.4284 79.4692 40.4549 79.6357L42.1173 85.9454L44.8794 85.2154L43.9075 81.5184C43.9075 81.5184 47.5178 79.4906 46.3925 75.2172C45.3141 71.1274 41.4012 71.1445 39.8326 71.5586C38.6349 71.8745 34.6239 73.2449 35.9793 78.1671Z" fill="#EBEBEB"/>
<path d="M45.2611 86.5038L42.4585 87.2444L43.149 89.8656L45.9516 89.125L45.2611 86.5038Z" fill="#EBEBEB"/>
<path d="M9.25364 26.0031L12.0242 25.6787C12.0242 25.6787 11.7514 23.3478 14.1683 23.0233C15.4214 22.8568 16.1673 23.6039 16.5083 24.2016C16.9005 24.8974 16.9047 25.747 16.5723 26.4727C16.1929 27.3052 15.2424 28.1291 13.3371 28.0182L14.066 34.2767L16.8067 33.9565L16.3805 30.2893C16.3805 30.2893 20.1101 28.8464 19.6157 24.6029C19.1425 20.543 15.4001 20.0264 13.8443 20.2057C12.6551 20.3466 8.63558 21.1065 9.2579 25.9989L9.25364 26.0031Z" fill="#F5F5F5"/>
<path d="M16.9906 35.2429L14.209 35.5677L14.5121 38.1713L17.2937 37.8465L16.9906 35.2429Z" fill="#F5F5F5"/>
<path d="M140.461 109.451H35.0288V152.855H140.461V109.451Z" fill="#FAFAFA"/>
<path d="M140.456 152.855C140.456 152.855 140.452 152.59 140.448 152.082C140.448 151.574 140.443 150.819 140.439 149.832C140.435 147.856 140.426 144.944 140.418 141.192C140.409 133.7 140.392 122.856 140.375 109.451L140.452 109.528C113.535 109.536 76.2381 109.549 35.0287 109.562H35.0201L35.131 109.451C35.131 124.658 35.131 139.33 35.1267 152.855L35.0201 152.748C65.5905 152.77 91.9324 152.787 110.64 152.799C120.001 152.812 127.447 152.821 132.558 152.829C135.111 152.834 137.085 152.838 138.419 152.842C139.084 152.842 139.591 152.846 139.936 152.851C140.277 152.851 140.456 152.859 140.456 152.859C140.456 152.859 140.286 152.864 139.949 152.868C139.608 152.868 139.105 152.868 138.444 152.876C137.114 152.876 135.149 152.885 132.605 152.889C127.498 152.898 120.06 152.906 110.713 152.919C91.9921 152.932 65.6203 152.949 35.0244 152.97H34.9178V152.864C34.9178 139.339 34.9178 124.666 34.9136 109.46V109.349H35.0329C76.2423 109.361 113.539 109.374 140.456 109.383H140.533V109.46C140.516 122.886 140.499 133.742 140.49 141.247C140.482 144.991 140.473 147.894 140.469 149.871C140.469 150.853 140.461 151.6 140.461 152.108C140.461 152.612 140.452 152.864 140.452 152.864L140.456 152.855Z" fill="#263238"/>
<path d="M48.5791 129.055C52.7129 129.055 56.064 125.698 56.064 121.558C56.064 117.418 52.7129 114.062 48.5791 114.062C44.4453 114.062 41.0942 117.418 41.0942 121.558C41.0942 125.698 44.4453 129.055 48.5791 129.055Z" fill="#EBEBEB"/>
<path d="M93.0533 120.593C93.0533 120.653 85.5727 120.704 76.3444 120.704C67.1162 120.704 59.6313 120.653 59.6313 120.593C59.6313 120.534 67.112 120.482 76.3444 120.482C85.5769 120.482 93.0533 120.534 93.0533 120.593Z" fill="#263238"/>
<path d="M84.7884 125.234C84.7884 125.294 79.0767 125.345 72.0308 125.345C64.985 125.345 59.269 125.294 59.269 125.234C59.269 125.174 64.9807 125.123 72.0308 125.123C79.0809 125.123 84.7884 125.174 84.7884 125.234Z" fill="#E0E0E0"/>
<path d="M127.903 134.848C127.903 134.908 110.21 134.959 88.3903 134.959C66.5708 134.959 48.873 134.908 48.873 134.848C48.873 134.788 66.5622 134.737 88.3903 134.737C110.218 134.737 127.903 134.788 127.903 134.848Z" fill="#263238"/>
<path d="M127.903 140.193C127.903 140.253 110.21 140.304 88.3903 140.304C66.5708 140.304 48.873 140.253 48.873 140.193C48.873 140.133 66.5622 140.082 88.3903 140.082C110.218 140.082 127.903 140.133 127.903 140.193Z" fill="#263238"/>
<path d="M29.0401 167.737C28.1023 167.69 27.8253 166.367 28.1748 165.492C28.5243 164.621 29.2148 163.844 29.2234 162.905C29.2319 162.089 28.7161 161.346 28.665 160.535C28.5755 159.067 29.9906 157.871 30.0545 156.398C30.1014 155.254 29.3086 154.161 29.5004 153.03C29.705 151.818 30.971 151.019 31.2608 149.824C31.5677 148.552 30.6854 147.203 31.0264 145.939C31.3631 144.68 32.8464 143.753 32.6376 142.464C32.5694 142.037 32.3094 141.666 32.1943 141.247C31.93 140.287 32.45 139.284 33.0851 138.515C33.7202 137.747 34.496 137.064 34.8882 136.15C35.4892 134.741 35.0714 133.029 35.7833 131.672C36.3758 130.545 37.6929 129.781 37.8591 128.517C38.5283 129.657 37.8719 131.104 38.0253 132.415C38.1234 133.268 38.5667 134.041 38.8395 134.857C39.3936 136.522 39.2103 138.421 38.3407 139.95C37.7653 140.957 36.883 141.909 36.9299 143.07C36.9853 144.475 38.3876 145.495 38.6349 146.878C38.9886 148.859 36.883 150.639 37.1771 152.629C37.2538 153.141 37.4883 153.624 37.5309 154.14C37.6801 155.899 35.6895 157.141 35.3869 158.879C35.1652 160.16 35.9026 161.483 35.5957 162.742C35.3613 163.716 34.5216 164.587 34.7262 165.568C34.8157 165.995 35.0928 166.35 35.2633 166.751C35.5872 167.515 35.4636 168.463 34.9095 169.082C34.3554 169.701 33.3835 169.919 32.6461 169.547" fill="#1B4CA1"/>
<g opacity="0.5">
<path d="M35.2633 166.755C35.0928 166.354 34.8157 166 34.7262 165.573C34.5216 164.591 35.3613 163.72 35.5957 162.747C35.9026 161.483 35.161 160.164 35.3869 158.883C35.6895 157.146 37.6801 155.903 37.5309 154.144C37.4883 153.628 37.2538 153.145 37.1771 152.633C36.8873 150.644 38.9929 148.863 38.6349 146.883C38.3876 145.499 36.9853 144.479 36.9299 143.075C36.883 141.913 37.7696 140.961 38.3407 139.954C39.2103 138.426 39.3936 136.53 38.8395 134.861C38.5667 134.045 38.1234 133.273 38.0253 132.419C37.8719 131.108 38.5283 129.657 37.8591 128.521C37.6929 129.785 36.3758 130.545 35.7833 131.676C35.0714 133.034 35.4892 134.746 34.8882 136.154C34.496 137.072 33.7202 137.751 33.0851 138.519C32.45 139.288 31.9258 140.291 32.1943 141.252C32.3094 141.666 32.5651 142.041 32.6376 142.468C32.8507 143.758 31.3631 144.684 31.0264 145.943C30.6896 147.211 31.572 148.556 31.2608 149.828C30.971 151.024 29.7093 151.822 29.5004 153.034C29.3086 154.166 30.1014 155.254 30.0545 156.403C29.9949 157.871 28.5755 159.071 28.665 160.539C28.7161 161.355 29.2319 162.093 29.2234 162.909C29.2148 163.848 28.5243 164.625 28.1748 165.496C27.8253 166.367 28.1023 167.694 29.0401 167.741L32.6461 169.556C33.3878 169.927 34.3596 169.709 34.9095 169.09C35.4636 168.471 35.5829 167.524 35.2633 166.76V166.755Z" fill="white"/>
</g>
<path d="M34.0403 165.897C33.8442 165.573 33.6098 164.89 33.678 164.51C33.776 163.972 34.6797 163.498 34.9056 162.589C35.1997 161.406 34.6712 159.314 34.8971 158.123C35.204 156.501 36.8791 155.434 36.8067 153.824C36.7853 153.35 36.8535 152.087 36.8067 151.617C36.6276 149.803 38.2175 148.586 37.9874 146.789C37.8254 145.529 36.5253 144.056 36.5211 142.767C36.5211 141.7 37.284 140.769 37.7913 139.8C38.5585 138.336 38.7716 136.577 38.3667 135.079C38.1664 134.344 37.8254 133.661 37.77 132.88C37.6847 131.68 38.2729 130.306 37.7529 129.298C37.5739 130.472 36.4571 131.258 35.9329 132.338C35.302 133.631 35.5919 135.185 35.0505 136.522C34.6967 137.392 34.0318 138.071 33.4819 138.818C32.9321 139.565 32.4675 140.526 32.655 141.393C32.736 141.768 32.9363 142.093 32.9832 142.481C33.1196 143.655 31.8579 144.603 31.5425 145.785C31.2228 146.972 31.9134 148.155 31.615 149.35C31.3379 150.469 30.2425 151.993 30.0336 153.124C29.8375 154.179 30.7923 154.862 30.7156 155.92C30.6176 157.278 29.2621 158.921 29.2877 160.266C29.3047 161.013 29.927 161.252 29.8929 162.004C29.8546 162.87 29.13 164.591 28.8145 165.415C28.4991 166.239 28.5162 166.879 29.0405 167.737L33.0685 169.739C34.8672 168.881 34.7862 167.131 34.0403 165.893V165.897Z" fill="#1B4CA1"/>
<path d="M36.7508 135.433C36.7508 135.433 36.7551 135.463 36.7594 135.523C36.7594 135.591 36.7594 135.676 36.7594 135.783C36.7594 136.013 36.7594 136.355 36.7167 136.79C36.6741 137.226 36.6017 137.768 36.3544 138.349C36.1157 138.942 35.617 139.471 35.1396 140.082C34.9052 140.389 34.6793 140.731 34.5642 141.136C34.4406 141.533 34.3894 141.973 34.4193 142.43C34.4619 143.339 34.7432 144.291 34.8754 145.324C34.9393 145.841 34.9563 146.387 34.8242 146.93C34.7645 147.203 34.6452 147.459 34.5088 147.707C34.3639 147.95 34.1934 148.168 34.0825 148.415C33.8524 148.91 33.9419 149.495 34.057 150.055C34.1166 150.336 34.1806 150.627 34.2147 150.925C34.253 151.224 34.2317 151.532 34.1934 151.835C34.0953 152.437 33.8694 152.996 33.6392 153.53C33.4091 154.063 33.1704 154.584 33.0169 155.118C32.8592 155.651 32.8209 156.193 32.8763 156.731C32.9232 157.265 33.0041 157.803 32.9317 158.332C32.8592 158.862 32.6333 159.331 32.4244 159.771C32.2113 160.211 32.0067 160.638 31.9172 161.082C31.7467 161.974 31.9982 162.828 31.9812 163.617C31.9726 164.42 31.7041 165.099 31.5165 165.684C31.3205 166.273 31.1628 166.785 31.1244 167.216C31.0818 167.647 31.1457 167.985 31.2267 168.198C31.3077 168.412 31.3716 168.514 31.3631 168.518C31.3631 168.518 31.2906 168.42 31.1969 168.207C31.1031 167.993 31.0306 167.647 31.0647 167.208C31.0946 166.764 31.2437 166.243 31.4356 165.654C31.6146 165.065 31.8703 164.39 31.8703 163.613C31.8703 163.225 31.8149 162.823 31.7723 162.396C31.7297 161.97 31.6956 161.517 31.7893 161.052C31.9641 160.117 32.6461 159.314 32.791 158.307C32.8592 157.807 32.7782 157.282 32.7271 156.74C32.6674 156.198 32.7058 155.617 32.8677 155.071C33.1746 153.974 33.8438 152.97 34.0399 151.805C34.0783 151.515 34.0996 151.224 34.0612 150.938C34.0271 150.652 33.9675 150.366 33.9078 150.08C33.7927 149.521 33.6904 148.898 33.9461 148.347C34.0698 148.078 34.2403 147.856 34.3809 147.621C34.5088 147.386 34.6239 147.143 34.6793 146.887C34.8072 146.375 34.7944 145.845 34.7347 145.337C34.6111 144.321 34.3298 143.365 34.2914 142.43C34.2616 141.965 34.3212 141.508 34.4534 141.094C34.577 140.671 34.8157 140.321 35.0544 140.009C35.5446 139.395 36.039 138.882 36.2734 138.31C36.5249 137.747 36.6059 137.213 36.6571 136.782C36.704 136.346 36.7167 136.009 36.7295 135.779C36.7338 135.672 36.7381 135.587 36.7423 135.518C36.7423 135.458 36.7508 135.429 36.7508 135.429V135.433Z" fill="#263238"/>
<path d="M23.2858 168.198C21.973 168.39 21.2313 166.631 21.4743 165.325C21.7173 164.019 22.4632 162.755 22.2202 161.453C22.0071 160.322 21.0907 159.438 20.7966 158.324C20.2723 156.313 21.9048 154.268 21.5894 152.215C21.3422 150.614 19.9441 149.32 19.9014 147.702C19.8546 145.965 21.389 144.513 21.4615 142.776C21.5425 140.927 19.9483 139.301 20.0719 137.456C20.1956 135.616 21.9943 133.926 21.3507 132.201C21.1376 131.629 20.6815 131.185 20.4087 130.639C19.7778 129.379 20.2297 127.847 20.8989 126.609C21.5681 125.371 22.4589 124.214 22.753 122.835C23.2006 120.717 22.152 118.459 22.7701 116.384C23.2816 114.655 24.9013 113.242 24.7862 111.445C26.0223 112.837 25.5151 115.027 26.0863 116.803C26.4571 117.959 27.2798 118.907 27.8808 119.966C29.1041 122.122 29.3684 124.803 28.5841 127.159C28.064 128.713 27.1007 130.276 27.4801 131.872C27.9404 133.802 30.1612 134.831 30.8815 136.679C31.913 139.326 29.4834 142.37 30.434 145.043C30.6769 145.734 31.133 146.336 31.3376 147.041C32.0239 149.436 29.6071 151.702 29.6625 154.196C29.7051 156.031 31.0904 157.658 31.0094 159.494C30.9497 160.907 30.0248 162.345 30.5789 163.647C30.8176 164.211 31.3035 164.629 31.6445 165.137C32.3009 166.106 32.3904 167.455 31.7937 168.463C31.1969 169.47 29.9097 170.042 28.7844 169.731" fill="#1B4CA1"/>
<g opacity="0.5">
<path d="M31.6405 165.129C31.2995 164.621 30.8136 164.202 30.5749 163.639C30.0207 162.337 30.9457 160.898 31.0054 159.485C31.0821 157.654 29.6968 156.023 29.6584 154.187C29.603 151.694 32.0241 149.427 31.3336 147.032C31.1332 146.328 30.6729 145.721 30.4299 145.034C29.4837 142.357 31.9133 139.313 30.8775 136.667C30.1571 134.818 27.9321 133.794 27.4718 131.86C27.0924 130.263 28.0557 128.705 28.5758 127.147C29.3601 124.794 29.1 122.109 27.8725 119.953C27.2715 118.894 26.4488 117.947 26.078 116.79C25.5068 115.014 26.0183 112.828 24.7779 111.432C24.893 113.229 23.2733 114.647 22.7618 116.371C22.148 118.446 23.1965 120.704 22.7447 122.822C22.4506 124.201 21.5598 125.358 20.8906 126.596C20.2214 127.834 19.7695 129.366 20.4004 130.626C20.6732 131.172 21.1293 131.616 21.3424 132.188C21.986 133.913 20.183 135.604 20.0636 137.444C19.94 139.292 21.5299 140.914 21.4532 142.763C21.3807 144.5 19.8463 145.952 19.8931 147.689C19.9358 149.307 21.3339 150.601 21.5811 152.202C21.9008 154.255 20.264 156.304 20.7883 158.311C21.0781 159.425 21.9988 160.309 22.2119 161.44C22.4549 162.747 21.7132 164.01 21.466 165.312C21.223 166.619 21.9647 168.377 23.2775 168.185L28.7718 169.709C29.8971 170.021 31.1844 169.449 31.7811 168.442C32.3779 167.434 32.2841 166.085 31.6319 165.116L31.6405 165.129Z" fill="white"/>
</g>
<path d="M29.7094 164.275C29.3471 163.878 28.8398 162.998 28.8271 162.448C28.8143 161.675 29.9396 160.774 30.0035 159.451C30.0845 157.73 28.7802 154.977 28.7674 153.265C28.7461 150.934 30.775 149 30.2422 146.789C30.0845 146.14 29.833 144.368 29.6412 143.732C28.8995 141.269 30.7665 139.147 29.9523 136.718C29.3854 135.019 27.1775 133.337 26.8237 131.548C26.5296 130.071 27.3309 128.568 27.77 127.091C28.4307 124.854 28.2474 122.357 27.2713 120.393C26.7939 119.428 26.1332 118.579 25.8433 117.511C25.4 115.876 25.8348 113.806 24.8417 112.555C24.9184 114.233 23.5842 115.624 23.1495 117.264C22.6295 119.232 23.4564 121.302 23.0685 123.3C22.817 124.602 22.0796 125.725 21.5212 126.912C20.9628 128.099 20.5792 129.554 21.0822 130.703C21.2996 131.202 21.6661 131.599 21.8324 132.124C22.3396 133.712 20.8563 135.373 20.7369 137.098C20.6176 138.831 21.8963 140.283 21.8111 142.016C21.7343 143.642 20.6304 146.054 20.6517 147.677C20.6687 149.188 22.1776 149.88 22.3652 151.365C22.6039 153.273 21.1717 155.92 21.5766 157.777C21.8025 158.806 22.7317 158.968 22.8937 160.019C23.077 161.227 22.5485 163.81 22.3353 165.043C22.1222 166.273 22.3226 167.152 23.2816 168.202L29.411 169.872C31.6659 168.19 31.0776 165.786 29.7051 164.279L29.7094 164.275Z" fill="#1B4CA1"/>
<path d="M25.1314 121.328C25.1314 121.328 25.3019 121.989 25.4468 123.223C25.5065 123.838 25.5534 124.606 25.3658 125.477C25.272 125.913 25.1058 126.357 24.8842 126.805C24.6625 127.253 24.3982 127.71 24.1553 128.201C23.9166 128.692 23.6907 129.23 23.6438 129.823C23.5798 130.412 23.6267 131.04 23.793 131.663C24.1041 132.918 24.7478 134.156 25.2124 135.552C25.4383 136.248 25.6173 137 25.5747 137.781C25.5619 138.169 25.4724 138.558 25.353 138.938C25.2209 139.309 25.0419 139.664 24.9566 140.039C24.7691 140.799 25.0589 141.593 25.3743 142.336C25.532 142.712 25.6983 143.096 25.8262 143.497C25.9583 143.898 26.018 144.325 26.0393 144.752C26.0691 145.61 25.9071 146.443 25.7366 147.245C25.5619 148.048 25.3743 148.834 25.3061 149.619C25.2763 150.012 25.2678 150.4 25.3147 150.785C25.353 151.169 25.4511 151.536 25.5534 151.903C25.7622 152.633 26.0265 153.35 26.0691 154.097C26.116 154.844 25.9327 155.557 25.7622 156.223C25.5875 156.894 25.4212 157.542 25.417 158.183C25.417 158.823 25.5747 159.434 25.7452 160.006C25.9157 160.582 26.1032 161.133 26.2055 161.684C26.3163 162.234 26.3121 162.768 26.2822 163.267C26.2481 163.767 26.1885 164.232 26.1331 164.668C26.0222 165.539 25.9455 166.29 26.0137 166.905C26.0776 167.515 26.2567 167.968 26.4314 168.241C26.6062 168.514 26.7213 168.638 26.7127 168.646C26.7127 168.646 26.5891 168.527 26.4016 168.258C26.2183 167.989 26.0222 167.532 25.9498 166.913C25.873 166.294 25.9412 165.53 26.0435 164.659C26.0947 164.224 26.1501 163.758 26.1799 163.263C26.2055 162.768 26.2055 162.243 26.0947 161.709C25.9881 161.171 25.8048 160.625 25.6258 160.044C25.4511 159.468 25.2848 158.849 25.2848 158.183C25.2848 157.521 25.4553 156.855 25.6258 156.185C25.7963 155.519 25.9711 154.823 25.9242 154.106C25.8816 153.389 25.6216 152.68 25.4084 151.946C25.3019 151.579 25.1996 151.199 25.1612 150.802C25.1101 150.409 25.1186 150.008 25.1484 149.606C25.2166 148.804 25.4042 148.014 25.5789 147.211C25.7537 146.413 25.9071 145.593 25.8773 144.761C25.8517 144.347 25.8006 143.937 25.6684 143.548C25.5448 143.156 25.3786 142.78 25.2209 142.4C25.0632 142.02 24.9097 141.636 24.8202 141.235C24.7264 140.833 24.7094 140.411 24.7989 140.009C24.8927 139.608 25.0717 139.249 25.2038 138.891C25.3189 138.528 25.4084 138.157 25.4212 137.781C25.4596 137.029 25.2891 136.295 25.0674 135.608C24.6114 134.229 23.9677 132.982 23.6566 131.706C23.4903 131.074 23.4434 130.425 23.5116 129.819C23.5628 129.204 23.8015 128.654 24.0445 128.158C24.2917 127.663 24.5645 127.211 24.7819 126.767C25.0035 126.327 25.174 125.887 25.2678 125.465C25.4596 124.615 25.4255 123.851 25.3743 123.236C25.3232 122.621 25.2422 122.147 25.1911 121.827C25.1655 121.674 25.1484 121.55 25.1356 121.46C25.1229 121.379 25.1186 121.336 25.1229 121.336L25.1314 121.328Z" fill="#263238"/>
<path d="M22.4633 169.065C21.7174 169.432 20.9288 168.523 20.8265 167.694C20.72 166.866 20.9245 165.965 20.5239 165.231C20.1786 164.595 19.4583 164.241 19.0704 163.63C18.3671 162.529 18.951 160.988 18.3628 159.818C17.9067 158.909 16.8198 158.405 16.4788 157.444C16.1165 156.411 16.7516 155.25 16.4618 154.196C16.1506 153.073 14.8889 152.411 14.6033 151.28C14.322 150.157 15.0722 148.795 14.3561 147.886C14.1174 147.587 13.7594 147.408 13.4908 147.134C12.8685 146.503 12.8429 145.499 13.0049 144.628C13.1669 143.758 13.478 142.891 13.3843 142.012C13.2436 140.658 12.1823 139.51 12.1482 138.148C12.1226 137.017 12.8174 135.855 12.3996 134.801C13.4098 135.394 13.5249 136.803 14.2112 137.755C14.6587 138.374 15.3322 138.784 15.8949 139.301C17.0457 140.355 17.7192 141.909 17.7021 143.467C17.6936 144.5 17.4165 145.619 17.9494 146.503C18.5972 147.57 20.1232 147.753 20.9118 148.718C22.0413 150.101 21.1718 152.394 22.2587 153.811C22.54 154.178 22.9279 154.452 23.1837 154.832C24.0575 156.134 23.0473 157.957 23.563 159.438C23.9424 160.527 25.0847 161.235 25.3916 162.345C25.6303 163.203 25.3532 164.241 25.9372 164.915C26.1887 165.206 26.5595 165.363 26.8621 165.603C27.4418 166.055 27.7573 166.845 27.5953 167.566C27.4333 168.284 26.7726 168.877 26.0395 168.907" fill="#1B4CA1"/>
<g opacity="0.5">
<path d="M26.8707 165.611C26.5681 165.372 26.1972 165.218 25.9457 164.924C25.3618 164.254 25.6388 163.212 25.4001 162.354C25.0932 161.244 23.9509 160.535 23.5716 159.447C23.0558 157.965 24.066 156.138 23.1922 154.84C22.9364 154.456 22.5443 154.183 22.2672 153.82C21.1846 152.403 22.0499 150.11 20.9203 148.727C20.1317 147.762 18.6015 147.578 17.9579 146.511C17.4251 145.632 17.6979 144.509 17.7107 143.476C17.7277 141.918 17.05 140.359 15.9034 139.309C15.3407 138.793 14.663 138.383 14.2197 137.764C13.5377 136.812 13.4184 135.403 12.4082 134.81C12.8259 135.864 12.1269 137.025 12.1567 138.157C12.1908 139.518 13.2521 140.667 13.3928 142.02C13.4823 142.9 13.1754 143.766 13.0134 144.637C12.8515 145.508 12.877 146.511 13.4994 147.143C13.7679 147.416 14.1259 147.596 14.3646 147.894C15.085 148.804 14.3305 150.161 14.6119 151.288C14.8932 152.415 16.1591 153.081 16.4703 154.204C16.7601 155.259 16.125 156.424 16.4873 157.453C16.8241 158.413 17.911 158.917 18.3714 159.826C18.9596 160.992 18.3714 162.537 19.0789 163.639C19.4668 164.249 20.1872 164.599 20.5324 165.235C20.9288 165.97 20.7285 166.87 20.8351 167.699C20.9416 168.527 21.7259 169.436 22.4718 169.069L26.0566 168.915C26.7897 168.886 27.4504 168.292 27.6124 167.575C27.7743 166.858 27.4589 166.068 26.8792 165.611H26.8707Z" fill="white"/>
</g>
<path d="M25.5537 165.47C25.2596 165.304 24.7865 164.877 24.6756 164.548C24.5179 164.091 25.0209 163.331 24.8035 162.525C24.5222 161.479 23.2094 160.083 22.8684 159.062C22.408 157.671 23.2477 156.121 22.5018 154.9C22.2801 154.541 21.79 153.53 21.5513 153.188C20.6306 151.856 21.3381 150.225 20.3833 148.927C19.7141 148.022 18.0688 147.442 17.5147 146.439C17.0544 145.61 17.2419 144.556 17.2206 143.587C17.1865 142.118 16.594 140.663 15.6307 139.672C15.1576 139.19 14.5992 138.805 14.2198 138.225C13.6359 137.333 13.4995 136.009 12.664 135.454C13.0349 136.445 12.5063 137.538 12.5617 138.601C12.6299 139.881 13.5251 140.957 13.6785 142.229C13.7808 143.057 13.5549 143.873 13.4483 144.693C13.346 145.512 13.3972 146.456 13.9172 147.049C14.1431 147.305 14.4415 147.472 14.6418 147.753C15.2513 148.607 14.6844 149.888 14.9444 150.943C15.2087 152.001 16.253 152.625 16.5386 153.679C16.8071 154.669 16.6111 156.322 16.935 157.291C17.2376 158.191 18.2734 158.311 18.6698 159.165C19.1813 160.262 18.8318 162.123 19.4371 163.156C19.7695 163.728 20.3578 163.647 20.6561 164.241C21.0014 164.928 21.1804 166.576 21.2912 167.357C21.4021 168.134 21.6919 168.621 22.4677 169.065L26.4573 168.877C27.4846 167.434 26.6662 166.106 25.5537 165.475V165.47Z" fill="#1B4CA1"/>
<path d="M14.5225 140.654C14.5225 140.654 14.5395 140.675 14.5651 140.718C14.5949 140.773 14.6333 140.837 14.6802 140.919C14.7782 141.098 14.9274 141.363 15.0851 141.717C15.2386 142.071 15.4176 142.524 15.4773 143.083C15.5497 143.647 15.3877 144.274 15.2854 144.953C15.2386 145.294 15.2087 145.653 15.294 146.016C15.3707 146.379 15.5199 146.742 15.7373 147.079C16.1635 147.766 16.7901 148.381 17.3399 149.128C17.6127 149.504 17.8642 149.918 17.9921 150.4C18.0603 150.639 18.0816 150.891 18.0816 151.143C18.0731 151.395 18.039 151.638 18.056 151.877C18.0901 152.36 18.4098 152.77 18.7423 153.154C18.9085 153.35 19.0833 153.547 19.241 153.764C19.3987 153.982 19.5181 154.23 19.6161 154.482C19.7994 154.994 19.8633 155.527 19.9145 156.04C19.9656 156.556 20.004 157.06 20.1148 157.538C20.2214 158.021 20.426 158.456 20.6988 158.849C20.963 159.242 21.2614 159.626 21.4319 160.07C21.6067 160.514 21.6322 160.979 21.6578 161.41C21.6834 161.846 21.7047 162.264 21.8283 162.644C22.0798 163.408 22.6424 163.963 22.9706 164.586C23.3074 165.214 23.3926 165.854 23.5035 166.392C23.6015 166.934 23.6995 167.4 23.8572 167.75C24.0107 168.104 24.2025 168.339 24.3559 168.467C24.5094 168.595 24.6032 168.651 24.5989 168.659C24.5989 168.659 24.5009 168.617 24.3346 168.493C24.1684 168.369 23.9638 168.13 23.7976 167.776C23.6313 167.417 23.5205 166.947 23.4139 166.409C23.2989 165.871 23.2051 165.24 22.8726 164.642C22.5529 164.04 21.9775 163.494 21.7047 162.687C21.4362 161.884 21.6195 160.966 21.2998 160.125C21.1378 159.707 20.8479 159.335 20.5751 158.938C20.2938 158.546 20.0764 158.076 19.9656 157.581C19.7312 156.59 19.8164 155.527 19.4669 154.541C19.3731 154.302 19.2623 154.067 19.1131 153.863C18.9639 153.653 18.7934 153.461 18.6272 153.265C18.2947 152.881 17.9452 152.437 17.9069 151.899C17.8855 151.638 17.9239 151.386 17.9324 151.147C17.9324 150.908 17.9154 150.674 17.8472 150.452C17.7278 149.999 17.4849 149.598 17.2206 149.226C16.6878 148.492 16.0569 147.869 15.6264 147.16C15.4048 146.81 15.2513 146.43 15.1746 146.05C15.0894 145.67 15.1235 145.29 15.1746 144.944C15.2897 144.257 15.4517 143.647 15.392 143.1C15.3451 142.558 15.1789 142.105 15.034 141.751C14.8848 141.392 14.7484 141.124 14.6589 140.94C14.6162 140.855 14.5821 140.786 14.5566 140.731C14.5352 140.684 14.5225 140.658 14.5267 140.658L14.5225 140.654Z" fill="#263238"/>
<path d="M16.7388 165.906L18.286 169.065H37.1943L39.3255 165.906H16.7388Z" fill="#455A64"/>
<path d="M18.7422 167.976L21.5725 177.761L34.3044 177.77L36.8704 167.993L18.7422 167.976Z" fill="#455A64"/>
<path d="M37.1091 169.039C37.1091 169.082 32.8893 169.12 27.6891 169.12C22.4889 169.12 18.269 169.086 18.269 169.039C18.269 168.992 22.4846 168.958 27.6891 168.958C32.8935 168.958 37.1091 168.992 37.1091 169.039Z" fill="#263238"/>
<path d="M138.346 0.110962H34.2871V55.6562H138.346V0.110962Z" fill="#FAFAFA"/>
<path d="M138.346 55.6562C138.346 54.986 138.312 34.2766 138.261 0.110997L138.346 0.196378C110.798 0.204917 74.2603 0.213455 34.2912 0.221993H34.2827L34.3935 0.110997C34.3935 19.7275 34.3893 38.5201 34.385 55.6562L34.2827 55.5538C64.7038 55.5751 90.7048 55.5922 109.106 55.605C118.313 55.6178 125.614 55.6263 130.623 55.6349C133.125 55.6391 135.051 55.6434 136.36 55.6477C137.012 55.6477 137.507 55.652 137.839 55.652C138.172 55.652 138.346 55.6562 138.346 55.6562C138.346 55.6562 138.18 55.6562 137.852 55.6605C137.519 55.6605 137.029 55.6605 136.381 55.6648C135.081 55.6648 133.159 55.6733 130.665 55.6776C125.665 55.6861 118.368 55.6946 109.174 55.7075C90.756 55.7203 64.7294 55.7373 34.2827 55.7587H34.1804V55.6562C34.1804 38.5158 34.1761 19.7275 34.1719 0.110997V0H34.2912C74.2603 0.00853819 110.798 0.0213455 138.346 0.0256146H138.432V0.110997C138.38 34.2766 138.351 54.986 138.346 55.6562Z" fill="#263238"/>
<path d="M91.5575 9.18277C91.5575 9.24254 84.1706 9.29377 75.066 9.29377C65.9614 9.29377 58.5703 9.24254 58.5703 9.18277C58.5703 9.12301 65.9529 9.07178 75.066 9.07178C84.1791 9.07178 91.5575 9.12301 91.5575 9.18277Z" fill="#263238"/>
<path d="M84.7717 12.8885C84.7717 12.9482 79.1325 12.9995 72.1761 12.9995C65.2198 12.9995 59.5806 12.9482 59.5806 12.8885C59.5806 12.8287 65.2198 12.7775 72.1761 12.7775C79.1325 12.7775 84.7717 12.8287 84.7717 12.8885Z" fill="#E0E0E0"/>
<path d="M96.9577 37.504C96.9577 37.0771 96.5826 36.8082 96.0157 36.8082C95.4488 36.8082 95.0311 37.0515 94.754 37.4528L93.7012 36.8338C94.17 36.1166 94.9884 35.6641 96.1649 35.6641C97.4692 35.6641 98.3771 36.2489 98.3771 37.2778C98.3771 38.6738 96.9151 38.8317 96.9151 39.7539H95.6022C95.6022 38.5329 96.9619 38.2639 96.9619 37.504H96.9577ZM95.4232 41.1499C95.4232 40.7059 95.7727 40.3729 96.2586 40.3729C96.7446 40.3729 97.0941 40.7059 97.0941 41.1499C97.0941 41.5938 96.7446 41.9439 96.2586 41.9439C95.7727 41.9439 95.4232 41.5853 95.4232 41.1499Z" fill="#263238"/>
<path d="M49.6914 28.24C49.6914 28.6669 50.0665 28.9359 50.6334 28.9359C51.2003 28.9359 51.618 28.6926 51.8951 28.2913L52.9479 28.9103C52.479 29.6275 51.6606 30.08 50.4842 30.08C49.1799 30.08 48.272 29.4951 48.272 28.4663C48.272 27.0703 49.734 26.9123 49.734 25.9902H51.0468C51.0468 27.2112 49.6871 27.4801 49.6871 28.24H49.6914ZM51.2259 24.5942C51.2259 25.0382 50.8763 25.3712 50.3904 25.3712C49.9045 25.3712 49.555 25.0382 49.555 24.5942C49.555 24.1502 49.9045 23.8002 50.3904 23.8002C50.8763 23.8002 51.2259 24.1588 51.2259 24.5942Z" fill="#263238"/>
<path d="M126.1 27.8858C126.1 27.9455 110.176 27.9968 90.5345 27.9968C70.8932 27.9968 54.9644 27.9455 54.9644 27.8858C54.9644 27.826 70.8889 27.7748 90.5345 27.7748C110.18 27.7748 126.1 27.826 126.1 27.8858Z" fill="#263238"/>
<path d="M126.1 33.1581C126.1 33.2179 108.637 33.2691 87.0986 33.2691C65.5605 33.2691 48.0972 33.2179 48.0972 33.1581C48.0972 33.0983 65.5562 33.0471 87.0986 33.0471C108.641 33.0471 126.1 33.0983 126.1 33.1581Z" fill="#263238"/>
<path d="M91.0886 39.6813C91.0886 39.7411 81.4 39.7923 69.4481 39.7923C57.4962 39.7923 47.8076 39.7411 47.8076 39.6813C47.8076 39.6215 57.4962 39.5703 69.4481 39.5703C81.4 39.5703 91.0886 39.6215 91.0886 39.6813Z" fill="#263238"/>
<path d="M51.5626 49.5045V49.9698H49.7085V49.6027L50.6547 48.7062C50.8721 48.497 50.9105 48.3732 50.9105 48.2537C50.9105 48.0615 50.7784 47.9463 50.5183 47.9463C50.3095 47.9463 50.1305 48.0274 50.0111 48.1939L49.5977 47.9292C49.7852 47.6517 50.1305 47.4724 50.5738 47.4724C51.1194 47.4724 51.4859 47.7542 51.4859 48.1982C51.4859 48.4372 51.4177 48.655 51.0767 48.9751L50.5141 49.5088H51.5712L51.5626 49.5045Z" fill="#1B4CA1"/>
<path d="M55.3476 49.4404H54.2095L53.9922 49.9655H53.4082L54.5037 47.5065H55.0663L56.1617 49.9655H55.565L55.3476 49.4404ZM55.1686 49.0092L54.7807 48.07L54.3928 49.0092H55.1729H55.1686Z" fill="#1B4CA1"/>
<path d="M58.3099 48.8855V49.9655H57.7643V48.9666C57.7643 48.6592 57.6237 48.5226 57.3807 48.5226C57.1164 48.5226 56.9289 48.6848 56.9289 49.0306V49.9655H56.3833V48.0786H56.9076V48.3006C57.0568 48.1384 57.2742 48.053 57.5299 48.053C57.9732 48.053 58.3099 48.3134 58.3099 48.8897V48.8855Z" fill="#1B4CA1"/>
<path d="M58.6211 49.7905L58.8044 49.3977C58.9706 49.5045 59.2306 49.5813 59.4608 49.5813C59.7123 49.5813 59.8061 49.513 59.8061 49.4106C59.8061 49.1032 58.668 49.4191 58.668 48.6635C58.668 48.3049 58.9919 48.053 59.5418 48.053C59.8018 48.053 60.0874 48.1127 60.2664 48.2195L60.0831 48.608C59.8956 48.5012 59.7123 48.4671 59.5418 48.4671C59.2946 48.4671 59.1923 48.5439 59.1923 48.6421C59.1923 48.9666 60.3303 48.6507 60.3303 49.3977C60.3303 49.7478 60.0021 49.9997 59.4395 49.9997C59.1198 49.9997 58.8001 49.91 58.6211 49.7948V49.7905Z" fill="#1B4CA1"/>
<path d="M63.6592 48.0785L62.9772 49.9654H62.4529L62.0267 48.7914L61.5876 49.9654H61.0633L60.3813 48.0785H60.8971L61.3404 49.355L61.805 48.0785H62.2696L62.7172 49.355L63.1775 48.0785H63.6634H63.6592Z" fill="#1B4CA1"/>
<path d="M65.7053 49.1757H64.2774C64.3285 49.4105 64.5289 49.5557 64.8187 49.5557C65.0191 49.5557 65.164 49.4959 65.2919 49.3721L65.5817 49.688C65.4069 49.8887 65.1427 49.9954 64.8017 49.9954C64.1495 49.9954 63.7275 49.5856 63.7275 49.0221C63.7275 48.4585 64.158 48.0487 64.7335 48.0487C65.3089 48.0487 65.7138 48.4201 65.7138 49.0306C65.7138 49.0733 65.7053 49.1331 65.7053 49.18V49.1757ZM64.2689 48.8556H65.1981C65.1597 48.6165 64.9807 48.4628 64.7335 48.4628C64.4863 48.4628 64.3072 48.6122 64.2689 48.8556Z" fill="#1B4CA1"/>
<path d="M67.2527 48.0487V48.5525C67.2059 48.5525 67.1718 48.5439 67.1291 48.5439C66.8265 48.5439 66.6262 48.7104 66.6262 49.069V49.9613H66.0806V48.0743H66.6048V48.3219C66.737 48.1384 66.9629 48.0444 67.2527 48.0444V48.0487Z" fill="#1B4CA1"/>
<path d="M52.7709 15.5383C55.4276 12.8775 55.4276 8.56343 52.7709 5.9026C50.1142 3.24177 45.8069 3.24177 43.1502 5.9026C40.4935 8.56343 40.4935 12.8775 43.1502 15.5383C45.8069 18.1991 50.1142 18.1991 52.7709 15.5383Z" fill="#263238"/>
<path d="M50.3863 9.94694C50.3863 11.2874 49.2994 12.3761 47.961 12.3761C46.6226 12.3761 45.5356 11.2874 45.5356 9.94694C45.5356 8.60644 46.6226 7.51782 47.961 7.51782C49.2994 7.51782 50.3863 8.60644 50.3863 9.94694Z" fill="#FAFAFA"/>
<path d="M44.2783 15.7273C44.2783 15.7273 45.4974 13.3068 47.9696 13.3068C50.4418 13.3068 51.8058 15.6078 51.8058 15.6078C51.8058 15.6078 50.429 17.0337 47.9696 17.0081C45.5102 16.9825 44.2783 15.7231 44.2783 15.7231V15.7273Z" fill="#FAFAFA"/>
<path d="M183 177.624C183 177.684 142.029 177.735 91.502 177.735C40.9749 177.735 -0.00439453 177.684 -0.00439453 177.624C-0.00439453 177.565 40.9578 177.513 91.502 177.513C142.046 177.513 183 177.565 183 177.624Z" fill="#263238"/>
<path d="M107.035 66.4484C107.035 66.4484 105.245 75.9898 105.488 76.6003C105.73 77.2065 108.446 79.832 109.418 79.5802C109.639 79.5204 110.121 79.0124 110.121 79.0124L113.863 77.7231L112.005 61.5389L109.025 67.695L107.035 66.4484Z" fill="#455A64"/>
<path d="M110.121 79.0123C110.082 78.9995 110.287 78.3848 110.381 77.3474C110.491 76.3142 110.479 74.867 110.312 73.2875C110.138 71.7079 109.848 70.2906 109.554 69.2959C109.268 68.2926 108.987 67.712 109.021 67.6949C109.034 67.6864 109.115 67.8273 109.247 68.092C109.375 68.3567 109.541 68.7494 109.703 69.2489C110.04 70.2479 110.355 71.6695 110.534 73.2661C110.7 74.8628 110.688 76.3228 110.534 77.3644C110.466 77.8853 110.368 78.3037 110.283 78.5854C110.189 78.8672 110.133 79.0166 110.121 79.0123Z" fill="#263238"/>
<path d="M127.26 39.2799C127.929 38.4176 128.607 37.5467 129.067 36.5562C129.527 35.5658 129.762 34.4345 129.502 33.3715C129.348 32.7482 129.037 32.1719 128.943 31.5358C128.816 30.6649 129.114 29.7257 128.739 28.9274C128.155 27.6808 126.407 27.6082 125.291 26.7971C124.421 26.1653 123.935 25.0766 122.993 24.5601C122.17 24.1118 121.16 24.1929 120.244 24.3936C119.327 24.5942 118.415 24.8931 117.477 24.8333C116.808 24.7906 116.169 24.5729 115.508 24.4576C114.847 24.3466 114.123 24.3552 113.573 24.7308C113.023 25.1065 112.763 25.9475 113.181 26.4684C112.068 26.05 110.768 26.9849 110.564 28.1504C110.359 29.3159 111.041 30.5069 112.009 31.1943C112.976 31.8816 114.183 32.1463 115.359 32.2829C118.697 32.6628 122.239 32.0566 124.937 30.0757" fill="#1B4CA1"/>
<path d="M127.328 35.045L126.488 51.7073C126.343 54.5419 123.854 56.6679 121.02 56.3734C118.377 56.0959 116.339 55.6989 116.476 53.052C116.54 51.7969 116.659 48.8555 116.659 48.7274C116.659 48.7274 112.427 48.0956 112.329 43.882C112.282 41.8456 112.529 37.6448 112.797 33.8454C113.087 29.7684 116.472 26.6092 120.576 26.5836H120.986C125.384 26.8141 127.665 30.6691 127.332 35.0492L127.328 35.045Z" fill="#FFBE9D"/>
<path d="M116.651 48.6634C116.651 48.6634 119.323 48.8641 122.145 47.071C122.145 47.071 120.875 50.1106 116.651 49.7563V48.6634Z" fill="#FFB294"/>
<path d="M113.774 37.4655C113.765 37.7814 114.029 38.0546 114.362 38.0674C114.694 38.0845 114.971 37.8412 114.98 37.521C114.988 37.2051 114.724 36.9318 114.392 36.9148C114.059 36.8977 113.782 37.1453 113.774 37.4612V37.4655Z" fill="#263238"/>
<path d="M113.727 35.903C113.803 35.9799 114.255 35.6426 114.907 35.6383C115.555 35.6255 116.037 35.9585 116.105 35.8774C116.139 35.8433 116.062 35.7024 115.854 35.553C115.649 35.4035 115.3 35.2584 114.895 35.2627C114.49 35.2669 114.153 35.4164 113.957 35.57C113.761 35.7237 113.693 35.8646 113.731 35.903H113.727Z" fill="#263238"/>
<path d="M119.916 37.7857C119.907 38.1016 120.171 38.3748 120.504 38.3876C120.836 38.4047 121.113 38.1614 121.122 37.8412C121.131 37.5253 120.866 37.252 120.534 37.235C120.201 37.2179 119.924 37.4655 119.916 37.7814V37.7857Z" fill="#263238"/>
<path d="M120.112 35.9884C120.189 36.0652 120.64 35.7279 121.293 35.7237C121.941 35.7109 122.422 36.0439 122.49 35.9627C122.524 35.9286 122.448 35.7877 122.239 35.6383C122.034 35.4889 121.685 35.3437 121.28 35.348C120.875 35.3523 120.538 35.5017 120.342 35.6554C120.146 35.8091 120.078 35.9499 120.116 35.9884H120.112Z" fill="#263238"/>
<path d="M117.806 40.8039C117.806 40.7655 117.405 40.7015 116.749 40.6204C116.583 40.6033 116.425 40.5734 116.395 40.4581C116.357 40.3386 116.421 40.1593 116.502 39.9672C116.655 39.5659 116.813 39.1475 116.979 38.7035C117.64 36.9063 118.121 35.4292 118.049 35.4035C117.977 35.3779 117.38 36.8123 116.715 38.6096C116.557 39.0536 116.404 39.4763 116.259 39.8776C116.199 40.0654 116.093 40.2788 116.178 40.5265C116.225 40.6503 116.348 40.7399 116.455 40.7655C116.561 40.7954 116.655 40.7997 116.736 40.8039C117.397 40.8338 117.802 40.8381 117.806 40.7997V40.8039Z" fill="#263238"/>
<path d="M119.72 41.2437C119.613 41.2395 119.622 41.9396 119.021 42.4433C118.424 42.9471 117.67 42.8745 117.665 42.9727C117.657 43.0154 117.836 43.1093 118.151 43.1136C118.462 43.1221 118.914 43.0197 119.281 42.7123C119.647 42.4049 119.801 41.9951 119.822 41.7048C119.848 41.4102 119.767 41.2352 119.716 41.2395L119.72 41.2437Z" fill="#263238"/>
<path d="M119.92 33.4526C119.984 33.6276 120.632 33.5422 121.395 33.6276C122.158 33.7002 122.776 33.9179 122.874 33.76C122.916 33.6831 122.81 33.5209 122.558 33.3501C122.311 33.1794 121.915 33.0214 121.459 32.9744C121.003 32.9275 120.581 33.0001 120.308 33.1153C120.031 33.2306 119.89 33.3672 119.92 33.4526Z" fill="#1B4CA1"/>
<path d="M113.948 34.0289C114.063 34.1741 114.511 34.0204 115.048 34.0118C115.585 33.982 116.041 34.1058 116.148 33.9521C116.194 33.8752 116.118 33.7301 115.917 33.5935C115.721 33.4569 115.389 33.3459 115.022 33.3587C114.651 33.3715 114.332 33.5081 114.148 33.6575C113.961 33.8112 113.897 33.9606 113.948 34.0332V34.0289Z" fill="#1B4CA1"/>
<path d="M127.013 38.1657C127.085 38.1358 129.907 37.2948 129.847 40.1764C129.783 43.058 126.894 42.3878 126.894 42.3067C126.894 42.2256 127.017 38.1699 127.017 38.1699L127.013 38.1657Z" fill="#FFBE9D"/>
<path d="M127.797 41.2351C127.797 41.2351 127.848 41.2736 127.929 41.312C128.01 41.3504 128.155 41.3803 128.304 41.3291C128.611 41.2266 128.88 40.7485 128.905 40.2276C128.918 39.9672 128.867 39.7153 128.782 39.5062C128.697 39.2927 128.564 39.1433 128.411 39.1091C128.257 39.0707 128.147 39.1604 128.113 39.2372C128.074 39.3183 128.091 39.3738 128.074 39.3781C128.066 39.3866 128.015 39.3268 128.04 39.2116C128.053 39.1561 128.087 39.0878 128.159 39.0323C128.232 38.9768 128.334 38.9512 128.441 38.9682C128.662 38.9896 128.859 39.1988 128.957 39.4293C129.067 39.6598 129.127 39.9416 129.114 40.2362C129.084 40.8168 128.773 41.3504 128.351 41.4614C128.147 41.5084 127.98 41.4443 127.891 41.3717C127.801 41.2992 127.789 41.2351 127.797 41.2266V41.2351Z" fill="#FFB294"/>
<path d="M112.708 29.9135C112.993 31.0363 115.389 31.9157 117.307 31.7193C119.072 31.54 119.882 30.6008 121.118 29.8836C121.641 29.5819 122.274 29.4638 123.019 29.5293C123.922 29.6104 124.468 30.6264 125.026 31.3437C124.234 33.491 124.805 35.8774 125.384 38.0974C125.448 38.3407 125.525 38.6054 125.73 38.7591C126.075 39.0195 126.582 38.8103 126.881 38.4987C127.354 37.9992 127.528 37.2948 127.644 36.616C127.904 35.0706 127.929 33.4697 127.567 31.9413C127.204 30.413 126.45 28.9572 125.299 27.8814C123.863 26.5366 121.864 25.8451 119.899 25.8835C117.934 25.9262 116.016 26.669 114.455 27.8601C113.735 28.4108 113.07 29.0768 112.704 29.9092" fill="#1B4CA1"/>
<path d="M117.128 37.7644C117.102 37.7644 117.158 37.5211 117.124 37.0899C117.089 36.6673 116.923 36.0312 116.403 35.4634C115.904 34.8999 114.988 34.4601 113.991 34.6266C113.5 34.7035 113.006 34.9298 112.614 35.3012C112.213 35.664 111.932 36.1721 111.821 36.7356C111.719 37.2991 111.795 37.8797 112.034 38.3664C112.264 38.8573 112.639 39.2543 113.07 39.5062C113.935 40.0313 114.945 39.9673 115.619 39.63C116.309 39.297 116.697 38.7677 116.885 38.3877C117.072 37.9992 117.111 37.7559 117.136 37.7644C117.145 37.7644 117.136 37.8242 117.119 37.9395C117.102 38.0547 117.055 38.2212 116.97 38.4261C116.804 38.8274 116.42 39.4038 115.696 39.7752C114.992 40.1509 113.91 40.2448 112.968 39.6855C112.503 39.4166 112.09 38.9897 111.838 38.4603C111.578 37.9352 111.493 37.3034 111.604 36.6929C111.723 36.0824 112.034 35.5274 112.469 35.1389C112.895 34.7376 113.436 34.4986 113.969 34.4217C115.048 34.2552 116.024 34.7462 116.535 35.3567C117.072 35.9714 117.213 36.6502 117.222 37.0856C117.226 37.3076 117.209 37.4784 117.183 37.5937C117.162 37.7089 117.145 37.7644 117.136 37.7644H117.128Z" fill="#263238"/>
<path d="M123.994 37.8925C123.969 37.8925 124.024 37.6491 123.99 37.218C123.956 36.7953 123.79 36.1592 123.27 35.5914C122.771 35.0279 121.855 34.5882 120.857 34.7547C120.367 34.8315 119.873 35.0578 119.481 35.4292C119.08 35.7921 118.799 36.3001 118.688 36.8636C118.585 37.4271 118.662 38.0077 118.901 38.4944C119.131 38.9854 119.506 39.3824 119.937 39.6343C120.802 40.1594 121.812 40.0953 122.486 39.7581C123.176 39.4251 123.564 38.8957 123.752 38.5158C123.939 38.1273 123.977 37.8839 124.003 37.8925C124.012 37.8925 124.003 37.9522 123.986 38.0675C123.969 38.1828 123.922 38.3493 123.837 38.5542C123.671 38.9555 123.287 39.5318 122.562 39.9032C121.859 40.2789 120.776 40.3728 119.834 39.8136C119.37 39.5446 118.956 39.1177 118.705 38.5883C118.445 38.0632 118.36 37.4314 118.47 36.8209C118.59 36.2105 118.901 35.6555 119.34 35.267C119.766 34.8657 120.307 34.6266 120.84 34.5498C121.919 34.3833 122.895 34.8742 123.406 35.4847C123.943 36.0995 124.084 36.7782 124.093 37.2137C124.097 37.4357 124.08 37.6065 124.054 37.7217C124.033 37.837 124.016 37.8925 124.007 37.8925H123.994Z" fill="#263238"/>
<path d="M118.5 36.9277C118.462 36.9789 118.138 36.7441 117.699 36.791C117.26 36.8337 116.991 37.1283 116.945 37.0856C116.919 37.0685 116.953 36.9661 117.072 36.8423C117.192 36.7227 117.405 36.5904 117.673 36.5605C117.942 36.5349 118.181 36.6203 118.321 36.7142C118.466 36.8081 118.517 36.9063 118.5 36.9277Z" fill="#263238"/>
<path d="M127.894 37.9053C127.882 37.9693 126.982 37.8327 125.883 37.6065C124.783 37.3759 123.905 37.1411 123.918 37.0814C123.93 37.0173 124.83 37.1539 125.929 37.3802C127.029 37.6065 127.907 37.8455 127.894 37.9053Z" fill="#263238"/>
<path d="M111.902 26.9977C111.902 26.9977 111.877 27.0959 111.894 27.2709C111.911 27.4459 111.996 27.7021 112.2 27.954C112.397 28.2058 112.725 28.4364 113.13 28.5602C113.535 28.6925 113.999 28.7309 114.481 28.748C115.444 28.7907 116.318 28.7694 116.949 28.7309C117.264 28.7096 117.52 28.6882 117.695 28.6712C117.767 28.6626 117.831 28.6541 117.895 28.6456C117.942 28.6413 117.963 28.6327 117.963 28.6327C117.963 28.6327 117.938 28.6327 117.891 28.6327C117.827 28.6327 117.759 28.6413 117.686 28.6456C117.469 28.6584 117.222 28.6712 116.94 28.684C116.309 28.7096 115.44 28.7267 114.477 28.684C113.995 28.6626 113.539 28.6285 113.142 28.5047C112.746 28.3851 112.426 28.1717 112.23 27.9283C112.03 27.6893 111.94 27.4459 111.915 27.2752C111.889 27.1044 111.902 27.0062 111.898 27.0062L111.902 26.9977Z" fill="white"/>
<path d="M111.161 27.51C111.161 27.51 111.131 27.8259 111.254 28.3211C111.374 28.8078 111.689 29.4738 112.273 29.9946C112.861 30.5155 113.556 30.7503 114.055 30.8143C114.562 30.8826 114.873 30.8143 114.873 30.8143C114.873 30.81 114.796 30.8143 114.656 30.8143C114.515 30.8143 114.31 30.8058 114.063 30.7673C113.573 30.6905 112.891 30.4557 112.316 29.9434C111.744 29.4311 111.429 28.7865 111.297 28.3083C111.229 28.0693 111.195 27.8686 111.182 27.7277C111.165 27.5869 111.161 27.51 111.156 27.51H111.161Z" fill="white"/>
<path d="M124.702 161.086L129.527 168.864C129.527 168.864 123.253 176.391 124.003 177.915L139.399 169.086L132.379 156.655L124.702 161.086Z" fill="#1B4CA1"/>
<path d="M133.91 165.466C134.255 165.376 134.651 165.594 134.754 165.936C134.856 166.277 134.638 166.683 134.297 166.781C133.956 166.875 133.471 166.631 133.407 166.277C133.343 165.927 133.624 165.462 133.978 165.453" fill="#E0E0E0"/>
<path d="M139.404 169.086L138.645 167.861L124.165 176.783C124.165 176.783 123.65 177.475 124.003 177.915L139.399 169.086H139.404Z" fill="white"/>
<path d="M129.234 168.928C129.28 169.001 129.673 168.821 130.184 168.851C130.691 168.868 131.071 169.086 131.122 169.014C131.182 168.958 130.815 168.574 130.197 168.548C129.583 168.518 129.178 168.868 129.234 168.928Z" fill="#263238"/>
<path d="M128.002 170.525C128.027 170.606 128.424 170.55 128.863 170.721C129.306 170.879 129.566 171.187 129.639 171.14C129.715 171.11 129.515 170.64 128.969 170.435C128.424 170.226 127.963 170.448 128.002 170.521V170.525Z" fill="#263238"/>
<path d="M128.193 172.988C128.27 172.967 128.159 172.527 127.733 172.228C127.307 171.925 126.859 171.964 126.863 172.045C126.855 172.13 127.213 172.22 127.558 172.476C127.912 172.719 128.117 173.027 128.193 172.992V172.988Z" fill="#263238"/>
<path d="M128.33 167.033C128.402 167.084 128.688 166.781 129.127 166.567C129.566 166.345 129.975 166.298 129.979 166.209C129.992 166.128 129.51 166.034 128.995 166.294C128.475 166.55 128.262 166.994 128.33 167.028V167.033Z" fill="#263238"/>
<path d="M133.91 165.466C134.255 165.376 134.651 165.594 134.754 165.936C134.856 166.277 134.638 166.683 134.297 166.781C133.956 166.875 133.471 166.631 133.407 166.277C133.343 165.927 133.624 165.462 133.978 165.453" fill="#E0E0E0"/>
<path d="M139.404 169.086L138.645 167.861L124.165 176.783C124.165 176.783 123.65 177.475 124.003 177.915L139.399 169.086H139.404Z" fill="white"/>
<path d="M129.234 168.928C129.28 169.001 129.673 168.821 130.184 168.851C130.691 168.868 131.071 169.086 131.122 169.014C131.182 168.958 130.815 168.574 130.197 168.548C129.583 168.518 129.178 168.868 129.234 168.928Z" fill="#263238"/>
<path d="M128.002 170.525C128.027 170.606 128.424 170.55 128.863 170.721C129.306 170.879 129.566 171.187 129.639 171.14C129.715 171.11 129.515 170.64 128.969 170.435C128.424 170.226 127.963 170.448 128.002 170.521V170.525Z" fill="#263238"/>
<path d="M128.193 172.988C128.27 172.967 128.159 172.527 127.733 172.228C127.307 171.925 126.859 171.964 126.863 172.045C126.855 172.13 127.213 172.22 127.558 172.476C127.912 172.719 128.117 173.027 128.193 172.992V172.988Z" fill="#263238"/>
<path d="M128.33 167.033C128.402 167.084 128.688 166.781 129.127 166.567C129.566 166.345 129.975 166.298 129.979 166.209C129.992 166.128 129.51 166.034 128.995 166.294C128.475 166.55 128.262 166.994 128.33 167.028V167.033Z" fill="#263238"/>
<path d="M123.952 163.553L124.472 172.698C124.472 172.698 115.367 176.297 115.299 177.996L133.039 177.62L132.813 163.34L123.956 163.549L123.952 163.553Z" fill="#1B4CA1"/>
<path d="M129.941 171.814C130.286 171.899 130.533 172.284 130.461 172.629C130.388 172.979 130.005 173.231 129.655 173.15C129.31 173.069 128.999 172.621 129.11 172.284C129.221 171.946 129.689 171.673 130.005 171.835" fill="#E0E0E0"/>
<path d="M133.036 177.624L132.955 176.186L115.977 177.082C115.977 177.082 115.193 177.445 115.295 178L133.036 177.624Z" fill="white"/>
<path d="M124.183 172.612C124.187 172.698 124.622 172.728 125.052 173.001C125.491 173.261 125.717 173.633 125.798 173.594C125.879 173.577 125.739 173.061 125.21 172.74C124.686 172.42 124.161 172.531 124.183 172.612Z" fill="#263238"/>
<path d="M122.337 173.423C122.32 173.509 122.695 173.645 122.998 174.008C123.309 174.358 123.394 174.755 123.479 174.751C123.56 174.764 123.611 174.252 123.228 173.812C122.848 173.368 122.337 173.342 122.337 173.423Z" fill="#263238"/>
<path d="M121.327 175.678C121.408 175.695 121.519 175.259 121.284 174.79C121.054 174.316 120.645 174.141 120.606 174.213C120.56 174.286 120.828 174.533 121.011 174.926C121.203 175.31 121.237 175.678 121.323 175.682L121.327 175.678Z" fill="#263238"/>
<path d="M124.293 170.516C124.332 170.593 124.728 170.465 125.218 170.491C125.709 170.503 126.092 170.661 126.139 170.584C126.186 170.52 125.811 170.209 125.231 170.187C124.656 170.166 124.255 170.448 124.298 170.516H124.293Z" fill="#263238"/>
<path d="M129.941 171.814C130.286 171.899 130.533 172.284 130.461 172.629C130.388 172.979 130.005 173.231 129.655 173.15C129.31 173.069 128.999 172.621 129.11 172.284C129.221 171.946 129.689 171.673 130.005 171.835" fill="#E0E0E0"/>
<path d="M133.036 177.624L132.955 176.186L115.977 177.082C115.977 177.082 115.193 177.445 115.295 178L133.036 177.624Z" fill="white"/>
<path d="M124.183 172.612C124.187 172.698 124.622 172.728 125.052 173.001C125.491 173.261 125.717 173.633 125.798 173.594C125.879 173.577 125.739 173.061 125.21 172.74C124.686 172.42 124.161 172.531 124.183 172.612Z" fill="#263238"/>
<path d="M122.337 173.423C122.32 173.509 122.695 173.645 122.998 174.008C123.309 174.358 123.394 174.755 123.479 174.751C123.56 174.764 123.611 174.252 123.228 173.812C122.848 173.368 122.337 173.342 122.337 173.423Z" fill="#263238"/>
<path d="M121.327 175.678C121.408 175.695 121.519 175.259 121.284 174.79C121.054 174.316 120.645 174.141 120.606 174.213C120.56 174.286 120.828 174.533 121.011 174.926C121.203 175.31 121.237 175.678 121.323 175.682L121.327 175.678Z" fill="#263238"/>
<path d="M124.293 170.516C124.332 170.593 124.728 170.465 125.218 170.491C125.709 170.503 126.092 170.661 126.139 170.584C126.186 170.52 125.811 170.209 125.231 170.187C124.656 170.166 124.255 170.448 124.298 170.516H124.293Z" fill="#263238"/>
<path d="M131.471 104.879C131.471 104.879 132.571 109.899 132.081 110.634C131.591 111.368 130.738 113.695 130.738 113.695L131.471 136.346L133.671 169.65H123.108L118.577 140.283C118.577 140.283 116.988 137.589 116.378 135.262C115.769 132.935 112.158 109.797 112.158 109.797V100.875L131.471 104.879Z" fill="#263238"/>
<path d="M107.375 101.472C107.375 101.472 109.579 131.817 110.312 134.511C111.045 137.205 126.062 164.749 126.062 164.749L135.124 160.292L123.108 131.211V103.141L107.375 101.472Z" fill="#263238"/>
<path d="M110.99 104.085C110.99 104.085 110.99 104.145 111.007 104.256C111.024 104.379 111.046 104.546 111.075 104.759C111.144 105.212 111.242 105.857 111.365 106.685C111.63 108.367 112.005 110.783 112.474 113.759C112.951 116.747 113.514 120.303 114.144 124.248C114.464 126.22 114.784 128.295 115.15 130.442C115.525 132.585 115.994 134.805 116.796 136.982C117.593 139.155 118.727 141.136 119.11 143.279C119.566 145.401 119.882 147.476 120.193 149.453C120.79 153.406 121.271 156.975 121.68 159.967C122.09 162.964 122.418 165.389 122.669 167.058C122.797 167.895 122.895 168.544 122.976 168.984C123.015 169.193 123.049 169.359 123.07 169.483C123.091 169.594 123.104 169.654 123.108 169.65C123.108 169.65 123.108 169.59 123.091 169.479C123.074 169.355 123.049 169.189 123.019 168.979C122.955 168.527 122.865 167.878 122.755 167.05C122.537 165.363 122.222 162.939 121.834 159.95C121.442 156.953 120.977 153.38 120.393 149.423C120.091 147.446 119.775 145.371 119.323 143.237C118.935 141.059 117.789 139.062 117.005 136.91C116.212 134.754 115.743 132.547 115.364 130.408C114.993 128.269 114.673 126.194 114.345 124.222C113.701 120.278 113.117 116.726 112.627 113.742C112.133 110.766 111.732 108.358 111.451 106.676C111.31 105.852 111.199 105.208 111.118 104.755C111.08 104.546 111.05 104.379 111.029 104.256C111.007 104.145 110.994 104.085 110.99 104.089V104.085Z" fill="#455A64"/>
<path d="M132.49 151.758C132.49 151.758 132.477 152.01 132.49 152.458C132.503 152.91 132.537 153.559 132.584 154.366C132.673 155.976 132.835 158.196 133.019 160.646C133.206 163.097 133.364 165.316 133.47 166.926C133.522 167.703 133.564 168.343 133.598 168.83C133.628 169.278 133.654 169.526 133.671 169.526C133.688 169.526 133.692 169.274 133.684 168.826C133.679 168.373 133.662 167.724 133.628 166.917C133.564 165.308 133.428 163.084 133.24 160.629C133.048 158.196 132.869 155.997 132.742 154.353C132.678 153.581 132.622 152.94 132.58 152.454C132.537 152.005 132.507 151.758 132.494 151.758H132.49Z" fill="#455A64"/>
<path d="M116.476 52.0104L115.218 52.8685C115.218 52.8685 110.248 63.9681 109.413 67.584C108.578 71.2042 105.014 109.003 105.014 109.003L107.96 109.238L107.968 103.312L116.476 52.0061V52.0104Z" fill="#455A64"/>
<path d="M116.391 52.7062C116.391 52.7062 112.358 61.2231 111.382 65.9618C110.632 69.6161 106.527 103.316 106.527 103.316L118.36 102.744L125.431 61.142L126.949 50.2771C126.949 50.2771 119.971 54.5291 118.373 54.2858C116.774 54.0467 116.391 52.7062 116.391 52.7062Z" fill="#7FAEFF"/>
<path d="M135.359 56.1856L127.831 50.2772L127.546 48.4841L118.283 54.098L113.808 108.602H133.057L130.845 86.2913L134.924 62.3331L135.359 56.1856Z" fill="#455A64"/>
<path d="M118.309 54.0084C118.309 54.0084 118.343 54.2005 118.445 54.5292C118.564 54.9006 118.714 55.3702 118.893 55.9252C118.939 56.0746 118.991 56.2283 119.046 56.3863C119.106 56.5357 119.123 56.7364 119.319 56.89C119.54 57.0352 119.796 56.9071 119.945 56.7833C120.099 56.6638 120.252 56.54 120.414 56.4119C121.058 55.8996 121.757 55.3404 122.49 54.7555C123.956 53.573 125.265 52.4715 126.19 51.6519C126.654 51.242 127.021 50.9048 127.273 50.6657C127.524 50.4266 127.656 50.29 127.648 50.2772C127.639 50.2644 127.486 50.3797 127.217 50.6017C126.914 50.8493 126.539 51.1609 126.088 51.5323C125.137 52.3221 123.816 53.3979 122.349 54.5847C121.621 55.1739 120.921 55.7374 120.286 56.2582C119.971 56.4802 119.656 56.8815 119.421 56.7406C119.315 56.6723 119.268 56.4887 119.208 56.3308C119.153 56.1728 119.097 56.0191 119.042 55.874C118.837 55.3276 118.667 54.8665 118.53 54.5036C118.402 54.1834 118.33 54.0041 118.313 54.0084H118.309Z" fill="#263238"/>
<path d="M111.374 61.8464C111.374 61.8464 111.37 61.8891 111.353 61.9659C111.331 62.0556 111.301 62.1666 111.263 62.3074C111.186 62.6105 111.05 63.046 110.914 63.6181C110.794 64.1944 110.615 64.8945 110.457 65.7185C110.308 66.5424 110.112 67.4773 109.95 68.519C109.247 72.6813 108.488 78.466 107.768 84.8696C107.039 91.2733 106.472 97.0835 106.046 101.284C105.833 103.372 105.662 105.071 105.543 106.262C105.479 106.838 105.432 107.291 105.398 107.615C105.381 107.761 105.364 107.876 105.355 107.965C105.343 108.047 105.338 108.085 105.334 108.085C105.334 108.085 105.334 108.042 105.334 107.965C105.338 107.872 105.347 107.756 105.355 107.611C105.381 107.287 105.415 106.83 105.462 106.254C105.564 105.058 105.713 103.363 105.897 101.271C106.28 97.0664 106.826 91.2519 107.555 84.844C108.275 78.4404 109.059 72.6515 109.801 68.4891C109.972 67.4474 110.18 66.5125 110.342 65.6886C110.513 64.8646 110.7 64.1688 110.833 63.5924C110.982 63.0204 111.135 62.5849 111.225 62.2861C111.272 62.1495 111.306 62.0385 111.336 61.9488C111.361 61.872 111.378 61.8336 111.378 61.8378L111.374 61.8464Z" fill="#263238"/>
<path d="M169.577 61.2435L56.4009 70.0052L59.9966 116.596L173.172 107.834L169.577 61.2435Z" fill="#FAFAFA"/>
<path d="M173.175 107.837C173.128 107.227 171.769 90.0182 169.501 61.253L169.586 61.3256C140.691 63.5711 100.654 66.6833 56.418 70.1199H56.4095L56.5118 70.0004C57.7692 86.3254 58.984 102.074 60.1008 116.593L59.9857 116.495C92.8066 113.976 121.088 111.803 141.168 110.262C161.245 108.742 172.672 107.88 173.171 107.842C173.171 107.842 172.992 107.859 172.63 107.889C172.263 107.918 171.726 107.961 171.014 108.021C169.586 108.136 167.481 108.303 164.748 108.52C159.267 108.952 151.283 109.579 141.249 110.369C121.152 111.936 92.8492 114.147 60.0027 116.709L59.8962 116.717L59.8876 116.61C58.7666 102.091 57.5476 86.3425 56.2859 70.0174L56.2773 69.9064L56.3882 69.8979H56.3967C100.632 66.4869 140.674 63.3961 169.569 61.1676H169.646L169.65 61.2402C171.824 90.0182 173.12 107.231 173.167 107.837H173.175Z" fill="#263238"/>
<path d="M78.6454 82.9359C78.6769 79.2438 75.7141 76.2251 72.0277 76.1936C68.3413 76.162 65.3274 79.1294 65.2959 82.8216C65.2643 86.5137 68.2272 89.5323 71.9135 89.5639C75.5999 89.5955 78.6138 86.628 78.6454 82.9359Z" fill="#EBEBEB"/>
<path d="M119.528 76.7754C119.532 76.8352 111.506 77.5097 101.6 78.2739C91.6899 79.0423 83.6551 79.6144 83.6509 79.5503C83.6466 79.4905 91.6728 78.816 101.583 78.0519C111.489 77.2834 119.524 76.7114 119.528 76.7754Z" fill="#1B4CA1"/>
<path d="M111.041 82.4448C111.046 82.5046 104.916 83.0297 97.3545 83.6146C89.7887 84.1994 83.6507 84.6263 83.6465 84.5623C83.6422 84.5025 89.7716 83.9774 97.3375 83.3926C104.903 82.8077 111.037 82.3808 111.041 82.4448Z" fill="#E0E0E0"/>
<path d="M158.12 89.1814C158.125 89.2412 139.135 90.761 115.713 92.5753C92.2824 94.3897 73.2889 95.8113 73.2847 95.7473C73.2804 95.6875 92.2654 94.1677 115.696 92.3533C139.118 90.539 158.116 89.1174 158.12 89.1814Z" fill="#263238"/>
<path d="M158.564 94.9191C158.568 94.9788 139.579 96.4986 116.157 98.313C92.7258 100.127 73.7323 101.549 73.728 101.485C73.7238 101.425 92.7087 99.9054 116.139 98.091C139.562 96.2766 158.559 94.855 158.564 94.9191Z" fill="#263238"/>
<path d="M125.167 59.6307C125.636 55.4854 130.137 53.2143 133.811 55.1738C135.61 56.1343 137.285 57.8505 138.329 60.5614C141.04 67.5883 146.496 78.4574 145.465 80.7756C144.433 83.098 138.999 85.0617 138.999 85.0617L133.952 76.4254L132.277 76.6815L124.579 63.5241C124.579 63.5241 124.898 61.936 125.163 59.6265L125.167 59.6307Z" fill="#455A64"/>
<path d="M136.689 73.5011C136.689 73.5011 136.429 73.3559 135.964 73.3773C135.508 73.3943 134.847 73.5993 134.361 74.1414C133.88 74.6879 133.752 75.3709 133.79 75.8235C133.824 76.2888 133.978 76.5407 133.995 76.5321C134.029 76.5193 133.935 76.2546 133.944 75.8192C133.944 75.3923 134.088 74.7775 134.523 74.2866C134.958 73.7999 135.55 73.5822 135.977 73.531C136.407 73.4712 136.68 73.5352 136.689 73.4968V73.5011Z" fill="#263238"/>
<path d="M125.683 60.0235C125.726 60.0321 125.819 59.3447 126.25 58.3287C126.463 57.8249 126.778 57.2443 127.217 56.6723C127.665 56.1088 128.249 55.5452 128.978 55.161C129.711 54.7811 130.512 54.6445 131.228 54.6274C131.949 54.606 132.597 54.7213 133.117 54.8835C134.174 55.2037 134.655 55.7374 134.685 55.6947C134.69 55.6904 134.664 55.6562 134.604 55.5965C134.545 55.541 134.468 55.4428 134.336 55.3531C134.093 55.1525 133.696 54.922 133.164 54.7341C132.635 54.5505 131.966 54.4139 131.22 54.4267C130.478 54.4353 129.647 54.5676 128.871 54.9689C128.1 55.3745 127.503 55.9636 127.051 56.5527C126.604 57.1504 126.297 57.7524 126.096 58.2732C125.896 58.7983 125.785 59.238 125.73 59.5454C125.674 59.8528 125.662 60.0235 125.674 60.0278L125.683 60.0235Z" fill="#263238"/>
<path d="M133.952 76.4254L117.708 76.5321L116.953 81.7106C116.953 81.7106 129.591 84.716 138.346 83.9433L133.952 76.4211V76.4254Z" fill="#FFBE9D"/>
<path d="M111.621 71.0975C111.621 71.0975 114.716 71.3708 115.172 71.4604C115.628 71.5501 117.495 73.0101 117.495 73.0101L118.373 77.1981L116.958 81.7105C116.958 81.7105 115.449 81.4885 114.174 80.8055C112.9 80.1224 110.986 77.2023 110.986 77.2023C110.986 77.2023 109.758 77.2493 109.665 77.0657C109.571 76.8822 109.255 76.0155 109.665 75.7893C109.665 75.7893 109.345 74.6025 109.801 74.2865L110.393 74.1969C110.393 74.1969 109.848 72.6942 110.892 72.6942C110.892 72.6942 110.393 71.2811 111.621 71.0975Z" fill="#FFBE9D"/>
<path d="M110.969 72.579C110.977 72.643 111.834 72.5918 112.883 72.6686C113.931 72.7412 114.775 72.912 114.788 72.8479C114.805 72.7924 113.97 72.5235 112.895 72.4509C111.821 72.3741 110.96 72.5277 110.969 72.5832V72.579Z" fill="#FFB294"/>
<path d="M110.168 74.1926C110.172 74.2225 110.355 74.2183 110.653 74.2311C111.071 74.2567 111.434 74.2737 111.817 74.2994C112.729 74.3378 113.471 74.3207 113.475 74.2609C113.475 74.2012 112.742 74.1201 111.826 74.0774C111.37 74.0603 110.956 74.0475 110.649 74.0774C110.347 74.103 110.163 74.167 110.168 74.1926Z" fill="#FFB294"/>
<path d="M112.516 75.5119C112.542 75.4606 111.907 75.1959 111.084 75.2856C110.261 75.371 109.699 75.7637 109.733 75.8064C109.763 75.8662 110.338 75.5802 111.11 75.5033C111.877 75.4179 112.499 75.5759 112.516 75.5119Z" fill="#FFB294"/>
<path d="M98.548 65.9789C98.548 65.9789 97.8703 64.9885 97.4952 64.7707C97.1201 64.553 96.5916 64.5402 96.3486 64.7366L96.1099 64.9372C96.1099 64.9372 94.9207 64.3438 94.3239 64.7408C94.3239 64.7408 93.1944 64.1474 92.619 64.7494C92.619 64.7494 91.7537 64.1346 91.3573 64.6256C90.9609 65.1165 90.9651 65.9703 91.1314 66.4143C91.2933 66.8626 91.5747 68.3696 91.8389 68.408C91.8389 68.408 92.5422 68.5105 92.6531 68.1348C92.7639 67.7548 92.8108 67.5713 92.8108 67.5713C92.8108 67.5713 93.0282 68.9374 93.3478 69.0185C93.6718 69.0996 94.2941 69.0868 94.3367 68.4934C94.3367 68.4934 94.6223 68.9544 94.9207 68.8349C95.2191 68.7154 95.5942 68.5147 95.5771 68.1433C95.5601 67.7719 95.5686 67.4048 95.5686 67.4048C95.5686 67.4048 95.7092 67.9469 95.982 67.8402C96.2548 67.7335 96.5234 67.7719 96.6896 67.3236C96.8558 66.8754 97.2778 65.996 97.2778 65.996L98.5438 65.9789H98.548Z" fill="#FFBE9D"/>
<path d="M95.5939 67.3792C95.5939 67.3792 95.547 67.2298 95.4959 66.9907C95.4405 66.7516 95.4106 66.4101 95.4959 66.0515C95.5769 65.6886 95.7516 65.394 95.9008 65.2019C96.05 65.0098 96.1694 64.9116 96.1566 64.8946C96.1481 64.8817 96.0074 64.9586 95.8369 65.1464C95.6621 65.33 95.4661 65.6374 95.3765 66.0216C95.2913 66.4058 95.3339 66.7687 95.4106 67.0078C95.4874 67.2511 95.5811 67.3792 95.5897 67.3749L95.5939 67.3792Z" fill="#FFB294"/>
<path d="M94.2473 64.7451C94.2473 64.7451 94.1492 64.9372 94.0725 65.2745C93.9915 65.6075 93.9233 66.0856 93.9361 66.6107C93.9489 67.1358 94.0427 67.6097 94.1407 67.9384C94.2388 68.2671 94.3325 68.4592 94.3453 68.455C94.3837 68.4464 94.0725 67.6438 94.0512 66.6064C94.0171 65.5691 94.2814 64.7537 94.243 64.7451H94.2473Z" fill="#FFB294"/>
<path d="M92.5892 64.7665C92.5594 64.7622 92.4528 65.4026 92.5125 66.2009C92.5679 66.9992 92.7682 67.6183 92.7981 67.6054C92.8322 67.5969 92.6872 66.9736 92.6318 66.1924C92.5722 65.4111 92.6233 64.7708 92.5892 64.7665Z" fill="#FFB294"/>
<path d="M44.2998 113.618C44.0099 110.365 45.6552 107.483 48.9075 107.282H49.2101C52.2493 107.27 54.7854 109.596 55.0412 112.632C55.2799 115.453 55.5058 118.57 55.4887 120.081C55.4632 123.215 52.3345 123.714 52.3345 123.714L52.3985 124.717C52.5476 126.997 50.7063 128.905 48.4301 128.841C46.3884 128.782 44.7431 127.142 44.6791 125.097L44.2998 113.618Z" fill="#FFBE9D"/>
<path d="M52.3388 123.71C52.3388 123.71 50.361 123.876 48.2554 122.562C48.2554 122.562 49.2272 124.811 52.3473 124.521L52.3388 123.71Z" fill="#EB996E"/>
<path d="M54.065 114.975C54.0735 115.21 53.8817 115.415 53.6344 115.428C53.3872 115.441 53.1826 115.261 53.1741 115.027C53.1656 114.792 53.3574 114.587 53.6046 114.574C53.8518 114.561 54.0564 114.741 54.065 114.975Z" fill="#263238"/>
<path d="M54.4187 113.998C54.3633 114.057 54.0223 113.806 53.5449 113.81C53.0633 113.81 52.7137 114.053 52.6583 113.998C52.6328 113.972 52.6882 113.865 52.8416 113.754C52.9908 113.643 53.2508 113.532 53.5492 113.532C53.8476 113.532 54.099 113.643 54.2482 113.754C54.3974 113.865 54.4486 113.972 54.4187 113.998Z" fill="#263238"/>
<path d="M49.5596 115.095C49.5681 115.33 49.3763 115.535 49.1291 115.547C48.8819 115.56 48.6773 115.381 48.6687 115.146C48.6602 114.911 48.852 114.706 49.0992 114.694C49.3465 114.681 49.5511 114.86 49.5596 115.095Z" fill="#263238"/>
<path d="M49.6276 113.882C49.5808 113.947 49.2142 113.737 48.7368 113.789C48.2594 113.836 47.9354 114.122 47.8758 114.07C47.8459 114.049 47.8928 113.938 48.0335 113.81C48.1699 113.682 48.4171 113.545 48.7112 113.511C49.0096 113.481 49.2696 113.562 49.4273 113.656C49.585 113.754 49.6489 113.853 49.6234 113.882H49.6276Z" fill="#263238"/>
<path d="M51.405 117.836C51.405 117.81 51.7033 117.755 52.185 117.691C52.3086 117.678 52.4237 117.652 52.445 117.567C52.4748 117.477 52.4237 117.345 52.3597 117.204C52.2447 116.905 52.1211 116.593 51.9932 116.269C51.4859 114.937 51.1151 113.844 51.1705 113.823C51.2259 113.801 51.682 114.864 52.1893 116.196C52.3129 116.525 52.4279 116.837 52.5388 117.136C52.5857 117.276 52.6666 117.434 52.6027 117.618C52.5686 117.712 52.4791 117.776 52.4024 117.797C52.3256 117.823 52.2532 117.823 52.1935 117.827C51.7076 117.857 51.405 117.857 51.4007 117.827L51.405 117.836Z" fill="#263238"/>
<path d="M49.99 118.173C50.0668 118.169 50.071 118.689 50.5186 119.061C50.9661 119.432 51.5203 119.372 51.5245 119.445C51.533 119.479 51.4009 119.548 51.1665 119.556C50.9363 119.565 50.5996 119.492 50.3268 119.266C50.054 119.04 49.9346 118.736 49.9176 118.523C49.8963 118.305 49.9559 118.173 49.99 118.177V118.173Z" fill="#263238"/>
<path d="M49.5637 112.294C49.5296 112.431 49.0437 112.41 48.4895 112.525C47.9311 112.632 47.4921 112.837 47.4069 112.726C47.3685 112.674 47.4367 112.542 47.6072 112.401C47.7777 112.26 48.059 112.115 48.3915 112.047C48.724 111.978 49.0394 112.008 49.2525 112.072C49.4656 112.136 49.5807 112.23 49.5637 112.294Z" fill="#263238"/>
<path d="M54.1926 112.772C54.1073 112.883 53.7749 112.772 53.3785 112.764C52.9821 112.747 52.6453 112.841 52.5643 112.726C52.5302 112.67 52.5814 112.559 52.7306 112.457C52.8755 112.354 53.1184 112.269 53.3912 112.273C53.664 112.282 53.9027 112.38 54.0434 112.491C54.1841 112.602 54.2309 112.717 54.1926 112.768V112.772Z" fill="#263238"/>
<path d="M46.2346 114.578C46.1962 114.595 46.3752 114.907 46.7759 115.039C47.1723 115.176 47.5048 115.035 47.4835 114.997C47.4749 114.954 47.168 115.014 46.8228 114.894C46.4733 114.783 46.2687 114.548 46.2346 114.574V114.578Z" fill="#EB996E"/>
<path d="M46.2303 115.641C46.2474 115.68 46.4818 115.607 46.7674 115.535C47.053 115.462 47.2959 115.424 47.2917 115.381C47.2917 115.338 47.0359 115.313 46.729 115.389C46.4221 115.462 46.209 115.607 46.2261 115.641H46.2303Z" fill="#EB996E"/>
<path d="M53.549 117.571C53.5575 117.605 53.6385 117.614 53.7323 117.592C53.8261 117.571 53.8943 117.524 53.89 117.49C53.8815 117.456 53.8005 117.447 53.7067 117.469C53.613 117.49 53.5448 117.537 53.549 117.571Z" fill="#EB996E"/>
<path d="M53.5533 117.831C53.5448 117.866 53.5874 117.904 53.6471 117.912C53.7068 117.925 53.7579 117.904 53.7622 117.87C53.7665 117.836 53.7281 117.797 53.6684 117.789C53.6087 117.776 53.5576 117.797 53.5533 117.831Z" fill="#EB996E"/>
<path d="M49.244 118.493C49.244 118.493 49.3165 118.459 49.3889 118.382C49.4657 118.305 49.5637 118.199 49.6916 118.126C49.8152 118.058 49.9558 118.045 50.0496 118.062C50.1434 118.079 50.1945 118.122 50.2116 118.105C50.2286 118.096 50.1988 118.015 50.0837 117.959C49.9729 117.904 49.7853 117.9 49.6191 117.989C49.4571 118.083 49.3634 118.216 49.3037 118.31C49.2483 118.408 49.227 118.472 49.244 118.485V118.493Z" fill="#EB996E"/>
<path d="M46.3585 122.848C46.3585 122.848 46.3287 122.818 46.2988 122.771C46.269 122.724 46.2477 122.634 46.2733 122.536C46.2946 122.434 46.3756 122.323 46.431 122.16C46.4565 122.079 46.4693 121.981 46.4352 121.879C46.3969 121.776 46.3244 121.712 46.286 121.648C46.2477 121.584 46.2434 121.541 46.2818 121.49C46.3201 121.439 46.3883 121.392 46.448 121.332C46.512 121.277 46.5631 121.183 46.5674 121.102C46.5759 121.02 46.5588 120.948 46.5375 120.888C46.4864 120.769 46.4139 120.696 46.367 120.649C46.3159 120.602 46.286 120.585 46.2775 120.589C46.2519 120.606 46.367 120.717 46.4352 120.918C46.4608 121.02 46.4565 121.144 46.3542 121.225C46.3031 121.272 46.2306 121.315 46.1667 121.396C46.09 121.477 46.0985 121.644 46.1667 121.725C46.2221 121.81 46.286 121.866 46.3031 121.925C46.3244 121.981 46.3201 122.054 46.3031 122.118C46.269 122.25 46.1923 122.382 46.1752 122.51C46.1582 122.643 46.2051 122.749 46.2605 122.801C46.3159 122.852 46.3628 122.848 46.3628 122.843L46.3585 122.848Z" fill="#EB996E"/>
<path d="M45.5655 122.557C45.5655 122.557 45.5357 122.549 45.5229 122.51C45.5059 122.468 45.5527 122.446 45.5996 122.327C45.6337 122.199 45.557 122.075 45.5144 121.972C45.4632 121.866 45.4803 121.776 45.5698 121.674C45.655 121.571 45.7744 121.477 45.8341 121.341C45.9023 121.2 45.8468 121.037 45.7744 120.965C45.7019 120.88 45.6124 120.85 45.5527 120.85C45.4931 120.85 45.4632 120.867 45.4632 120.875C45.4632 120.897 45.5954 120.892 45.6891 121.033C45.7318 121.101 45.7573 121.195 45.7062 121.285C45.6593 121.379 45.557 121.464 45.4547 121.58C45.4036 121.639 45.3567 121.716 45.3439 121.802C45.3311 121.891 45.3609 121.972 45.3865 122.032C45.4504 122.152 45.5059 122.237 45.4931 122.305C45.4931 122.34 45.4675 122.374 45.4547 122.421C45.4377 122.463 45.4462 122.519 45.4675 122.544C45.5144 122.608 45.5741 122.574 45.5613 122.566L45.5655 122.557Z" fill="#EB996E"/>
<path d="M44.5637 115.936C44.5083 115.915 42.4112 115.308 42.4879 117.447C42.5646 119.586 44.6958 119.069 44.6958 119.01C44.6958 118.95 44.5637 115.936 44.5637 115.936Z" fill="#FFBE9D"/>
<path d="M44.014 118.224C44.014 118.224 43.9756 118.25 43.916 118.284C43.8563 118.314 43.7497 118.339 43.6389 118.301C43.4087 118.224 43.2084 117.874 43.1828 117.49C43.17 117.293 43.2041 117.11 43.2681 116.952C43.3277 116.794 43.4258 116.679 43.5366 116.657C43.6474 116.627 43.7327 116.691 43.7583 116.751C43.7881 116.811 43.7753 116.854 43.7881 116.858C43.7924 116.862 43.8307 116.82 43.8137 116.734C43.8051 116.691 43.7753 116.64 43.7242 116.602C43.673 116.563 43.5963 116.542 43.5153 116.555C43.3491 116.572 43.2084 116.73 43.1359 116.901C43.0592 117.071 43.0123 117.285 43.0294 117.503C43.0592 117.934 43.2936 118.331 43.6048 118.408C43.7583 118.442 43.8819 118.391 43.9415 118.339C44.0055 118.284 44.014 118.237 44.0097 118.233L44.014 118.224Z" fill="#263238"/>
<path d="M55.3735 108.973C55.2797 108.559 54.9685 108.162 54.5508 108.102C54.7256 107.701 54.5892 107.189 54.2354 106.928C53.8859 106.668 53.3531 106.689 53.0206 106.975C53.0462 106.322 52.2406 105.797 51.6566 106.083C51.6779 105.703 51.4137 105.327 51.0471 105.225C50.6848 105.118 50.2585 105.297 50.0752 105.63C49.6234 104.862 48.3745 104.764 47.8076 105.455C46.9551 105.152 45.9023 105.622 45.557 106.463C44.858 106.501 44.2101 107.013 44.0055 107.684C43.558 107.722 43.1402 108.012 42.9484 108.422C42.7566 108.832 42.7992 109.34 43.0592 109.707C42.5179 109.972 42.4114 110.83 42.8674 111.219C42.552 111.376 42.3389 111.722 42.3474 112.077C42.3559 112.431 42.5776 112.772 42.9015 112.918C42.5861 112.956 42.4625 113.374 42.5563 113.678C42.65 113.981 42.8802 114.224 43.0038 114.514C43.1061 114.753 43.136 115.022 43.2255 115.266C43.3917 115.727 43.7753 116.107 44.2357 116.273C44.2186 116.294 44.1973 116.316 44.1803 116.337C44.1249 116.61 44.5085 116.798 44.7642 116.692C45.02 116.581 45.1692 116.316 45.3141 116.077C45.4846 115.804 45.6849 115.539 45.7616 115.227C45.8384 114.916 45.7489 114.531 45.4633 114.386C45.8341 114.262 46.0685 113.882 46.1367 113.503C46.2049 113.118 46.1367 112.726 46.0643 112.341C45.962 111.774 45.8597 111.21 45.7574 110.642C46.5331 110.621 47.2748 110.13 47.5988 109.421C48.1529 109.848 49.0821 109.618 49.3719 108.982C49.6234 109.75 50.5484 110.215 51.3156 109.963C51.2304 110.407 52.0275 110.817 52.4622 110.933C52.897 111.048 53.4426 110.74 53.4426 110.74C53.4426 110.74 54.1928 111.18 54.602 111.018C55.0026 110.856 55.544 110.339 55.2797 109.916C55.2797 109.916 55.4587 109.4 55.365 108.986L55.3735 108.973Z" fill="#263238"/>
<path d="M42.761 111.206C42.761 111.206 42.7951 111.355 42.9742 111.483C43.0594 111.543 43.1915 111.586 43.3237 111.547C43.4558 111.509 43.5879 111.389 43.622 111.231L43.6476 111.103L43.7457 111.193C43.8863 111.321 44.1293 111.372 44.3339 111.283C44.564 111.184 44.6919 110.924 44.6663 110.715L44.6493 110.587L44.7644 110.634C44.9136 110.693 45.0755 110.681 45.1992 110.629C45.3228 110.578 45.408 110.484 45.4592 110.399C45.5615 110.22 45.5444 110.083 45.5657 110.083C45.5742 110.079 45.6297 110.22 45.5359 110.437C45.489 110.544 45.3952 110.664 45.246 110.74C45.1011 110.813 44.9008 110.843 44.7047 110.77L44.807 110.693C44.8454 110.967 44.6962 111.295 44.3935 111.428C44.125 111.539 43.8266 111.47 43.6434 111.3L43.767 111.257C43.7116 111.483 43.5283 111.628 43.3535 111.667C43.1702 111.71 43.0083 111.637 42.9145 111.556C42.7184 111.377 42.7482 111.197 42.7568 111.206H42.761Z" fill="#FAFAFA"/>
<path d="M42.4456 113.259C42.4456 113.259 42.5223 113.319 42.6757 113.349C42.8164 113.379 43.0849 113.349 43.2128 113.118L43.2554 113.046L43.3151 113.11C43.4345 113.238 43.6518 113.315 43.8607 113.259C44.0653 113.208 44.2486 112.999 44.2614 112.76V112.619L44.385 112.696C44.4148 112.713 44.4489 112.73 44.483 112.738C44.645 112.785 44.8325 112.721 44.9135 112.593C45.003 112.465 44.9988 112.286 44.9306 112.166L44.8496 112.034L44.9988 112.055C45.1863 112.085 45.3654 112.025 45.4932 111.931C45.6211 111.838 45.6936 111.714 45.7319 111.603C45.8087 111.376 45.7575 111.231 45.7788 111.227C45.7873 111.219 45.8683 111.364 45.8129 111.624C45.7831 111.752 45.7106 111.906 45.5614 112.021C45.4165 112.136 45.2076 112.217 44.9775 112.192L45.0499 112.081C45.1565 112.247 45.1608 112.482 45.0414 112.67C44.9178 112.862 44.662 112.952 44.4319 112.883C44.3807 112.871 44.3296 112.845 44.2912 112.819L44.4148 112.755C44.3978 113.076 44.1633 113.332 43.8905 113.396C43.6177 113.46 43.3577 113.349 43.2171 113.182L43.3194 113.169C43.2341 113.315 43.0935 113.387 42.9741 113.417C42.8505 113.447 42.7397 113.434 42.6587 113.409C42.4882 113.353 42.4413 113.255 42.4456 113.251V113.259Z" fill="#FAFAFA"/>
<path d="M51.3798 106.019C51.3798 106.019 51.3116 105.933 51.1368 105.882C51.0516 105.857 50.9365 105.848 50.8256 105.899C50.7148 105.951 50.5997 106.057 50.5656 106.211L50.5358 106.335L50.4719 106.224C50.3568 106.027 50.1053 105.857 49.8112 105.857C49.5213 105.857 49.2016 106.07 49.1079 106.399L49.0695 106.54L48.98 106.424C48.8138 106.211 48.5324 106.07 48.2383 106.07C47.9442 106.066 47.6501 106.232 47.4796 106.497C47.4114 106.604 47.3645 106.723 47.3475 106.843L47.3347 106.928L47.2494 106.907C46.836 106.804 46.3842 107.039 46.2307 107.389C46.0687 107.739 46.1668 108.158 46.3842 108.388L46.4652 108.478L46.3458 108.499C46.0645 108.55 45.8386 108.721 45.7064 108.913C45.57 109.105 45.5317 109.315 45.5274 109.481C45.5274 109.823 45.6595 109.993 45.6425 110.002C45.6382 110.002 45.6041 109.968 45.5615 109.882C45.5189 109.797 45.4677 109.665 45.4549 109.485C45.4464 109.306 45.4763 109.075 45.6169 108.858C45.7533 108.64 46.0005 108.444 46.3202 108.375L46.2861 108.482C46.0261 108.213 45.9025 107.748 46.0901 107.329C46.2733 106.911 46.7848 106.638 47.2835 106.757L47.1855 106.821C47.2068 106.676 47.2622 106.535 47.3432 106.412C47.5393 106.104 47.8888 105.904 48.2341 105.912C48.5793 105.912 48.899 106.079 49.0908 106.335L48.9587 106.36C49.0823 105.963 49.4617 105.72 49.8069 105.733C50.1564 105.741 50.4292 105.951 50.5528 106.181L50.4591 106.194C50.5102 106.006 50.6509 105.886 50.7873 105.835C50.9237 105.784 51.0558 105.801 51.1453 105.835C51.2391 105.869 51.2945 105.925 51.3286 105.959C51.3627 105.997 51.3712 106.023 51.367 106.023L51.3798 106.019Z" fill="#FAFAFA"/>
<path d="M67.0826 77.4072C66.5498 76.7797 66.0128 76.1479 65.6291 75.4136C65.2498 74.6836 65.0324 73.8383 65.1901 73.0271C65.2839 72.5533 65.497 72.1093 65.5439 71.6269C65.6078 70.9652 65.3521 70.2693 65.6036 69.6546C65.9957 68.6983 67.3043 68.5873 68.1141 67.9384C68.745 67.4346 69.0689 66.5979 69.7552 66.1795C70.3562 65.8124 71.1149 65.8465 71.8097 65.9661C72.5045 66.0856 73.1992 66.282 73.8983 66.2094C74.397 66.1582 74.8701 65.9703 75.3603 65.8636C75.8505 65.7569 76.3961 65.7398 76.8223 66.0045C77.2486 66.2692 77.4745 66.8925 77.1761 67.298C77.9945 66.9479 79.0047 67.6097 79.2008 68.4806C79.3969 69.3515 78.928 70.2693 78.2247 70.82C77.5214 71.3707 76.6305 71.6098 75.7525 71.7464C73.2632 72.1392 70.5864 71.7976 68.4935 70.3931" fill="#1B4CA1"/>
<path d="M78.4377 80.3828C78.3993 78.8459 78.0626 75.6911 77.7258 72.8436C77.3635 69.7827 74.7123 67.5115 71.6348 67.6268L71.3279 67.6396C68.0373 67.9555 66.4687 70.931 66.8736 74.2182L67.9733 85.4246C68.2888 88.8442 70.4157 89.1302 72.385 89.0107C74.4011 88.8869 75.6628 87.2603 75.4667 85.2752C75.373 84.3317 75.3687 84.272 75.3644 84.1738C75.3644 84.1738 78.5187 83.559 78.4377 80.3828Z" fill="#FFBE9D"/>
<path d="M75.3686 84.1268C75.3686 84.1268 73.3695 84.3658 71.1914 83.1064C71.1914 83.1064 72.2528 85.3563 75.407 84.9507L75.3686 84.1268Z" fill="#FFB294"/>
<path d="M76.5709 75.4221C76.5879 75.6612 76.4004 75.8746 76.1531 75.896C75.9059 75.9173 75.6885 75.7423 75.6715 75.5032C75.6544 75.2642 75.842 75.0507 76.0892 75.0293C76.3364 75.008 76.5538 75.183 76.5709 75.4221Z" fill="#263238"/>
<path d="M77.1038 74.4231C77.0484 74.4829 76.6988 74.2438 76.2087 74.2609C75.7227 74.2737 75.3732 74.5384 75.3178 74.4786C75.2922 74.453 75.3434 74.3463 75.4968 74.2267C75.646 74.1072 75.9018 73.9877 76.2087 73.9791C76.5113 73.9706 76.7713 74.0731 76.9205 74.1798C77.0739 74.2908 77.1293 74.3932 77.1038 74.4231Z" fill="#263238"/>
<path d="M71.9717 75.7295C71.9888 75.9685 71.8012 76.182 71.554 76.2033C71.3068 76.2247 71.0894 76.0497 71.0724 75.8106C71.0553 75.5715 71.2429 75.3581 71.4901 75.3367C71.7373 75.3154 71.9547 75.4904 71.9717 75.7295Z" fill="#263238"/>
<path d="M72.3211 74.6963C72.2656 74.7561 71.9161 74.517 71.4259 74.5341C70.94 74.5469 70.5905 74.8116 70.5351 74.7518C70.5095 74.7262 70.5607 74.6195 70.7141 74.4999C70.8633 74.3804 71.119 74.2609 71.4217 74.2523C71.7243 74.2438 71.9843 74.3463 72.1378 74.453C72.2912 74.564 72.3466 74.6664 72.3211 74.6963Z" fill="#263238"/>
<path d="M74.2221 78.2482C74.2221 78.2226 74.5204 78.1586 75.0063 78.0775C75.13 78.0604 75.245 78.0305 75.2664 77.9451C75.2919 77.8555 75.2365 77.7231 75.1683 77.578C75.0404 77.2791 74.904 76.9675 74.7634 76.643C74.2007 75.3111 73.7915 74.2139 73.8427 74.1926C73.8981 74.1712 74.3968 75.23 74.9552 76.5619C75.0916 76.8906 75.2195 77.2023 75.3431 77.5011C75.3942 77.642 75.4837 77.8 75.4241 77.9878C75.3942 78.0817 75.3047 78.1543 75.228 78.1756C75.1513 78.2013 75.0788 78.2055 75.0191 78.2141C74.5247 78.261 74.222 78.2738 74.2178 78.244L74.2221 78.2482Z" fill="#263238"/>
<path d="M72.8027 78.6367C72.8837 78.6282 72.9007 79.1575 73.3696 79.5161C73.8342 79.8747 74.3968 79.7936 74.4054 79.8705C74.4139 79.9046 74.2817 79.9772 74.0473 79.9943C73.8129 80.0114 73.4719 79.9473 73.1863 79.7296C72.9007 79.5076 72.7728 79.2045 72.7473 78.991C72.7174 78.769 72.7728 78.6367 72.8112 78.6367H72.8027Z" fill="#263238"/>
<path d="M72.372 72.7796C72.3294 72.9119 71.8392 72.8692 71.2723 72.9589C70.7011 73.0357 70.245 73.2235 70.1683 73.1083C70.1342 73.0528 70.2067 72.9247 70.39 72.7881C70.569 72.6515 70.8588 72.5191 71.1998 72.4679C71.5408 72.4167 71.8563 72.4594 72.0694 72.5362C72.2825 72.6131 72.3933 72.7113 72.372 72.7753V72.7796Z" fill="#1B4CA1"/>
<path d="M76.8732 73.0187C76.7922 73.1339 76.4512 73.0315 76.0462 73.04C75.6413 73.0357 75.3046 73.1425 75.2193 73.0315C75.181 72.976 75.2321 72.865 75.377 72.754C75.522 72.643 75.7649 72.5491 76.042 72.5491C76.319 72.5491 76.562 72.6387 76.7069 72.7454C76.8518 72.8522 76.903 72.9674 76.8689 73.0229L76.8732 73.0187Z" fill="#1B4CA1"/>
<path d="M67.2231 76.5577C67.1677 76.5363 65.0194 75.9942 65.1729 78.1629C65.3221 80.3316 67.4661 79.7339 67.4661 79.6699C67.4661 79.6058 67.2274 76.5577 67.2274 76.5577H67.2231Z" fill="#FFBE9D"/>
<path d="M66.7458 78.8929C66.7458 78.8929 66.7117 78.9228 66.6477 78.9569C66.5881 78.9911 66.4815 79.0167 66.3664 78.9825C66.132 78.9142 65.9146 78.5642 65.8762 78.1757C65.8592 77.9793 65.8848 77.7872 65.9444 77.6292C65.9999 77.467 66.0936 77.3475 66.2087 77.3176C66.3195 77.2834 66.409 77.3475 66.4389 77.4073C66.473 77.467 66.4602 77.5097 66.473 77.514C66.4815 77.5183 66.5156 77.4756 66.4943 77.3859C66.4815 77.3432 66.4517 77.2963 66.4005 77.2578C66.3451 77.2194 66.2684 77.2023 66.1874 77.2151C66.0212 77.2365 65.8805 77.403 65.8166 77.578C65.7441 77.7573 65.7057 77.9708 65.7271 78.1928C65.7697 78.6282 66.0212 79.021 66.3408 79.0893C66.4943 79.1192 66.6179 79.0637 66.6818 79.0082C66.7458 78.9484 66.7543 78.9014 66.7458 78.8972V78.8929Z" fill="#FFB294"/>
<path d="M77.6536 69.8851C77.4788 70.7431 75.7142 71.4774 74.2692 71.392C72.9393 71.3152 72.2999 70.6321 71.3452 70.1327C70.9416 69.9221 70.4614 69.8537 69.9044 69.9277C69.231 70.0174 68.8559 70.8029 68.4637 71.3579C69.1372 72.9503 68.7919 74.7646 68.4382 76.4552C68.3998 76.643 68.3529 76.8437 68.2037 76.9675C67.9565 77.1767 67.5644 77.0358 67.3342 76.8095C66.9633 76.4467 66.8056 75.9216 66.6948 75.4178C66.4433 74.2609 66.3709 73.057 66.584 71.8958C66.8014 70.7346 67.3171 69.6118 68.1355 68.7665C69.1628 67.7078 70.6376 67.1229 72.1124 67.0888C73.5872 67.0546 75.0535 67.5584 76.264 68.4037C76.8267 68.7964 77.3467 69.2746 77.6536 69.8893" fill="#1B4CA1"/>
<path d="M74.6229 75.9387C74.6229 75.9387 74.5931 75.7551 74.6016 75.4306C74.6144 75.1105 74.7124 74.6238 75.0833 74.1841C75.4371 73.7443 76.1105 73.3857 76.8607 73.4797C77.2316 73.5223 77.6109 73.676 77.9178 73.945C78.229 74.2054 78.4592 74.5811 78.5657 74.9995C78.6637 75.4178 78.6254 75.8575 78.4634 76.2332C78.31 76.6089 78.0414 76.9206 77.7303 77.1255C77.0994 77.5481 76.3407 77.5353 75.825 77.3005C75.2964 77.0742 74.9852 76.6858 74.8318 76.404C74.6741 76.118 74.64 75.9387 74.6229 75.9429C74.6187 75.9429 74.6229 75.9899 74.6442 76.0753C74.6613 76.1606 74.6997 76.2845 74.7764 76.4381C74.917 76.737 75.2239 77.1553 75.7781 77.4158C76.3194 77.6762 77.1335 77.7146 77.8198 77.2621C78.1608 77.0444 78.4549 76.7114 78.6211 76.3015C78.8001 75.896 78.8385 75.4178 78.7362 74.961C78.6254 74.5085 78.3696 74.0987 78.0286 73.8169C77.6919 73.5309 77.2784 73.3644 76.8778 73.326C76.0636 73.2363 75.3476 73.6376 74.9852 74.1158C74.6059 74.5982 74.5206 75.1105 74.5334 75.4392C74.5334 75.6057 74.559 75.7337 74.5803 75.8191C74.6016 75.9045 74.6144 75.9472 74.6229 75.9472V75.9387Z" fill="#263238"/>
<path d="M69.4779 76.2546C69.4779 76.2546 69.4481 76.071 69.4566 75.7465C69.4694 75.4264 69.5674 74.9397 69.9383 74.5C70.2921 74.0602 70.9655 73.7017 71.7157 73.7913C72.0865 73.834 72.4659 73.9877 72.7728 74.2566C73.084 74.517 73.3141 74.8927 73.4207 75.3111C73.5187 75.7295 73.4804 76.1692 73.3184 76.5449C73.1649 76.9205 72.8964 77.2322 72.5852 77.4371C71.9544 77.8597 71.1957 77.8469 70.6799 77.6121C70.1514 77.3859 69.8402 76.9974 69.6868 76.7156C69.5291 76.4296 69.495 76.2503 69.4779 76.2546C69.4737 76.2546 69.4779 76.3015 69.4992 76.3869C69.5163 76.4723 69.5546 76.5961 69.6314 76.7498C69.772 77.0486 70.0789 77.467 70.6331 77.7274C71.1744 77.9878 71.9885 78.0262 72.6748 77.5737C73.0158 77.356 73.3099 77.023 73.4761 76.6132C73.6551 76.2076 73.6935 75.7295 73.5912 75.2727C73.4804 74.8202 73.2246 74.4103 72.8836 74.1286C72.5469 73.8425 72.1334 73.676 71.7328 73.6376C70.9186 73.548 70.2068 73.9493 69.8402 74.4274C69.4609 74.9098 69.3756 75.4221 69.3884 75.7508C69.3884 75.9173 69.414 76.0454 69.4353 76.1308C69.4566 76.2161 69.4694 76.2588 69.4779 76.2588V76.2546Z" fill="#263238"/>
<path d="M73.5658 75.3495C73.5957 75.3879 73.8301 75.2001 74.1626 75.2214C74.4951 75.2385 74.7039 75.452 74.7423 75.4178C74.7593 75.405 74.7295 75.3282 74.6357 75.2385C74.542 75.1489 74.3757 75.0592 74.1754 75.0464C73.9708 75.0336 73.796 75.1062 73.6937 75.183C73.5914 75.2599 73.5531 75.3324 73.5658 75.3495Z" fill="#263238"/>
<path d="M66.5539 76.3912C66.5667 76.4382 67.2359 76.3058 68.05 76.1009C68.8641 75.8917 69.5163 75.6868 69.5035 75.6399C69.4907 75.5929 68.8215 75.7252 68.0074 75.9302C67.1933 76.1393 66.5411 76.3443 66.5539 76.3912Z" fill="#263238"/>
<path d="M78.1521 67.6609C78.1521 67.6609 78.1734 67.7335 78.1691 67.8658C78.1606 67.9981 78.1052 68.1945 77.9645 68.3909C77.8239 68.5873 77.5894 68.7709 77.2911 68.8776C76.9927 68.9886 76.6474 69.0313 76.2851 69.0654C75.5648 69.1295 74.9083 69.1423 74.4352 69.1295C74.1965 69.1252 74.0047 69.1167 73.8726 69.1081C73.8172 69.1081 73.7703 69.0996 73.7191 69.0953C73.685 69.0953 73.668 69.091 73.668 69.0868C73.668 69.0825 73.685 69.0868 73.7234 69.0868C73.7703 69.0868 73.8214 69.0868 73.8768 69.0868C74.0388 69.0868 74.2263 69.0868 74.4395 69.091C74.9126 69.091 75.569 69.074 76.2851 69.0099C76.6432 68.98 76.9884 68.9373 77.2783 68.8306C77.5724 68.7282 77.8026 68.5574 77.939 68.3653C78.0796 68.1774 78.1393 67.9896 78.1521 67.8615C78.1649 67.7292 78.1521 67.6566 78.1563 67.6566L78.1521 67.6609Z" fill="white"/>
<path d="M78.7279 68.0238C78.7279 68.0238 78.762 68.2629 78.6852 68.6386C78.6128 69.01 78.3997 69.5223 77.9819 69.9321C77.56 70.3419 77.0485 70.5426 76.6734 70.6066C76.2983 70.6749 76.0596 70.6322 76.0596 70.6322C76.0596 70.628 76.1192 70.6322 76.2258 70.6237C76.3324 70.6237 76.4816 70.6066 76.6691 70.5682C77.0357 70.4956 77.5344 70.295 77.9478 69.8937C78.357 69.4924 78.5702 68.9929 78.6511 68.63C78.6938 68.4464 78.7108 68.2928 78.7151 68.1903C78.7236 68.0836 78.7236 68.0281 78.7279 68.0281V68.0238Z" fill="white"/>
</g>
<defs>
<clipPath id="clip0_2805_33255">
<rect width="183" height="178" fill="white"/>
</clipPath>
</defs>
</svg>
