<svg width="24" height="24" viewBox="0 0 24 24" fill="none" xmlns="http://www.w3.org/2000/svg">
<path fill-rule="evenodd" clip-rule="evenodd" d="M12.0005 9.90919C13.3586 9.90919 14.455 8.81283 14.455 7.45464C14.455 6.09646 13.3586 5.0001 12.0005 5.0001C10.6423 5.0001 9.54591 6.09646 9.54591 7.45464C9.54591 8.81283 10.6423 9.90919 12.0005 9.90919ZM5.45503 12.3641C6.81322 12.3641 7.90958 11.2677 7.90958 9.90957C7.90958 8.55139 6.81322 7.45502 5.45503 7.45502C4.09685 7.45502 3.00049 8.55139 3.00049 9.90957C3.00049 11.2677 4.09685 12.3641 5.45503 12.3641ZM7.35321 12.3714C8.13867 12.3878 8.86685 12.7805 9.35776 13.4678C9.95503 14.3105 10.945 14.8178 12.0005 14.8178C13.0559 14.8178 14.0459 14.3105 14.6432 13.4596C15.1341 12.7723 15.8623 12.3796 16.6478 12.3632C16.0587 11.365 13.7023 10.7269 12.0005 10.7269C10.3068 10.7269 7.9423 11.365 7.35321 12.3714ZM21.0004 9.90957C21.0004 11.2677 19.9041 12.3641 18.5459 12.3641C17.1877 12.3641 16.0913 11.2677 16.0913 9.90957C16.0913 8.55139 17.1877 7.45502 18.5459 7.45502C19.9041 7.45502 21.0004 8.55139 21.0004 9.90957ZM16.6887 13.0908H19.3641C20.2641 13.0908 21.0005 13.8272 21.0005 14.7272V18.9999H15.2732V16.1508C14.3323 16.8054 13.195 17.1817 12.0005 17.1817C10.8059 17.1817 9.66867 16.8054 8.72776 16.1508V18.9999H3.00049V14.7272C3.00049 13.8272 3.73685 13.0908 4.63685 13.0908H7.31231C7.86867 13.0908 8.36776 13.3935 8.68685 13.8435C9.5214 15.0217 10.8305 15.5454 12.0005 15.5454C14.1843 15.5454 15.2645 13.9183 15.3132 13.845L15.3141 13.8435C15.5841 13.459 16.0587 13.0908 16.6887 13.0908Z" fill="#1B4CA1"/>
</svg>
