<svg width="24" height="24" viewBox="0 0 24 24" fill="none" xmlns="http://www.w3.org/2000/svg">
<path fill-rule="evenodd" clip-rule="evenodd" d="M21.0005 4C19.8905 3.65 18.6705 3.5 17.5005 3.5C15.5505 3.5 13.4505 3.9 12.0005 5C10.5505 3.9 8.45049 3.5 6.50049 3.5C4.55049 3.5 2.45049 3.9 1.00049 5V19.65C1.00049 19.9 1.25049 20.15 1.50049 20.15C1.60049 20.15 1.65049 20.1 1.75049 20.1C3.10049 19.45 5.05049 19 6.50049 19C8.45049 19 10.5505 19.4 12.0005 20.5C13.3505 19.65 15.8005 19 17.5005 19C19.1505 19 20.8505 19.3 22.2505 20.05C22.3505 20.1 22.4005 20.1 22.5005 20.1C22.7505 20.1 23.0005 19.85 23.0005 19.6V5C22.4005 4.55 21.7505 4.25 21.0005 4ZM21.0005 17.5C19.9005 17.15 18.7005 17 17.5005 17C15.8005 17 13.3505 17.65 12.0005 18.5V7C13.3505 6.15 15.8005 5.5 17.5005 5.5C18.7005 5.5 19.9005 5.65 21.0005 6V17.5Z" fill="#1B4CA1"/>
<g opacity="0.5">
<path d="M17.5005 9.49958C18.3805 9.49958 19.2305 9.58958 20.0005 9.75958V8.23958C19.2105 8.08958 18.3605 7.99958 17.5005 7.99958C15.8005 7.99958 14.2605 8.28958 13.0005 8.82958V10.4896C14.1305 9.84958 15.7005 9.49958 17.5005 9.49958Z" fill="#1B4CA1"/>
<path d="M13.0005 11.4897V13.1497C14.1305 12.5097 15.7005 12.1597 17.5005 12.1597C18.3805 12.1597 19.2305 12.2497 20.0005 12.4197V10.8997C19.2105 10.7497 18.3605 10.6597 17.5005 10.6597C15.8005 10.6597 14.2605 10.9597 13.0005 11.4897Z" fill="#1B4CA1"/>
<path d="M17.5005 13.3296C15.8005 13.3296 14.2605 13.6196 13.0005 14.1596V15.8196C14.1305 15.1796 15.7005 14.8296 17.5005 14.8296C18.3805 14.8296 19.2305 14.9196 20.0005 15.0896V13.5696C19.2105 13.4096 18.3605 13.3296 17.5005 13.3296Z" fill="#1B4CA1"/>
</g>
</svg>
